<svg width="50" height="50" viewBox="0 0 50 50" fill="none" xmlns="http://www.w3.org/2000/svg">
<rect width="50" height="50" fill="#70AE7A"/>
<rect width="50" height="50" fill="white" fill-opacity="0.1"/>
<path d="M0 9.02778C0 8.64425 0.286997 8.33333 0.641026 8.33333H3.20513C3.55916 8.33333 3.84615 8.64425 3.84615 9.02778V11.8056C3.84615 12.1891 3.55916 12.5 3.20513 12.5H0.641026C0.286997 12.5 0 12.1891 0 11.8056V9.02778Z" fill="url(#paint0_radial_231:7612)"/>
<path d="M0 17.3611C0 16.9776 0.286997 16.6667 0.641026 16.6667H3.20513C3.55916 16.6667 3.84615 16.9776 3.84615 17.3611V20.1389C3.84615 20.5224 3.55916 20.8333 3.20513 20.8333H0.641026C0.286997 20.8333 0 20.5224 0 20.1389V17.3611Z" fill="url(#paint1_radial_231:7612)"/>
<path d="M0 25.6944C0 25.3109 0.286997 25 0.641026 25H3.20513C3.55916 25 3.84615 25.3109 3.84615 25.6944V28.4722C3.84615 28.8558 3.55916 29.1667 3.20513 29.1667H0.641026C0.286997 29.1667 0 28.8558 0 28.4722V25.6944Z" fill="url(#paint2_radial_231:7612)"/>
<path d="M0 34.0278C0 33.6442 0.286997 33.3333 0.641026 33.3333H3.20513C3.55916 33.3333 3.84615 33.6442 3.84615 34.0278V36.8056C3.84615 37.1891 3.55916 37.5 3.20513 37.5H0.641026C0.286997 37.5 0 37.1891 0 36.8056V34.0278Z" fill="url(#paint3_radial_231:7612)"/>
<path d="M0 42.3611C0 41.9776 0.286997 41.6667 0.641026 41.6667H3.20513C3.55916 41.6667 3.84615 41.9776 3.84615 42.3611V45.1389C3.84615 45.5224 3.55916 45.8333 3.20513 45.8333H0.641026C0.286997 45.8333 0 45.5224 0 45.1389V42.3611Z" fill="url(#paint4_radial_231:7612)"/>
<path d="M3.84615 4.86111C3.84615 4.47758 4.13315 4.16667 4.48718 4.16667H7.05128C7.40531 4.16667 7.69231 4.47758 7.69231 4.86111V7.63889C7.69231 8.02242 7.40531 8.33333 7.05128 8.33333H4.48718C4.13315 8.33333 3.84615 8.02242 3.84615 7.63889V4.86111Z" fill="url(#paint5_radial_231:7612)"/>
<path d="M3.84615 13.1944C3.84615 12.8109 4.13315 12.5 4.48718 12.5H7.05128C7.40531 12.5 7.69231 12.8109 7.69231 13.1944V15.9722C7.69231 16.3558 7.40531 16.6667 7.05128 16.6667H4.48718C4.13315 16.6667 3.84615 16.3558 3.84615 15.9722V13.1944Z" fill="url(#paint6_radial_231:7612)"/>
<path d="M3.84615 21.5278C3.84615 21.1442 4.13315 20.8333 4.48718 20.8333H7.05128C7.40531 20.8333 7.69231 21.1442 7.69231 21.5278V24.3056C7.69231 24.6891 7.40531 25 7.05128 25H4.48718C4.13315 25 3.84615 24.6891 3.84615 24.3056V21.5278Z" fill="url(#paint7_radial_231:7612)"/>
<path d="M3.84615 29.8611C3.84615 29.4776 4.13315 29.1667 4.48718 29.1667H7.05128C7.40531 29.1667 7.69231 29.4776 7.69231 29.8611V32.6389C7.69231 33.0224 7.40531 33.3333 7.05128 33.3333H4.48718C4.13315 33.3333 3.84615 33.0224 3.84615 32.6389V29.8611Z" fill="url(#paint8_radial_231:7612)"/>
<path d="M3.84615 38.1944C3.84615 37.8109 4.13315 37.5 4.48718 37.5H7.05128C7.40531 37.5 7.69231 37.8109 7.69231 38.1944V40.9722C7.69231 41.3558 7.40531 41.6667 7.05128 41.6667H4.48718C4.13315 41.6667 3.84615 41.3558 3.84615 40.9722V38.1944Z" fill="url(#paint9_radial_231:7612)"/>
<path d="M3.84615 46.5278C3.84615 46.1442 4.13315 45.8333 4.48718 45.8333H7.05128C7.40531 45.8333 7.69231 46.1442 7.69231 46.5278V49.3056C7.69231 49.6891 7.40531 50 7.05128 50H4.48718C4.13315 50 3.84615 49.6891 3.84615 49.3056V46.5278Z" fill="url(#paint10_radial_231:7612)"/>
<path d="M11.5385 4.86111C11.5385 4.47758 11.8255 4.16667 12.1795 4.16667H14.7436C15.0976 4.16667 15.3846 4.47758 15.3846 4.86111V7.63889C15.3846 8.02242 15.0976 8.33333 14.7436 8.33333H12.1795C11.8255 8.33333 11.5385 8.02242 11.5385 7.63889V4.86111Z" fill="url(#paint11_radial_231:7612)"/>
<path d="M11.5385 13.1944C11.5385 12.8109 11.8255 12.5 12.1795 12.5H14.7436C15.0976 12.5 15.3846 12.8109 15.3846 13.1944V15.9722C15.3846 16.3558 15.0976 16.6667 14.7436 16.6667H12.1795C11.8255 16.6667 11.5385 16.3558 11.5385 15.9722V13.1944Z" fill="url(#paint12_radial_231:7612)"/>
<path d="M11.5385 21.5278C11.5385 21.1442 11.8255 20.8333 12.1795 20.8333H14.7436C15.0976 20.8333 15.3846 21.1442 15.3846 21.5278V24.3056C15.3846 24.6891 15.0976 25 14.7436 25H12.1795C11.8255 25 11.5385 24.6891 11.5385 24.3056V21.5278Z" fill="url(#paint13_radial_231:7612)"/>
<path d="M11.5385 29.8611C11.5385 29.4776 11.8255 29.1667 12.1795 29.1667H14.7436C15.0976 29.1667 15.3846 29.4776 15.3846 29.8611V32.6389C15.3846 33.0224 15.0976 33.3333 14.7436 33.3333H12.1795C11.8255 33.3333 11.5385 33.0224 11.5385 32.6389V29.8611Z" fill="url(#paint14_radial_231:7612)"/>
<path d="M11.5385 38.1944C11.5385 37.8109 11.8255 37.5 12.1795 37.5H14.7436C15.0976 37.5 15.3846 37.8109 15.3846 38.1944V40.9722C15.3846 41.3558 15.0976 41.6667 14.7436 41.6667H12.1795C11.8255 41.6667 11.5385 41.3558 11.5385 40.9722V38.1944Z" fill="url(#paint15_radial_231:7612)"/>
<path d="M11.5385 46.5278C11.5385 46.1442 11.8255 45.8333 12.1795 45.8333H14.7436C15.0976 45.8333 15.3846 46.1442 15.3846 46.5278V49.3056C15.3846 49.6891 15.0976 50 14.7436 50H12.1795C11.8255 50 11.5385 49.6891 11.5385 49.3056V46.5278Z" fill="url(#paint16_radial_231:7612)"/>
<path d="M19.2308 4.86111C19.2308 4.47758 19.5178 4.16667 19.8718 4.16667H22.4359C22.7899 4.16667 23.0769 4.47758 23.0769 4.86111V7.63889C23.0769 8.02242 22.7899 8.33333 22.4359 8.33333H19.8718C19.5178 8.33333 19.2308 8.02242 19.2308 7.63889V4.86111Z" fill="url(#paint17_radial_231:7612)"/>
<path d="M19.2308 13.1944C19.2308 12.8109 19.5178 12.5 19.8718 12.5H22.4359C22.7899 12.5 23.0769 12.8109 23.0769 13.1944V15.9722C23.0769 16.3558 22.7899 16.6667 22.4359 16.6667H19.8718C19.5178 16.6667 19.2308 16.3558 19.2308 15.9722V13.1944Z" fill="url(#paint18_radial_231:7612)"/>
<path d="M19.2308 21.5278C19.2308 21.1442 19.5178 20.8333 19.8718 20.8333H22.4359C22.7899 20.8333 23.0769 21.1442 23.0769 21.5278V24.3056C23.0769 24.6891 22.7899 25 22.4359 25H19.8718C19.5178 25 19.2308 24.6891 19.2308 24.3056V21.5278Z" fill="url(#paint19_radial_231:7612)"/>
<path d="M19.2308 29.8611C19.2308 29.4776 19.5178 29.1667 19.8718 29.1667H22.4359C22.7899 29.1667 23.0769 29.4776 23.0769 29.8611V32.6389C23.0769 33.0224 22.7899 33.3333 22.4359 33.3333H19.8718C19.5178 33.3333 19.2308 33.0224 19.2308 32.6389V29.8611Z" fill="url(#paint20_radial_231:7612)"/>
<path d="M19.2308 38.1944C19.2308 37.8109 19.5178 37.5 19.8718 37.5H22.4359C22.7899 37.5 23.0769 37.8109 23.0769 38.1944V40.9722C23.0769 41.3558 22.7899 41.6667 22.4359 41.6667H19.8718C19.5178 41.6667 19.2308 41.3558 19.2308 40.9722V38.1944Z" fill="url(#paint21_radial_231:7612)"/>
<path d="M19.2308 46.5278C19.2308 46.1442 19.5178 45.8333 19.8718 45.8333H22.4359C22.7899 45.8333 23.0769 46.1442 23.0769 46.5278V49.3056C23.0769 49.6891 22.7899 50 22.4359 50H19.8718C19.5178 50 19.2308 49.6891 19.2308 49.3056V46.5278Z" fill="url(#paint22_radial_231:7612)"/>
<path d="M26.9231 4.86111C26.9231 4.47758 27.2101 4.16667 27.5641 4.16667H30.1282C30.4822 4.16667 30.7692 4.47758 30.7692 4.86111V7.63889C30.7692 8.02242 30.4822 8.33333 30.1282 8.33333H27.5641C27.2101 8.33333 26.9231 8.02242 26.9231 7.63889V4.86111Z" fill="url(#paint23_radial_231:7612)"/>
<path d="M26.9231 13.1944C26.9231 12.8109 27.2101 12.5 27.5641 12.5H30.1282C30.4822 12.5 30.7692 12.8109 30.7692 13.1944V15.9722C30.7692 16.3558 30.4822 16.6667 30.1282 16.6667H27.5641C27.2101 16.6667 26.9231 16.3558 26.9231 15.9722V13.1944Z" fill="url(#paint24_radial_231:7612)"/>
<path d="M26.9231 21.5278C26.9231 21.1442 27.2101 20.8333 27.5641 20.8333H30.1282C30.4822 20.8333 30.7692 21.1442 30.7692 21.5278V24.3056C30.7692 24.6891 30.4822 25 30.1282 25H27.5641C27.2101 25 26.9231 24.6891 26.9231 24.3056V21.5278Z" fill="url(#paint25_radial_231:7612)"/>
<path d="M26.9231 29.8611C26.9231 29.4776 27.2101 29.1667 27.5641 29.1667H30.1282C30.4822 29.1667 30.7692 29.4776 30.7692 29.8611V32.6389C30.7692 33.0224 30.4822 33.3333 30.1282 33.3333H27.5641C27.2101 33.3333 26.9231 33.0224 26.9231 32.6389V29.8611Z" fill="url(#paint26_radial_231:7612)"/>
<path d="M26.9231 38.1944C26.9231 37.8109 27.2101 37.5 27.5641 37.5H30.1282C30.4822 37.5 30.7692 37.8109 30.7692 38.1944V40.9722C30.7692 41.3558 30.4822 41.6667 30.1282 41.6667H27.5641C27.2101 41.6667 26.9231 41.3558 26.9231 40.9722V38.1944Z" fill="url(#paint27_radial_231:7612)"/>
<path d="M26.9231 46.5278C26.9231 46.1442 27.2101 45.8333 27.5641 45.8333H30.1282C30.4822 45.8333 30.7692 46.1442 30.7692 46.5278V49.3056C30.7692 49.6891 30.4822 50 30.1282 50H27.5641C27.2101 50 26.9231 49.6891 26.9231 49.3056V46.5278Z" fill="url(#paint28_radial_231:7612)"/>
<path d="M34.6154 4.86111C34.6154 4.47758 34.9024 4.16667 35.2564 4.16667H37.8205C38.1745 4.16667 38.4615 4.47758 38.4615 4.86111V7.63889C38.4615 8.02242 38.1745 8.33333 37.8205 8.33333H35.2564C34.9024 8.33333 34.6154 8.02242 34.6154 7.63889V4.86111Z" fill="url(#paint29_radial_231:7612)"/>
<path d="M34.6154 13.1944C34.6154 12.8109 34.9024 12.5 35.2564 12.5H37.8205C38.1745 12.5 38.4615 12.8109 38.4615 13.1944V15.9722C38.4615 16.3558 38.1745 16.6667 37.8205 16.6667H35.2564C34.9024 16.6667 34.6154 16.3558 34.6154 15.9722V13.1944Z" fill="url(#paint30_radial_231:7612)"/>
<path d="M34.6154 21.5278C34.6154 21.1442 34.9024 20.8333 35.2564 20.8333H37.8205C38.1745 20.8333 38.4615 21.1442 38.4615 21.5278V24.3056C38.4615 24.6891 38.1745 25 37.8205 25H35.2564C34.9024 25 34.6154 24.6891 34.6154 24.3056V21.5278Z" fill="url(#paint31_radial_231:7612)"/>
<path d="M34.6154 29.8611C34.6154 29.4776 34.9024 29.1667 35.2564 29.1667H37.8205C38.1745 29.1667 38.4615 29.4776 38.4615 29.8611V32.6389C38.4615 33.0224 38.1745 33.3333 37.8205 33.3333H35.2564C34.9024 33.3333 34.6154 33.0224 34.6154 32.6389V29.8611Z" fill="url(#paint32_radial_231:7612)"/>
<path d="M34.6154 38.1944C34.6154 37.8109 34.9024 37.5 35.2564 37.5H37.8205C38.1745 37.5 38.4615 37.8109 38.4615 38.1944V40.9722C38.4615 41.3558 38.1745 41.6667 37.8205 41.6667H35.2564C34.9024 41.6667 34.6154 41.3558 34.6154 40.9722V38.1944Z" fill="url(#paint33_radial_231:7612)"/>
<path d="M34.6154 46.5278C34.6154 46.1442 34.9024 45.8333 35.2564 45.8333H37.8205C38.1745 45.8333 38.4615 46.1442 38.4615 46.5278V49.3056C38.4615 49.6891 38.1745 50 37.8205 50H35.2564C34.9024 50 34.6154 49.6891 34.6154 49.3056V46.5278Z" fill="url(#paint34_radial_231:7612)"/>
<path d="M42.3077 4.86111C42.3077 4.47758 42.5947 4.16667 42.9487 4.16667H45.5128C45.8669 4.16667 46.1538 4.47758 46.1538 4.86111V7.63889C46.1538 8.02242 45.8669 8.33333 45.5128 8.33333H42.9487C42.5947 8.33333 42.3077 8.02242 42.3077 7.63889V4.86111Z" fill="url(#paint35_radial_231:7612)"/>
<path d="M42.3077 13.1944C42.3077 12.8109 42.5947 12.5 42.9487 12.5H45.5128C45.8669 12.5 46.1538 12.8109 46.1538 13.1944V15.9722C46.1538 16.3558 45.8669 16.6667 45.5128 16.6667H42.9487C42.5947 16.6667 42.3077 16.3558 42.3077 15.9722V13.1944Z" fill="url(#paint36_radial_231:7612)"/>
<path d="M42.3077 21.5278C42.3077 21.1442 42.5947 20.8333 42.9487 20.8333H45.5128C45.8669 20.8333 46.1538 21.1442 46.1538 21.5278V24.3056C46.1538 24.6891 45.8669 25 45.5128 25H42.9487C42.5947 25 42.3077 24.6891 42.3077 24.3056V21.5278Z" fill="url(#paint37_radial_231:7612)"/>
<path d="M42.3077 29.8611C42.3077 29.4776 42.5947 29.1667 42.9487 29.1667H45.5128C45.8669 29.1667 46.1538 29.4776 46.1538 29.8611V32.6389C46.1538 33.0224 45.8669 33.3333 45.5128 33.3333H42.9487C42.5947 33.3333 42.3077 33.0224 42.3077 32.6389V29.8611Z" fill="url(#paint38_radial_231:7612)"/>
<path d="M42.3077 38.1944C42.3077 37.8109 42.5947 37.5 42.9487 37.5H45.5128C45.8669 37.5 46.1538 37.8109 46.1538 38.1944V40.9722C46.1538 41.3558 45.8669 41.6667 45.5128 41.6667H42.9487C42.5947 41.6667 42.3077 41.3558 42.3077 40.9722V38.1944Z" fill="url(#paint39_radial_231:7612)"/>
<path d="M42.3077 46.5278C42.3077 46.1442 42.5947 45.8333 42.9487 45.8333H45.5128C45.8669 45.8333 46.1538 46.1442 46.1538 46.5278V49.3056C46.1538 49.6891 45.8669 50 45.5128 50H42.9487C42.5947 50 42.3077 49.6891 42.3077 49.3056V46.5278Z" fill="url(#paint40_radial_231:7612)"/>
<path d="M0 0.694445C0 0.310913 0.286997 0 0.641026 0H3.20513C3.55916 0 3.84615 0.310913 3.84615 0.694444V3.47222C3.84615 3.85575 3.55916 4.16667 3.20513 4.16667H0.641026C0.286997 4.16667 0 3.85575 0 3.47222V0.694445Z" fill="url(#paint41_radial_231:7612)"/>
<path d="M15.3846 9.02778C15.3846 8.64425 15.6716 8.33333 16.0256 8.33333H18.5897C18.9438 8.33333 19.2308 8.64425 19.2308 9.02778V11.8056C19.2308 12.1891 18.9438 12.5 18.5897 12.5H16.0256C15.6716 12.5 15.3846 12.1891 15.3846 11.8056V9.02778Z" fill="url(#paint42_radial_231:7612)"/>
<path d="M15.3846 17.3611C15.3846 16.9776 15.6716 16.6667 16.0256 16.6667H18.5897C18.9438 16.6667 19.2308 16.9776 19.2308 17.3611V20.1389C19.2308 20.5224 18.9438 20.8333 18.5897 20.8333H16.0256C15.6716 20.8333 15.3846 20.5224 15.3846 20.1389V17.3611Z" fill="url(#paint43_radial_231:7612)"/>
<path d="M15.3846 25.6944C15.3846 25.3109 15.6716 25 16.0256 25H18.5897C18.9438 25 19.2308 25.3109 19.2308 25.6944V28.4722C19.2308 28.8558 18.9438 29.1667 18.5897 29.1667H16.0256C15.6716 29.1667 15.3846 28.8558 15.3846 28.4722V25.6944Z" fill="url(#paint44_radial_231:7612)"/>
<path d="M15.3846 34.0278C15.3846 33.6442 15.6716 33.3333 16.0256 33.3333H18.5897C18.9438 33.3333 19.2308 33.6442 19.2308 34.0278V36.8056C19.2308 37.1891 18.9438 37.5 18.5897 37.5H16.0256C15.6716 37.5 15.3846 37.1891 15.3846 36.8056V34.0278Z" fill="url(#paint45_radial_231:7612)"/>
<path d="M15.3846 42.3611C15.3846 41.9776 15.6716 41.6667 16.0256 41.6667H18.5897C18.9438 41.6667 19.2308 41.9776 19.2308 42.3611V45.1389C19.2308 45.5224 18.9438 45.8333 18.5897 45.8333H16.0256C15.6716 45.8333 15.3846 45.5224 15.3846 45.1389V42.3611Z" fill="url(#paint46_radial_231:7612)"/>
<path d="M15.3846 0.694445C15.3846 0.310913 15.6716 0 16.0256 0H18.5897C18.9438 0 19.2308 0.310913 19.2308 0.694444V3.47222C19.2308 3.85575 18.9438 4.16667 18.5897 4.16667H16.0256C15.6716 4.16667 15.3846 3.85575 15.3846 3.47222V0.694445Z" fill="url(#paint47_radial_231:7612)"/>
<path d="M30.7692 9.02778C30.7692 8.64425 31.0562 8.33333 31.4103 8.33333H33.9744C34.3284 8.33333 34.6154 8.64425 34.6154 9.02778V11.8056C34.6154 12.1891 34.3284 12.5 33.9744 12.5H31.4103C31.0562 12.5 30.7692 12.1891 30.7692 11.8056V9.02778Z" fill="url(#paint48_radial_231:7612)"/>
<path d="M30.7692 17.3611C30.7692 16.9776 31.0562 16.6667 31.4103 16.6667H33.9744C34.3284 16.6667 34.6154 16.9776 34.6154 17.3611V20.1389C34.6154 20.5224 34.3284 20.8333 33.9744 20.8333H31.4103C31.0562 20.8333 30.7692 20.5224 30.7692 20.1389V17.3611Z" fill="url(#paint49_radial_231:7612)"/>
<path d="M30.7692 25.6944C30.7692 25.3109 31.0562 25 31.4103 25H33.9744C34.3284 25 34.6154 25.3109 34.6154 25.6944V28.4722C34.6154 28.8558 34.3284 29.1667 33.9744 29.1667H31.4103C31.0562 29.1667 30.7692 28.8558 30.7692 28.4722V25.6944Z" fill="url(#paint50_radial_231:7612)"/>
<path d="M30.7692 34.0278C30.7692 33.6442 31.0562 33.3333 31.4103 33.3333H33.9744C34.3284 33.3333 34.6154 33.6442 34.6154 34.0278V36.8056C34.6154 37.1891 34.3284 37.5 33.9744 37.5H31.4103C31.0562 37.5 30.7692 37.1891 30.7692 36.8056V34.0278Z" fill="url(#paint51_radial_231:7612)"/>
<path d="M30.7692 42.3611C30.7692 41.9776 31.0562 41.6667 31.4103 41.6667H33.9744C34.3284 41.6667 34.6154 41.9776 34.6154 42.3611V45.1389C34.6154 45.5224 34.3284 45.8333 33.9744 45.8333H31.4103C31.0562 45.8333 30.7692 45.5224 30.7692 45.1389V42.3611Z" fill="url(#paint52_radial_231:7612)"/>
<path d="M30.7692 0.694445C30.7692 0.310913 31.0562 0 31.4103 0H33.9744C34.3284 0 34.6154 0.310913 34.6154 0.694444V3.47222C34.6154 3.85575 34.3284 4.16667 33.9744 4.16667H31.4103C31.0562 4.16667 30.7692 3.85575 30.7692 3.47222V0.694445Z" fill="url(#paint53_radial_231:7612)"/>
<path d="M7.69231 9.02778C7.69231 8.64425 7.9793 8.33333 8.33333 8.33333H10.8974C11.2515 8.33333 11.5385 8.64425 11.5385 9.02778V11.8056C11.5385 12.1891 11.2515 12.5 10.8974 12.5H8.33333C7.9793 12.5 7.69231 12.1891 7.69231 11.8056V9.02778Z" fill="url(#paint54_radial_231:7612)"/>
<path d="M7.69231 17.3611C7.69231 16.9776 7.9793 16.6667 8.33333 16.6667H10.8974C11.2515 16.6667 11.5385 16.9776 11.5385 17.3611V20.1389C11.5385 20.5224 11.2515 20.8333 10.8974 20.8333H8.33333C7.9793 20.8333 7.69231 20.5224 7.69231 20.1389V17.3611Z" fill="url(#paint55_radial_231:7612)"/>
<path d="M7.69231 25.6944C7.69231 25.3109 7.9793 25 8.33333 25H10.8974C11.2515 25 11.5385 25.3109 11.5385 25.6944V28.4722C11.5385 28.8558 11.2515 29.1667 10.8974 29.1667H8.33333C7.9793 29.1667 7.69231 28.8558 7.69231 28.4722V25.6944Z" fill="url(#paint56_radial_231:7612)"/>
<path d="M7.69231 34.0278C7.69231 33.6442 7.9793 33.3333 8.33333 33.3333H10.8974C11.2515 33.3333 11.5385 33.6442 11.5385 34.0278V36.8056C11.5385 37.1891 11.2515 37.5 10.8974 37.5H8.33333C7.9793 37.5 7.69231 37.1891 7.69231 36.8056V34.0278Z" fill="url(#paint57_radial_231:7612)"/>
<path d="M7.69231 42.3611C7.69231 41.9776 7.9793 41.6667 8.33333 41.6667H10.8974C11.2515 41.6667 11.5385 41.9776 11.5385 42.3611V45.1389C11.5385 45.5224 11.2515 45.8333 10.8974 45.8333H8.33333C7.9793 45.8333 7.69231 45.5224 7.69231 45.1389V42.3611Z" fill="url(#paint58_radial_231:7612)"/>
<path d="M7.69231 0.694445C7.69231 0.310913 7.9793 0 8.33333 0H10.8974C11.2515 0 11.5385 0.310913 11.5385 0.694444V3.47222C11.5385 3.85575 11.2515 4.16667 10.8974 4.16667H8.33333C7.9793 4.16667 7.69231 3.85575 7.69231 3.47222V0.694445Z" fill="url(#paint59_radial_231:7612)"/>
<path d="M23.0769 9.02778C23.0769 8.64425 23.3639 8.33333 23.7179 8.33333H26.2821C26.6361 8.33333 26.9231 8.64425 26.9231 9.02778V11.8056C26.9231 12.1891 26.6361 12.5 26.2821 12.5H23.7179C23.3639 12.5 23.0769 12.1891 23.0769 11.8056V9.02778Z" fill="url(#paint60_radial_231:7612)"/>
<path d="M23.0769 17.3611C23.0769 16.9776 23.3639 16.6667 23.7179 16.6667H26.2821C26.6361 16.6667 26.9231 16.9776 26.9231 17.3611V20.1389C26.9231 20.5224 26.6361 20.8333 26.2821 20.8333H23.7179C23.3639 20.8333 23.0769 20.5224 23.0769 20.1389V17.3611Z" fill="url(#paint61_radial_231:7612)"/>
<path d="M23.0769 25.6944C23.0769 25.3109 23.3639 25 23.7179 25H26.2821C26.6361 25 26.9231 25.3109 26.9231 25.6944V28.4722C26.9231 28.8558 26.6361 29.1667 26.2821 29.1667H23.7179C23.3639 29.1667 23.0769 28.8558 23.0769 28.4722V25.6944Z" fill="url(#paint62_radial_231:7612)"/>
<path d="M23.0769 34.0278C23.0769 33.6442 23.3639 33.3333 23.7179 33.3333H26.2821C26.6361 33.3333 26.9231 33.6442 26.9231 34.0278V36.8056C26.9231 37.1891 26.6361 37.5 26.2821 37.5H23.7179C23.3639 37.5 23.0769 37.1891 23.0769 36.8056V34.0278Z" fill="url(#paint63_radial_231:7612)"/>
<path d="M23.0769 42.3611C23.0769 41.9776 23.3639 41.6667 23.7179 41.6667H26.2821C26.6361 41.6667 26.9231 41.9776 26.9231 42.3611V45.1389C26.9231 45.5224 26.6361 45.8333 26.2821 45.8333H23.7179C23.3639 45.8333 23.0769 45.5224 23.0769 45.1389V42.3611Z" fill="url(#paint64_radial_231:7612)"/>
<path d="M23.0769 0.694445C23.0769 0.310913 23.3639 0 23.7179 0H26.2821C26.6361 0 26.9231 0.310913 26.9231 0.694444V3.47222C26.9231 3.85575 26.6361 4.16667 26.2821 4.16667H23.7179C23.3639 4.16667 23.0769 3.85575 23.0769 3.47222V0.694445Z" fill="url(#paint65_radial_231:7612)"/>
<path d="M38.4615 9.02778C38.4615 8.64425 38.7485 8.33333 39.1026 8.33333H41.6667C42.0207 8.33333 42.3077 8.64425 42.3077 9.02778V11.8056C42.3077 12.1891 42.0207 12.5 41.6667 12.5H39.1026C38.7485 12.5 38.4615 12.1891 38.4615 11.8056V9.02778Z" fill="url(#paint66_radial_231:7612)"/>
<path d="M38.4615 17.3611C38.4615 16.9776 38.7485 16.6667 39.1026 16.6667H41.6667C42.0207 16.6667 42.3077 16.9776 42.3077 17.3611V20.1389C42.3077 20.5224 42.0207 20.8333 41.6667 20.8333H39.1026C38.7485 20.8333 38.4615 20.5224 38.4615 20.1389V17.3611Z" fill="url(#paint67_radial_231:7612)"/>
<path d="M38.4615 25.6944C38.4615 25.3109 38.7485 25 39.1026 25H41.6667C42.0207 25 42.3077 25.3109 42.3077 25.6944V28.4722C42.3077 28.8558 42.0207 29.1667 41.6667 29.1667H39.1026C38.7485 29.1667 38.4615 28.8558 38.4615 28.4722V25.6944Z" fill="url(#paint68_radial_231:7612)"/>
<path d="M38.4615 34.0278C38.4615 33.6442 38.7485 33.3333 39.1026 33.3333H41.6667C42.0207 33.3333 42.3077 33.6442 42.3077 34.0278V36.8056C42.3077 37.1891 42.0207 37.5 41.6667 37.5H39.1026C38.7485 37.5 38.4615 37.1891 38.4615 36.8056V34.0278Z" fill="url(#paint69_radial_231:7612)"/>
<path d="M38.4615 42.3611C38.4615 41.9776 38.7485 41.6667 39.1026 41.6667H41.6667C42.0207 41.6667 42.3077 41.9776 42.3077 42.3611V45.1389C42.3077 45.5224 42.0207 45.8333 41.6667 45.8333H39.1026C38.7485 45.8333 38.4615 45.5224 38.4615 45.1389V42.3611Z" fill="url(#paint70_radial_231:7612)"/>
<path d="M38.4615 0.694445C38.4615 0.310913 38.7485 0 39.1026 0H41.6667C42.0207 0 42.3077 0.310913 42.3077 0.694444V3.47222C42.3077 3.85575 42.0207 4.16667 41.6667 4.16667H39.1026C38.7485 4.16667 38.4615 3.85575 38.4615 3.47222V0.694445Z" fill="url(#paint71_radial_231:7612)"/>
<path d="M46.1538 9.02778C46.1538 8.64425 46.4408 8.33333 46.7949 8.33333H49.359C49.713 8.33333 50 8.64425 50 9.02778V11.8056C50 12.1891 49.713 12.5 49.359 12.5H46.7949C46.4408 12.5 46.1538 12.1891 46.1538 11.8056V9.02778Z" fill="url(#paint72_radial_231:7612)"/>
<path d="M46.1538 17.3611C46.1538 16.9776 46.4408 16.6667 46.7949 16.6667H49.359C49.713 16.6667 50 16.9776 50 17.3611V20.1389C50 20.5224 49.713 20.8333 49.359 20.8333H46.7949C46.4408 20.8333 46.1538 20.5224 46.1538 20.1389V17.3611Z" fill="url(#paint73_radial_231:7612)"/>
<path d="M46.1538 25.6944C46.1538 25.3109 46.4408 25 46.7949 25H49.359C49.713 25 50 25.3109 50 25.6944V28.4722C50 28.8558 49.713 29.1667 49.359 29.1667H46.7949C46.4408 29.1667 46.1538 28.8558 46.1538 28.4722V25.6944Z" fill="url(#paint74_radial_231:7612)"/>
<path d="M46.1538 34.0278C46.1538 33.6442 46.4408 33.3333 46.7949 33.3333H49.359C49.713 33.3333 50 33.6442 50 34.0278V36.8056C50 37.1891 49.713 37.5 49.359 37.5H46.7949C46.4408 37.5 46.1538 37.1891 46.1538 36.8056V34.0278Z" fill="url(#paint75_radial_231:7612)"/>
<path d="M46.1538 42.3611C46.1538 41.9776 46.4408 41.6667 46.7949 41.6667H49.359C49.713 41.6667 50 41.9776 50 42.3611V45.1389C50 45.5224 49.713 45.8333 49.359 45.8333H46.7949C46.4408 45.8333 46.1538 45.5224 46.1538 45.1389V42.3611Z" fill="url(#paint76_radial_231:7612)"/>
<path d="M46.1538 0.694445C46.1538 0.310913 46.4408 0 46.7949 0H49.359C49.713 0 50 0.310913 50 0.694444V3.47222C50 3.85575 49.713 4.16667 49.359 4.16667H46.7949C46.4408 4.16667 46.1538 3.85575 46.1538 3.47222V0.694445Z" fill="url(#paint77_radial_231:7612)"/>
<rect x="29" y="7" width="14.5" height="19.1774" rx="2" fill="white"/>
<rect x="29.7017" y="7.93542" width="13.0968" height="4.67742" rx="1" fill="#70AE7A"/>
<rect x="30.6371" y="14.4839" width="1.87097" height="1.87097" rx="0.5" fill="#70AE7A"/>
<rect x="30.6371" y="17.2903" width="1.87097" height="1.87097" rx="0.5" fill="#70AE7A"/>
<rect x="30.6371" y="20.0968" width="1.87097" height="1.87097" rx="0.5" fill="#70AE7A"/>
<rect x="30.6371" y="22.9032" width="1.87097" height="1.87097" rx="0.5" fill="#70AE7A"/>
<rect x="33.4436" y="14.4839" width="1.87097" height="1.87097" rx="0.5" fill="#70AE7A"/>
<rect x="33.4436" y="17.2903" width="1.87097" height="1.87097" rx="0.5" fill="#70AE7A"/>
<rect x="33.4436" y="20.0968" width="1.87097" height="1.87097" rx="0.5" fill="#70AE7A"/>
<rect x="33.4436" y="22.9032" width="1.87097" height="1.87097" rx="0.5" fill="#70AE7A"/>
<rect x="36.25" y="14.4839" width="1.87097" height="1.87097" rx="0.5" fill="#70AE7A"/>
<rect x="36.25" y="17.2903" width="1.87097" height="1.87097" rx="0.5" fill="#70AE7A"/>
<rect x="36.25" y="20.0968" width="1.87097" height="1.87097" rx="0.5" fill="#70AE7A"/>
<rect x="36.25" y="22.9032" width="1.87097" height="1.87097" rx="0.5" fill="#70AE7A"/>
<rect x="39.9919" y="14.4839" width="1.87097" height="1.87097" rx="0.5" fill="#70AE7A"/>
<rect x="39.9919" y="17.2903" width="1.87097" height="1.87097" rx="0.5" fill="#70AE7A"/>
<rect x="39.9919" y="20.0968" width="1.87097" height="4.67742" rx="0.5" fill="#70AE7A"/>
<rect x="7" y="40" width="21" height="1" rx="0.5" fill="white"/>
<path d="M8 19C8 18.4477 8.44772 18 9 18H10C10.5523 18 11 18.4477 11 19V40C11 40.5523 10.5523 41 10 41H9C8.44772 41 8 40.5523 8 40V19Z" fill="white"/>
<rect x="12" y="23" width="3" height="18" rx="1" fill="white"/>
<rect x="16" y="29" width="3" height="12" rx="1" fill="white"/>
<rect x="24" y="29" width="3" height="12" rx="1" fill="white"/>
<rect x="20" y="35" width="3" height="6" rx="1" fill="white"/>
<defs>
<radialGradient id="paint0_radial_231:7612" cx="0" cy="0" r="1" gradientUnits="userSpaceOnUse" gradientTransform="translate(21.7949 -13.8889) rotate(66.4079) scale(70.4737 66.4772)">
<stop stop-color="white"/>
<stop offset="1" stop-color="white" stop-opacity="0"/>
</radialGradient>
<radialGradient id="paint1_radial_231:7612" cx="0" cy="0" r="1" gradientUnits="userSpaceOnUse" gradientTransform="translate(21.7949 -13.8889) rotate(66.4079) scale(70.4737 66.4772)">
<stop stop-color="white"/>
<stop offset="1" stop-color="white" stop-opacity="0"/>
</radialGradient>
<radialGradient id="paint2_radial_231:7612" cx="0" cy="0" r="1" gradientUnits="userSpaceOnUse" gradientTransform="translate(21.7949 -13.8889) rotate(66.4079) scale(70.4737 66.4772)">
<stop stop-color="white"/>
<stop offset="1" stop-color="white" stop-opacity="0"/>
</radialGradient>
<radialGradient id="paint3_radial_231:7612" cx="0" cy="0" r="1" gradientUnits="userSpaceOnUse" gradientTransform="translate(21.7949 -13.8889) rotate(66.4079) scale(70.4737 66.4772)">
<stop stop-color="white"/>
<stop offset="1" stop-color="white" stop-opacity="0"/>
</radialGradient>
<radialGradient id="paint4_radial_231:7612" cx="0" cy="0" r="1" gradientUnits="userSpaceOnUse" gradientTransform="translate(21.7949 -13.8889) rotate(66.4079) scale(70.4737 66.4772)">
<stop stop-color="white"/>
<stop offset="1" stop-color="white" stop-opacity="0"/>
</radialGradient>
<radialGradient id="paint5_radial_231:7612" cx="0" cy="0" r="1" gradientUnits="userSpaceOnUse" gradientTransform="translate(21.7949 -13.8889) rotate(66.4079) scale(70.4737 66.4772)">
<stop stop-color="white"/>
<stop offset="1" stop-color="white" stop-opacity="0"/>
</radialGradient>
<radialGradient id="paint6_radial_231:7612" cx="0" cy="0" r="1" gradientUnits="userSpaceOnUse" gradientTransform="translate(21.7949 -13.8889) rotate(66.4079) scale(70.4737 66.4772)">
<stop stop-color="white"/>
<stop offset="1" stop-color="white" stop-opacity="0"/>
</radialGradient>
<radialGradient id="paint7_radial_231:7612" cx="0" cy="0" r="1" gradientUnits="userSpaceOnUse" gradientTransform="translate(21.7949 -13.8889) rotate(66.4079) scale(70.4737 66.4772)">
<stop stop-color="white"/>
<stop offset="1" stop-color="white" stop-opacity="0"/>
</radialGradient>
<radialGradient id="paint8_radial_231:7612" cx="0" cy="0" r="1" gradientUnits="userSpaceOnUse" gradientTransform="translate(21.7949 -13.8889) rotate(66.4079) scale(70.4737 66.4772)">
<stop stop-color="white"/>
<stop offset="1" stop-color="white" stop-opacity="0"/>
</radialGradient>
<radialGradient id="paint9_radial_231:7612" cx="0" cy="0" r="1" gradientUnits="userSpaceOnUse" gradientTransform="translate(21.7949 -13.8889) rotate(66.4079) scale(70.4737 66.4772)">
<stop stop-color="white"/>
<stop offset="1" stop-color="white" stop-opacity="0"/>
</radialGradient>
<radialGradient id="paint10_radial_231:7612" cx="0" cy="0" r="1" gradientUnits="userSpaceOnUse" gradientTransform="translate(21.7949 -13.8889) rotate(66.4079) scale(70.4737 66.4772)">
<stop stop-color="white"/>
<stop offset="1" stop-color="white" stop-opacity="0"/>
</radialGradient>
<radialGradient id="paint11_radial_231:7612" cx="0" cy="0" r="1" gradientUnits="userSpaceOnUse" gradientTransform="translate(21.7949 -13.8889) rotate(66.4079) scale(70.4737 66.4772)">
<stop stop-color="white"/>
<stop offset="1" stop-color="white" stop-opacity="0"/>
</radialGradient>
<radialGradient id="paint12_radial_231:7612" cx="0" cy="0" r="1" gradientUnits="userSpaceOnUse" gradientTransform="translate(21.7949 -13.8889) rotate(66.4079) scale(70.4737 66.4772)">
<stop stop-color="white"/>
<stop offset="1" stop-color="white" stop-opacity="0"/>
</radialGradient>
<radialGradient id="paint13_radial_231:7612" cx="0" cy="0" r="1" gradientUnits="userSpaceOnUse" gradientTransform="translate(21.7949 -13.8889) rotate(66.4079) scale(70.4737 66.4772)">
<stop stop-color="white"/>
<stop offset="1" stop-color="white" stop-opacity="0"/>
</radialGradient>
<radialGradient id="paint14_radial_231:7612" cx="0" cy="0" r="1" gradientUnits="userSpaceOnUse" gradientTransform="translate(21.7949 -13.8889) rotate(66.4079) scale(70.4737 66.4772)">
<stop stop-color="white"/>
<stop offset="1" stop-color="white" stop-opacity="0"/>
</radialGradient>
<radialGradient id="paint15_radial_231:7612" cx="0" cy="0" r="1" gradientUnits="userSpaceOnUse" gradientTransform="translate(21.7949 -13.8889) rotate(66.4079) scale(70.4737 66.4772)">
<stop stop-color="white"/>
<stop offset="1" stop-color="white" stop-opacity="0"/>
</radialGradient>
<radialGradient id="paint16_radial_231:7612" cx="0" cy="0" r="1" gradientUnits="userSpaceOnUse" gradientTransform="translate(21.7949 -13.8889) rotate(66.4079) scale(70.4737 66.4772)">
<stop stop-color="white"/>
<stop offset="1" stop-color="white" stop-opacity="0"/>
</radialGradient>
<radialGradient id="paint17_radial_231:7612" cx="0" cy="0" r="1" gradientUnits="userSpaceOnUse" gradientTransform="translate(21.7949 -13.8889) rotate(66.4079) scale(70.4737 66.4772)">
<stop stop-color="white"/>
<stop offset="1" stop-color="white" stop-opacity="0"/>
</radialGradient>
<radialGradient id="paint18_radial_231:7612" cx="0" cy="0" r="1" gradientUnits="userSpaceOnUse" gradientTransform="translate(21.7949 -13.8889) rotate(66.4079) scale(70.4737 66.4772)">
<stop stop-color="white"/>
<stop offset="1" stop-color="white" stop-opacity="0"/>
</radialGradient>
<radialGradient id="paint19_radial_231:7612" cx="0" cy="0" r="1" gradientUnits="userSpaceOnUse" gradientTransform="translate(21.7949 -13.8889) rotate(66.4079) scale(70.4737 66.4772)">
<stop stop-color="white"/>
<stop offset="1" stop-color="white" stop-opacity="0"/>
</radialGradient>
<radialGradient id="paint20_radial_231:7612" cx="0" cy="0" r="1" gradientUnits="userSpaceOnUse" gradientTransform="translate(21.7949 -13.8889) rotate(66.4079) scale(70.4737 66.4772)">
<stop stop-color="white"/>
<stop offset="1" stop-color="white" stop-opacity="0"/>
</radialGradient>
<radialGradient id="paint21_radial_231:7612" cx="0" cy="0" r="1" gradientUnits="userSpaceOnUse" gradientTransform="translate(21.7949 -13.8889) rotate(66.4079) scale(70.4737 66.4772)">
<stop stop-color="white"/>
<stop offset="1" stop-color="white" stop-opacity="0"/>
</radialGradient>
<radialGradient id="paint22_radial_231:7612" cx="0" cy="0" r="1" gradientUnits="userSpaceOnUse" gradientTransform="translate(21.7949 -13.8889) rotate(66.4079) scale(70.4737 66.4772)">
<stop stop-color="white"/>
<stop offset="1" stop-color="white" stop-opacity="0"/>
</radialGradient>
<radialGradient id="paint23_radial_231:7612" cx="0" cy="0" r="1" gradientUnits="userSpaceOnUse" gradientTransform="translate(21.7949 -13.8889) rotate(66.4079) scale(70.4737 66.4772)">
<stop stop-color="white"/>
<stop offset="1" stop-color="white" stop-opacity="0"/>
</radialGradient>
<radialGradient id="paint24_radial_231:7612" cx="0" cy="0" r="1" gradientUnits="userSpaceOnUse" gradientTransform="translate(21.7949 -13.8889) rotate(66.4079) scale(70.4737 66.4772)">
<stop stop-color="white"/>
<stop offset="1" stop-color="white" stop-opacity="0"/>
</radialGradient>
<radialGradient id="paint25_radial_231:7612" cx="0" cy="0" r="1" gradientUnits="userSpaceOnUse" gradientTransform="translate(21.7949 -13.8889) rotate(66.4079) scale(70.4737 66.4772)">
<stop stop-color="white"/>
<stop offset="1" stop-color="white" stop-opacity="0"/>
</radialGradient>
<radialGradient id="paint26_radial_231:7612" cx="0" cy="0" r="1" gradientUnits="userSpaceOnUse" gradientTransform="translate(21.7949 -13.8889) rotate(66.4079) scale(70.4737 66.4772)">
<stop stop-color="white"/>
<stop offset="1" stop-color="white" stop-opacity="0"/>
</radialGradient>
<radialGradient id="paint27_radial_231:7612" cx="0" cy="0" r="1" gradientUnits="userSpaceOnUse" gradientTransform="translate(21.7949 -13.8889) rotate(66.4079) scale(70.4737 66.4772)">
<stop stop-color="white"/>
<stop offset="1" stop-color="white" stop-opacity="0"/>
</radialGradient>
<radialGradient id="paint28_radial_231:7612" cx="0" cy="0" r="1" gradientUnits="userSpaceOnUse" gradientTransform="translate(21.7949 -13.8889) rotate(66.4079) scale(70.4737 66.4772)">
<stop stop-color="white"/>
<stop offset="1" stop-color="white" stop-opacity="0"/>
</radialGradient>
<radialGradient id="paint29_radial_231:7612" cx="0" cy="0" r="1" gradientUnits="userSpaceOnUse" gradientTransform="translate(21.7949 -13.8889) rotate(66.4079) scale(70.4737 66.4772)">
<stop stop-color="white"/>
<stop offset="1" stop-color="white" stop-opacity="0"/>
</radialGradient>
<radialGradient id="paint30_radial_231:7612" cx="0" cy="0" r="1" gradientUnits="userSpaceOnUse" gradientTransform="translate(21.7949 -13.8889) rotate(66.4079) scale(70.4737 66.4772)">
<stop stop-color="white"/>
<stop offset="1" stop-color="white" stop-opacity="0"/>
</radialGradient>
<radialGradient id="paint31_radial_231:7612" cx="0" cy="0" r="1" gradientUnits="userSpaceOnUse" gradientTransform="translate(21.7949 -13.8889) rotate(66.4079) scale(70.4737 66.4772)">
<stop stop-color="white"/>
<stop offset="1" stop-color="white" stop-opacity="0"/>
</radialGradient>
<radialGradient id="paint32_radial_231:7612" cx="0" cy="0" r="1" gradientUnits="userSpaceOnUse" gradientTransform="translate(21.7949 -13.8889) rotate(66.4079) scale(70.4737 66.4772)">
<stop stop-color="white"/>
<stop offset="1" stop-color="white" stop-opacity="0"/>
</radialGradient>
<radialGradient id="paint33_radial_231:7612" cx="0" cy="0" r="1" gradientUnits="userSpaceOnUse" gradientTransform="translate(21.7949 -13.8889) rotate(66.4079) scale(70.4737 66.4772)">
<stop stop-color="white"/>
<stop offset="1" stop-color="white" stop-opacity="0"/>
</radialGradient>
<radialGradient id="paint34_radial_231:7612" cx="0" cy="0" r="1" gradientUnits="userSpaceOnUse" gradientTransform="translate(21.7949 -13.8889) rotate(66.4079) scale(70.4737 66.4772)">
<stop stop-color="white"/>
<stop offset="1" stop-color="white" stop-opacity="0"/>
</radialGradient>
<radialGradient id="paint35_radial_231:7612" cx="0" cy="0" r="1" gradientUnits="userSpaceOnUse" gradientTransform="translate(21.7949 -13.8889) rotate(66.4079) scale(70.4737 66.4772)">
<stop stop-color="white"/>
<stop offset="1" stop-color="white" stop-opacity="0"/>
</radialGradient>
<radialGradient id="paint36_radial_231:7612" cx="0" cy="0" r="1" gradientUnits="userSpaceOnUse" gradientTransform="translate(21.7949 -13.8889) rotate(66.4079) scale(70.4737 66.4772)">
<stop stop-color="white"/>
<stop offset="1" stop-color="white" stop-opacity="0"/>
</radialGradient>
<radialGradient id="paint37_radial_231:7612" cx="0" cy="0" r="1" gradientUnits="userSpaceOnUse" gradientTransform="translate(21.7949 -13.8889) rotate(66.4079) scale(70.4737 66.4772)">
<stop stop-color="white"/>
<stop offset="1" stop-color="white" stop-opacity="0"/>
</radialGradient>
<radialGradient id="paint38_radial_231:7612" cx="0" cy="0" r="1" gradientUnits="userSpaceOnUse" gradientTransform="translate(21.7949 -13.8889) rotate(66.4079) scale(70.4737 66.4772)">
<stop stop-color="white"/>
<stop offset="1" stop-color="white" stop-opacity="0"/>
</radialGradient>
<radialGradient id="paint39_radial_231:7612" cx="0" cy="0" r="1" gradientUnits="userSpaceOnUse" gradientTransform="translate(21.7949 -13.8889) rotate(66.4079) scale(70.4737 66.4772)">
<stop stop-color="white"/>
<stop offset="1" stop-color="white" stop-opacity="0"/>
</radialGradient>
<radialGradient id="paint40_radial_231:7612" cx="0" cy="0" r="1" gradientUnits="userSpaceOnUse" gradientTransform="translate(21.7949 -13.8889) rotate(66.4079) scale(70.4737 66.4772)">
<stop stop-color="white"/>
<stop offset="1" stop-color="white" stop-opacity="0"/>
</radialGradient>
<radialGradient id="paint41_radial_231:7612" cx="0" cy="0" r="1" gradientUnits="userSpaceOnUse" gradientTransform="translate(21.7949 -13.8889) rotate(66.4079) scale(70.4737 66.4772)">
<stop stop-color="white"/>
<stop offset="1" stop-color="white" stop-opacity="0"/>
</radialGradient>
<radialGradient id="paint42_radial_231:7612" cx="0" cy="0" r="1" gradientUnits="userSpaceOnUse" gradientTransform="translate(21.7949 -13.8889) rotate(66.4079) scale(70.4737 66.4772)">
<stop stop-color="white"/>
<stop offset="1" stop-color="white" stop-opacity="0"/>
</radialGradient>
<radialGradient id="paint43_radial_231:7612" cx="0" cy="0" r="1" gradientUnits="userSpaceOnUse" gradientTransform="translate(21.7949 -13.8889) rotate(66.4079) scale(70.4737 66.4772)">
<stop stop-color="white"/>
<stop offset="1" stop-color="white" stop-opacity="0"/>
</radialGradient>
<radialGradient id="paint44_radial_231:7612" cx="0" cy="0" r="1" gradientUnits="userSpaceOnUse" gradientTransform="translate(21.7949 -13.8889) rotate(66.4079) scale(70.4737 66.4772)">
<stop stop-color="white"/>
<stop offset="1" stop-color="white" stop-opacity="0"/>
</radialGradient>
<radialGradient id="paint45_radial_231:7612" cx="0" cy="0" r="1" gradientUnits="userSpaceOnUse" gradientTransform="translate(21.7949 -13.8889) rotate(66.4079) scale(70.4737 66.4772)">
<stop stop-color="white"/>
<stop offset="1" stop-color="white" stop-opacity="0"/>
</radialGradient>
<radialGradient id="paint46_radial_231:7612" cx="0" cy="0" r="1" gradientUnits="userSpaceOnUse" gradientTransform="translate(21.7949 -13.8889) rotate(66.4079) scale(70.4737 66.4772)">
<stop stop-color="white"/>
<stop offset="1" stop-color="white" stop-opacity="0"/>
</radialGradient>
<radialGradient id="paint47_radial_231:7612" cx="0" cy="0" r="1" gradientUnits="userSpaceOnUse" gradientTransform="translate(21.7949 -13.8889) rotate(66.4079) scale(70.4737 66.4772)">
<stop stop-color="white"/>
<stop offset="1" stop-color="white" stop-opacity="0"/>
</radialGradient>
<radialGradient id="paint48_radial_231:7612" cx="0" cy="0" r="1" gradientUnits="userSpaceOnUse" gradientTransform="translate(21.7949 -13.8889) rotate(66.4079) scale(70.4737 66.4772)">
<stop stop-color="white"/>
<stop offset="1" stop-color="white" stop-opacity="0"/>
</radialGradient>
<radialGradient id="paint49_radial_231:7612" cx="0" cy="0" r="1" gradientUnits="userSpaceOnUse" gradientTransform="translate(21.7949 -13.8889) rotate(66.4079) scale(70.4737 66.4772)">
<stop stop-color="white"/>
<stop offset="1" stop-color="white" stop-opacity="0"/>
</radialGradient>
<radialGradient id="paint50_radial_231:7612" cx="0" cy="0" r="1" gradientUnits="userSpaceOnUse" gradientTransform="translate(21.7949 -13.8889) rotate(66.4079) scale(70.4737 66.4772)">
<stop stop-color="white"/>
<stop offset="1" stop-color="white" stop-opacity="0"/>
</radialGradient>
<radialGradient id="paint51_radial_231:7612" cx="0" cy="0" r="1" gradientUnits="userSpaceOnUse" gradientTransform="translate(21.7949 -13.8889) rotate(66.4079) scale(70.4737 66.4772)">
<stop stop-color="white"/>
<stop offset="1" stop-color="white" stop-opacity="0"/>
</radialGradient>
<radialGradient id="paint52_radial_231:7612" cx="0" cy="0" r="1" gradientUnits="userSpaceOnUse" gradientTransform="translate(21.7949 -13.8889) rotate(66.4079) scale(70.4737 66.4772)">
<stop stop-color="white"/>
<stop offset="1" stop-color="white" stop-opacity="0"/>
</radialGradient>
<radialGradient id="paint53_radial_231:7612" cx="0" cy="0" r="1" gradientUnits="userSpaceOnUse" gradientTransform="translate(21.7949 -13.8889) rotate(66.4079) scale(70.4737 66.4772)">
<stop stop-color="white"/>
<stop offset="1" stop-color="white" stop-opacity="0"/>
</radialGradient>
<radialGradient id="paint54_radial_231:7612" cx="0" cy="0" r="1" gradientUnits="userSpaceOnUse" gradientTransform="translate(21.7949 -13.8889) rotate(66.4079) scale(70.4737 66.4772)">
<stop stop-color="white"/>
<stop offset="1" stop-color="white" stop-opacity="0"/>
</radialGradient>
<radialGradient id="paint55_radial_231:7612" cx="0" cy="0" r="1" gradientUnits="userSpaceOnUse" gradientTransform="translate(21.7949 -13.8889) rotate(66.4079) scale(70.4737 66.4772)">
<stop stop-color="white"/>
<stop offset="1" stop-color="white" stop-opacity="0"/>
</radialGradient>
<radialGradient id="paint56_radial_231:7612" cx="0" cy="0" r="1" gradientUnits="userSpaceOnUse" gradientTransform="translate(21.7949 -13.8889) rotate(66.4079) scale(70.4737 66.4772)">
<stop stop-color="white"/>
<stop offset="1" stop-color="white" stop-opacity="0"/>
</radialGradient>
<radialGradient id="paint57_radial_231:7612" cx="0" cy="0" r="1" gradientUnits="userSpaceOnUse" gradientTransform="translate(21.7949 -13.8889) rotate(66.4079) scale(70.4737 66.4772)">
<stop stop-color="white"/>
<stop offset="1" stop-color="white" stop-opacity="0"/>
</radialGradient>
<radialGradient id="paint58_radial_231:7612" cx="0" cy="0" r="1" gradientUnits="userSpaceOnUse" gradientTransform="translate(21.7949 -13.8889) rotate(66.4079) scale(70.4737 66.4772)">
<stop stop-color="white"/>
<stop offset="1" stop-color="white" stop-opacity="0"/>
</radialGradient>
<radialGradient id="paint59_radial_231:7612" cx="0" cy="0" r="1" gradientUnits="userSpaceOnUse" gradientTransform="translate(21.7949 -13.8889) rotate(66.4079) scale(70.4737 66.4772)">
<stop stop-color="white"/>
<stop offset="1" stop-color="white" stop-opacity="0"/>
</radialGradient>
<radialGradient id="paint60_radial_231:7612" cx="0" cy="0" r="1" gradientUnits="userSpaceOnUse" gradientTransform="translate(21.7949 -13.8889) rotate(66.4079) scale(70.4737 66.4772)">
<stop stop-color="white"/>
<stop offset="1" stop-color="white" stop-opacity="0"/>
</radialGradient>
<radialGradient id="paint61_radial_231:7612" cx="0" cy="0" r="1" gradientUnits="userSpaceOnUse" gradientTransform="translate(21.7949 -13.8889) rotate(66.4079) scale(70.4737 66.4772)">
<stop stop-color="white"/>
<stop offset="1" stop-color="white" stop-opacity="0"/>
</radialGradient>
<radialGradient id="paint62_radial_231:7612" cx="0" cy="0" r="1" gradientUnits="userSpaceOnUse" gradientTransform="translate(21.7949 -13.8889) rotate(66.4079) scale(70.4737 66.4772)">
<stop stop-color="white"/>
<stop offset="1" stop-color="white" stop-opacity="0"/>
</radialGradient>
<radialGradient id="paint63_radial_231:7612" cx="0" cy="0" r="1" gradientUnits="userSpaceOnUse" gradientTransform="translate(21.7949 -13.8889) rotate(66.4079) scale(70.4737 66.4772)">
<stop stop-color="white"/>
<stop offset="1" stop-color="white" stop-opacity="0"/>
</radialGradient>
<radialGradient id="paint64_radial_231:7612" cx="0" cy="0" r="1" gradientUnits="userSpaceOnUse" gradientTransform="translate(21.7949 -13.8889) rotate(66.4079) scale(70.4737 66.4772)">
<stop stop-color="white"/>
<stop offset="1" stop-color="white" stop-opacity="0"/>
</radialGradient>
<radialGradient id="paint65_radial_231:7612" cx="0" cy="0" r="1" gradientUnits="userSpaceOnUse" gradientTransform="translate(21.7949 -13.8889) rotate(66.4079) scale(70.4737 66.4772)">
<stop stop-color="white"/>
<stop offset="1" stop-color="white" stop-opacity="0"/>
</radialGradient>
<radialGradient id="paint66_radial_231:7612" cx="0" cy="0" r="1" gradientUnits="userSpaceOnUse" gradientTransform="translate(21.7949 -13.8889) rotate(66.4079) scale(70.4737 66.4772)">
<stop stop-color="white"/>
<stop offset="1" stop-color="white" stop-opacity="0"/>
</radialGradient>
<radialGradient id="paint67_radial_231:7612" cx="0" cy="0" r="1" gradientUnits="userSpaceOnUse" gradientTransform="translate(21.7949 -13.8889) rotate(66.4079) scale(70.4737 66.4772)">
<stop stop-color="white"/>
<stop offset="1" stop-color="white" stop-opacity="0"/>
</radialGradient>
<radialGradient id="paint68_radial_231:7612" cx="0" cy="0" r="1" gradientUnits="userSpaceOnUse" gradientTransform="translate(21.7949 -13.8889) rotate(66.4079) scale(70.4737 66.4772)">
<stop stop-color="white"/>
<stop offset="1" stop-color="white" stop-opacity="0"/>
</radialGradient>
<radialGradient id="paint69_radial_231:7612" cx="0" cy="0" r="1" gradientUnits="userSpaceOnUse" gradientTransform="translate(21.7949 -13.8889) rotate(66.4079) scale(70.4737 66.4772)">
<stop stop-color="white"/>
<stop offset="1" stop-color="white" stop-opacity="0"/>
</radialGradient>
<radialGradient id="paint70_radial_231:7612" cx="0" cy="0" r="1" gradientUnits="userSpaceOnUse" gradientTransform="translate(21.7949 -13.8889) rotate(66.4079) scale(70.4737 66.4772)">
<stop stop-color="white"/>
<stop offset="1" stop-color="white" stop-opacity="0"/>
</radialGradient>
<radialGradient id="paint71_radial_231:7612" cx="0" cy="0" r="1" gradientUnits="userSpaceOnUse" gradientTransform="translate(21.7949 -13.8889) rotate(66.4079) scale(70.4737 66.4772)">
<stop stop-color="white"/>
<stop offset="1" stop-color="white" stop-opacity="0"/>
</radialGradient>
<radialGradient id="paint72_radial_231:7612" cx="0" cy="0" r="1" gradientUnits="userSpaceOnUse" gradientTransform="translate(21.7949 -13.8889) rotate(66.4079) scale(70.4737 66.4772)">
<stop stop-color="white"/>
<stop offset="1" stop-color="white" stop-opacity="0"/>
</radialGradient>
<radialGradient id="paint73_radial_231:7612" cx="0" cy="0" r="1" gradientUnits="userSpaceOnUse" gradientTransform="translate(21.7949 -13.8889) rotate(66.4079) scale(70.4737 66.4772)">
<stop stop-color="white"/>
<stop offset="1" stop-color="white" stop-opacity="0"/>
</radialGradient>
<radialGradient id="paint74_radial_231:7612" cx="0" cy="0" r="1" gradientUnits="userSpaceOnUse" gradientTransform="translate(21.7949 -13.8889) rotate(66.4079) scale(70.4737 66.4772)">
<stop stop-color="white"/>
<stop offset="1" stop-color="white" stop-opacity="0"/>
</radialGradient>
<radialGradient id="paint75_radial_231:7612" cx="0" cy="0" r="1" gradientUnits="userSpaceOnUse" gradientTransform="translate(21.7949 -13.8889) rotate(66.4079) scale(70.4737 66.4772)">
<stop stop-color="white"/>
<stop offset="1" stop-color="white" stop-opacity="0"/>
</radialGradient>
<radialGradient id="paint76_radial_231:7612" cx="0" cy="0" r="1" gradientUnits="userSpaceOnUse" gradientTransform="translate(21.7949 -13.8889) rotate(66.4079) scale(70.4737 66.4772)">
<stop stop-color="white"/>
<stop offset="1" stop-color="white" stop-opacity="0"/>
</radialGradient>
<radialGradient id="paint77_radial_231:7612" cx="0" cy="0" r="1" gradientUnits="userSpaceOnUse" gradientTransform="translate(21.7949 -13.8889) rotate(66.4079) scale(70.4737 66.4772)">
<stop stop-color="white"/>
<stop offset="1" stop-color="white" stop-opacity="0"/>
</radialGradient>
</defs>
</svg>
