<svg width="22" height="22" viewBox="0 0 22 22" fill="none" xmlns="http://www.w3.org/2000/svg">
<rect width="22" height="22" rx="2" fill="black" fill-opacity="0.1"/>
<rect x="2" y="1.5" width="2" height="19" rx="1" fill="white"/>
<path fill-rule="evenodd" clip-rule="evenodd" d="M12.5 18.5C16.6421 18.5 20 15.1421 20 11C20 6.85786 16.6421 3.5 12.5 3.5C8.35786 3.5 5 6.85786 5 11C5 15.1421 8.35786 18.5 12.5 18.5ZM12.5 12.7647C13.4746 12.7647 14.2647 11.9746 14.2647 11C14.2647 10.0254 13.4746 9.23529 12.5 9.23529C11.5254 9.23529 10.7353 10.0254 10.7353 11C10.7353 11.9746 11.5254 12.7647 12.5 12.7647Z" fill="white"/>
</svg>
