<svg width="22" height="22" viewBox="0 0 22 22" fill="none" xmlns="http://www.w3.org/2000/svg">
<rect width="22" height="22" rx="2" fill="black" fill-opacity="0.1"/>
<rect x="1" y="1" width="20" height="4.25" rx="2" fill="white"/>
<g clip-path="url(#clip0_354:7437)">
<rect x="1" y="6.25" width="4.25" height="4.25" rx="2" fill="white"/>
<rect x="6.25" y="6.25" width="4.25" height="4.25" rx="2" fill="white"/>
<rect x="11.5" y="6.25" width="4.25" height="4.25" rx="2" fill="white"/>
<rect x="16.75" y="6.25" width="4.25" height="4.25" rx="2" fill="white"/>
</g>
<rect x="1" y="11.5" width="20" height="4.25" rx="2" fill="white"/>
<g clip-path="url(#clip1_354:7437)">
<rect x="1" y="16.75" width="4.25" height="4.25" rx="2" fill="white"/>
<rect x="6.25" y="16.75" width="4.25" height="4.25" rx="2" fill="white"/>
<rect x="11.5" y="16.75" width="4.25" height="4.25" rx="2" fill="white"/>
<rect x="16.75" y="16.75" width="4.25" height="4.25" rx="2" fill="white"/>
</g>
<defs>
<clipPath id="clip0_354:7437">
<rect width="20" height="4.25" fill="white" transform="translate(1 6.25)"/>
</clipPath>
<clipPath id="clip1_354:7437">
<rect width="20" height="4.25" fill="white" transform="translate(1 16.75)"/>
</clipPath>
</defs>
</svg>
