<svg width="16" height="15" viewBox="0 0 16 15" fill="none" xmlns="http://www.w3.org/2000/svg">
<path fill-rule="evenodd" clip-rule="evenodd" d="M3.43779 0.552676C2.75007 -0.135047 1.63505 -0.135046 0.947324 0.552676C0.259601 1.2404 0.2596 2.35542 0.947322 3.04314L5.40418 7.49999L0.947316 11.9569C0.259594 12.6446 0.259594 13.7596 0.947316 14.4473C1.63504 15.135 2.75006 15.135 3.43778 14.4473L7.89464 9.99046L12.3515 14.4473C13.0392 15.135 14.1542 15.135 14.842 14.4473C15.5297 13.7596 15.5297 12.6446 14.842 11.9569L10.3851 7.49999L14.842 3.04313C15.5297 2.35541 15.5297 1.24039 14.842 0.552669C14.1542 -0.135054 13.0392 -0.135056 12.3515 0.552667L7.89464 5.00953L3.43779 0.552676Z" fill="white" fill-opacity="0.8"/>
</svg>
