<svg width="22" height="22" viewBox="0 0 22 22" fill="none" xmlns="http://www.w3.org/2000/svg">
<g clip-path="url(#clip0)">
<path fill-rule="evenodd" clip-rule="evenodd" d="M7.16502 5.0104C6.57004 4.41542 5.60539 4.41542 5.01042 5.0104C4.41544 5.60537 4.41544 6.57002 5.01042 7.165L8.86622 11.0208L5.0104 14.8766C4.41543 15.4716 4.41543 16.4362 5.0104 17.0312C5.60538 17.6262 6.57003 17.6262 7.165 17.0312L11.0208 13.1754L14.8766 17.0312C15.4716 17.6262 16.4363 17.6262 17.0312 17.0312C17.6262 16.4362 17.6262 15.4716 17.0312 14.8766L13.1754 11.0208L17.0312 7.165C17.6262 6.57003 17.6262 5.60538 17.0312 5.0104C16.4362 4.41543 15.4716 4.41543 14.8766 5.0104L11.0208 8.8662L7.16502 5.0104Z" fill="white" fill-opacity="0.8"/>
</g>
<defs>
<clipPath id="clip0">
<rect width="22" height="22" fill="white"/>
</clipPath>
</defs>
</svg>
