<svg width="22" height="22" viewBox="0 0 22 22" fill="none" xmlns="http://www.w3.org/2000/svg">
<rect width="22" height="22" rx="2" fill="black" fill-opacity="0.1"/>
<path fill-rule="evenodd" clip-rule="evenodd" d="M6.93057 2.84378C6.93057 2.2915 7.37829 1.84378 7.93057 1.84378H7.96529C8.39855 1.84378 8.76745 2.11931 8.90634 2.50471C9.20891 3.0723 9.66891 3.56488 10.267 3.91017C11.7449 4.76347 13.5804 4.43681 14.6824 3.22246C14.9656 2.91041 15.4269 2.77765 15.7918 2.98835C16.1568 3.19905 16.286 3.67045 16.0236 4.00013C14.4814 5.93725 11.7131 6.50723 9.50395 5.23175C9.31461 5.12244 9.13495 5.00279 8.96529 4.87393V16.1041C8.96529 16.162 8.96037 16.2188 8.95093 16.274C8.9604 16.3799 8.96525 16.4871 8.96525 16.5955C8.96525 18.562 7.37104 20.1562 5.4045 20.1562C3.43795 20.1562 1.84375 18.562 1.84375 16.5955C1.84375 14.6289 3.43795 13.0347 5.4045 13.0347C5.95063 13.0347 6.46805 13.1577 6.93057 13.3774V2.84378Z" fill="white"/>
<rect x="11.5386" y="10.4614" width="8.61761" height="2.1544" rx="1" fill="white"/>
<rect x="11.5386" y="7.22977" width="8.61761" height="2.1544" rx="1" fill="white"/>
<rect x="11.5386" y="13.693" width="8.61761" height="2.1544" rx="1" fill="white"/>
<rect x="11.5386" y="16.9246" width="8.61761" height="2.1544" rx="1" fill="white"/>
</svg>
