<svg width="20" height="21" viewBox="0 0 20 21" fill="none" xmlns="http://www.w3.org/2000/svg">
<path fill-rule="evenodd" clip-rule="evenodd" d="M11.586 2.26102C11.586 1.28844 10.7976 0.5 9.825 0.5C8.85241 0.5 8.06398 1.28844 8.06398 2.26102V8.56396H1.76102C0.788437 8.56396 0 9.3524 0 10.325C0 11.2976 0.788435 12.086 1.76102 12.086H8.06398L8.06398 18.389C8.06398 19.3616 8.85241 20.15 9.825 20.15C10.7976 20.15 11.586 19.3616 11.586 18.389L11.586 12.086L17.889 12.086C18.8616 12.086 19.65 11.2976 19.65 10.325C19.65 9.3524 18.8616 8.56396 17.889 8.56396L11.586 8.56396V2.26102Z" fill="white" fill-opacity="0.8"/>
</svg>
