<svg width="22" height="22" viewBox="0 0 22 22" fill="none" xmlns="http://www.w3.org/2000/svg">
<path fill-rule="evenodd" clip-rule="evenodd" d="M12.2548 5.25467C12.2548 4.56174 11.6931 4 11.0001 4C10.3072 4 9.74544 4.56174 9.74544 5.25467V9.74531H5.25467C4.56174 9.74531 4 10.307 4 11C4 11.6929 4.56174 12.2547 5.25467 12.2547H9.74544V16.7453C9.74544 17.4383 10.3072 18 11.0001 18C11.6931 18 12.2548 17.4383 12.2548 16.7453V12.2547H16.7453C17.4383 12.2547 18 11.6929 18 11C18 10.307 17.4383 9.74531 16.7453 9.74531H12.2548V5.25467Z" fill="white" fill-opacity="0.8"/>
</svg>
