<svg width="22" height="22" viewBox="0 0 22 22" fill="none" xmlns="http://www.w3.org/2000/svg">
<rect width="22" height="22" rx="2" fill="black" fill-opacity="0.1"/>
<path fill-rule="evenodd" clip-rule="evenodd" d="M8.95838 2.98032C8.95838 2.42803 9.40828 1.98032 9.96057 1.98032C10.3312 1.98032 10.6556 2.1819 10.829 2.48139H10.8297C10.8307 2.48351 10.8317 2.48564 10.8327 2.48776C10.8514 2.5207 10.8684 2.55481 10.8833 2.58994C11.1809 3.1665 11.6418 3.66733 12.2454 4.01583C13.7013 4.85642 15.5094 4.53462 16.595 3.33838C16.874 3.03097 17.3284 2.9002 17.6879 3.10776C18.0474 3.31532 18.1747 3.77969 17.9162 4.10445C16.397 6.01269 13.67 6.57417 11.4938 5.31771C11.3071 5.20995 11.13 5.09199 10.9628 4.96494V16.0131C10.9628 16.072 10.9576 16.1297 10.9478 16.1857C10.9578 16.2932 10.9628 16.402 10.9628 16.512C10.9628 18.4492 9.39239 20.0197 7.45517 20.0197C5.51794 20.0197 3.94751 18.4492 3.94751 16.512C3.94751 14.5748 5.51794 13.0044 7.45517 13.0044C7.99311 13.0044 8.50277 13.1255 8.95838 13.3419V2.98032Z" fill="white"/>
</svg>
