<svg width="22" height="22" viewBox="0 0 22 22" fill="none" xmlns="http://www.w3.org/2000/svg">
<rect x="4" y="4" width="14" height="14" rx="2" fill="black" fill-opacity="0.1"/>
<rect x="5" y="5" width="12" height="2.25" rx="1.125" fill="white"/>
<g clip-path="url(#clip0_354:7433)">
<rect x="5" y="8.25" width="2.25" height="2.25" rx="1.125" fill="white"/>
<rect x="8.25" y="8.25" width="2.25" height="2.25" rx="1.125" fill="white"/>
<rect x="11.5" y="8.25" width="2.25" height="2.25" rx="1.125" fill="white"/>
<rect x="14.75" y="8.25" width="2.25" height="2.25" rx="1.125" fill="white"/>
</g>
<rect x="5" y="11.5" width="12" height="2.25" rx="1.125" fill="white"/>
<g clip-path="url(#clip1_354:7433)">
<rect x="5" y="14.75" width="2.25" height="2.25" rx="1.125" fill="white"/>
<rect x="8.25" y="14.75" width="2.25" height="2.25" rx="1.125" fill="white"/>
<rect x="11.5" y="14.75" width="2.25" height="2.25" rx="1.125" fill="white"/>
<rect x="14.75" y="14.75" width="2.25" height="2.25" rx="1.125" fill="white"/>
</g>
<defs>
<clipPath id="clip0_354:7433">
<rect width="12" height="2.25" fill="white" transform="translate(5 8.25)"/>
</clipPath>
<clipPath id="clip1_354:7433">
<rect width="12" height="2.25" fill="white" transform="translate(5 14.75)"/>
</clipPath>
</defs>
</svg>
