<svg width="26" height="26" viewBox="0 0 26 26" fill="none" xmlns="http://www.w3.org/2000/svg">
<g clip-path="url(#clip0)">
<rect x="0.5" y="0.5" width="25" height="25" rx="5" fill="#46007C" fill-opacity="0.8"/>
<rect width="25" height="25" transform="translate(0.5 0.5)" fill="white" fill-opacity="0.3"/>
<path fill-rule="evenodd" clip-rule="evenodd" d="M15 21.5C19.6944 21.5 23.5 17.6944 23.5 13C23.5 8.30558 19.6944 4.5 15 4.5C10.3056 4.5 6.5 8.30558 6.5 13C6.5 17.6944 10.3056 21.5 15 21.5ZM15 15C16.1046 15 17 14.1046 17 13C17 11.8954 16.1046 11 15 11C13.8954 11 13 11.8954 13 13C13 14.1046 13.8954 15 15 15Z" fill="white"/>
<rect x="2.5" y="3.5" width="2" height="19" rx="1" fill="white"/>
</g>
<defs>
<clipPath id="clip0">
<rect x="0.5" y="0.5" width="25" height="25" rx="5" fill="white"/>
</clipPath>
</defs>
</svg>
