<svg width="50" height="50" viewBox="0 0 50 50" fill="none" xmlns="http://www.w3.org/2000/svg">
<rect width="50" height="50" rx="10" fill="black" fill-opacity="0.8"/>
<g clip-path="url(#clip0)">
<rect width="50" height="48" rx="10" fill="white" fill-opacity="0.3"/>
<path d="M21.875 0H28.125V5C28.125 5.55228 27.6773 6 27.125 6H22.875C22.3227 6 21.875 5.55228 21.875 5V0Z" fill="white"/>
<path d="M0.25 4.69995L4.66942 0.457311L8.36745 4.00742C8.76586 4.38989 8.76586 5.01001 8.36745 5.39248L5.3908 8.25006C4.99239 8.63254 4.34644 8.63253 3.94803 8.25006L0.25 4.69995Z" fill="white"/>
<path d="M21.875 43C21.875 42.4477 22.3227 42 22.875 42H27.125C27.6773 42 28.125 42.4477 28.125 43V48H21.875V43Z" fill="white"/>
<rect width="6.12628" height="6.12628" rx="1" transform="matrix(0.721387 -0.692532 0.721387 0.692532 41 43.9426)" fill="white"/>
<path d="M43.75 22C43.75 21.4477 44.1977 21 44.75 21H50V27H44.75C44.1977 27 43.75 26.5523 43.75 26V22Z" fill="white"/>
<path d="M33.3969 15.4243C33.641 15.1899 34.0367 15.1899 34.2808 15.4243C34.5249 15.6586 34.5249 16.0385 34.2808 16.2728L26.3259 23.9095C26.0818 24.1439 25.686 24.1439 25.442 23.9095C25.1979 23.6752 25.1979 23.2953 25.442 23.061L33.3969 15.4243Z" fill="white"/>
<path d="M24.375 24.625C24.375 24.2798 24.6548 24 25 24C25.3452 24 25.625 24.2798 25.625 24.625V35.375C25.625 35.7202 25.3452 36 25 36C24.6548 36 24.375 35.7202 24.375 35.375V24.625Z" fill="white"/>
<path d="M41.7214 5.43521C41.323 5.05273 41.323 4.43262 41.7214 4.05014L45.4194 0.500034L49.8388 4.74268L46.1408 8.29279C45.7424 8.67526 45.0964 8.67526 44.698 8.29279L41.7214 5.43521Z" fill="white"/>
<path d="M0 21H5.25C5.80228 21 6.25 21.4477 6.25 22V26C6.25 26.5523 5.80228 27 5.25 27H0V21Z" fill="white"/>
<path d="M0.25 43.9426L3.94803 40.3925C4.34644 40.01 4.99239 40.01 5.3908 40.3925L8.36745 43.2501C8.76586 43.6326 8.76586 44.2527 8.36745 44.6352L4.66942 48.1853L0.25 43.9426Z" fill="white"/>
<ellipse cx="25" cy="24" rx="1.5625" ry="1.5" fill="white"/>
</g>
<defs>
<clipPath id="clip0">
<rect width="50" height="48" rx="10" fill="white"/>
</clipPath>
</defs>
</svg>
