<svg width="50" height="50" viewBox="0 0 50 50" fill="none" xmlns="http://www.w3.org/2000/svg">
<rect width="50" height="50" fill="#70AE7A"/>
<rect width="50" height="50" fill="white" fill-opacity="0.2"/>
<rect width="50" height="50" fill="white" fill-opacity="0.3"/>
<path d="M6 12.5C6 12.2239 6.22386 12 6.5 12H8.5C8.77614 12 9 12.2239 9 12.5V14.5C9 14.7761 8.77614 15 8.5 15H6.5C6.22386 15 6 14.7761 6 14.5V12.5Z" fill="url(#paint0_radial)"/>
<path d="M6 18.5C6 18.2239 6.22386 18 6.5 18H8.5C8.77614 18 9 18.2239 9 18.5V20.5C9 20.7761 8.77614 21 8.5 21H6.5C6.22386 21 6 20.7761 6 20.5V18.5Z" fill="url(#paint1_radial)"/>
<path d="M6 24.5C6 24.2239 6.22386 24 6.5 24H8.5C8.77614 24 9 24.2239 9 24.5V26.5C9 26.7761 8.77614 27 8.5 27H6.5C6.22386 27 6 26.7761 6 26.5V24.5Z" fill="url(#paint2_radial)"/>
<path d="M6 30.5C6 30.2239 6.22386 30 6.5 30H8.5C8.77614 30 9 30.2239 9 30.5V32.5C9 32.7761 8.77614 33 8.5 33H6.5C6.22386 33 6 32.7761 6 32.5V30.5Z" fill="url(#paint3_radial)"/>
<path d="M6 36.5C6 36.2239 6.22386 36 6.5 36H8.5C8.77614 36 9 36.2239 9 36.5V38.5C9 38.7761 8.77614 39 8.5 39H6.5C6.22386 39 6 38.7761 6 38.5V36.5Z" fill="url(#paint4_radial)"/>
<path d="M9 9.5C9 9.22386 9.22386 9 9.5 9H11.5C11.7761 9 12 9.22386 12 9.5V11.5C12 11.7761 11.7761 12 11.5 12H9.5C9.22386 12 9 11.7761 9 11.5V9.5Z" fill="url(#paint5_radial)"/>
<path d="M9 15.5C9 15.2239 9.22386 15 9.5 15H11.5C11.7761 15 12 15.2239 12 15.5V17.5C12 17.7761 11.7761 18 11.5 18H9.5C9.22386 18 9 17.7761 9 17.5V15.5Z" fill="url(#paint6_radial)"/>
<path d="M9 21.5C9 21.2239 9.22386 21 9.5 21H11.5C11.7761 21 12 21.2239 12 21.5V23.5C12 23.7761 11.7761 24 11.5 24H9.5C9.22386 24 9 23.7761 9 23.5V21.5Z" fill="url(#paint7_radial)"/>
<path d="M9 27.5C9 27.2239 9.22386 27 9.5 27H11.5C11.7761 27 12 27.2239 12 27.5V29.5C12 29.7761 11.7761 30 11.5 30H9.5C9.22386 30 9 29.7761 9 29.5V27.5Z" fill="url(#paint8_radial)"/>
<path d="M9 33.5C9 33.2239 9.22386 33 9.5 33H11.5C11.7761 33 12 33.2239 12 33.5V35.5C12 35.7761 11.7761 36 11.5 36H9.5C9.22386 36 9 35.7761 9 35.5V33.5Z" fill="url(#paint9_radial)"/>
<path d="M9 39.5C9 39.2239 9.22386 39 9.5 39H11.5C11.7761 39 12 39.2239 12 39.5V41.5C12 41.7761 11.7761 42 11.5 42H9.5C9.22386 42 9 41.7761 9 41.5V39.5Z" fill="url(#paint10_radial)"/>
<path d="M15 9.5C15 9.22386 15.2239 9 15.5 9H17.5C17.7761 9 18 9.22386 18 9.5V11.5C18 11.7761 17.7761 12 17.5 12H15.5C15.2239 12 15 11.7761 15 11.5V9.5Z" fill="url(#paint11_radial)"/>
<path d="M15 15.5C15 15.2239 15.2239 15 15.5 15H17.5C17.7761 15 18 15.2239 18 15.5V17.5C18 17.7761 17.7761 18 17.5 18H15.5C15.2239 18 15 17.7761 15 17.5V15.5Z" fill="url(#paint12_radial)"/>
<path d="M15 21.5C15 21.2239 15.2239 21 15.5 21H17.5C17.7761 21 18 21.2239 18 21.5V23.5C18 23.7761 17.7761 24 17.5 24H15.5C15.2239 24 15 23.7761 15 23.5V21.5Z" fill="url(#paint13_radial)"/>
<path d="M15 27.5C15 27.2239 15.2239 27 15.5 27H17.5C17.7761 27 18 27.2239 18 27.5V29.5C18 29.7761 17.7761 30 17.5 30H15.5C15.2239 30 15 29.7761 15 29.5V27.5Z" fill="url(#paint14_radial)"/>
<path d="M15 33.5C15 33.2239 15.2239 33 15.5 33H17.5C17.7761 33 18 33.2239 18 33.5V35.5C18 35.7761 17.7761 36 17.5 36H15.5C15.2239 36 15 35.7761 15 35.5V33.5Z" fill="url(#paint15_radial)"/>
<path d="M15 39.5C15 39.2239 15.2239 39 15.5 39H17.5C17.7761 39 18 39.2239 18 39.5V41.5C18 41.7761 17.7761 42 17.5 42H15.5C15.2239 42 15 41.7761 15 41.5V39.5Z" fill="url(#paint16_radial)"/>
<path d="M21 9.5C21 9.22386 21.2239 9 21.5 9H23.5C23.7761 9 24 9.22386 24 9.5V11.5C24 11.7761 23.7761 12 23.5 12H21.5C21.2239 12 21 11.7761 21 11.5V9.5Z" fill="url(#paint17_radial)"/>
<path d="M21 15.5C21 15.2239 21.2239 15 21.5 15H23.5C23.7761 15 24 15.2239 24 15.5V17.5C24 17.7761 23.7761 18 23.5 18H21.5C21.2239 18 21 17.7761 21 17.5V15.5Z" fill="url(#paint18_radial)"/>
<path d="M21 21.5C21 21.2239 21.2239 21 21.5 21H23.5C23.7761 21 24 21.2239 24 21.5V23.5C24 23.7761 23.7761 24 23.5 24H21.5C21.2239 24 21 23.7761 21 23.5V21.5Z" fill="url(#paint19_radial)"/>
<path d="M21 27.5C21 27.2239 21.2239 27 21.5 27H23.5C23.7761 27 24 27.2239 24 27.5V29.5C24 29.7761 23.7761 30 23.5 30H21.5C21.2239 30 21 29.7761 21 29.5V27.5Z" fill="url(#paint20_radial)"/>
<path d="M21 33.5C21 33.2239 21.2239 33 21.5 33H23.5C23.7761 33 24 33.2239 24 33.5V35.5C24 35.7761 23.7761 36 23.5 36H21.5C21.2239 36 21 35.7761 21 35.5V33.5Z" fill="url(#paint21_radial)"/>
<path d="M21 39.5C21 39.2239 21.2239 39 21.5 39H23.5C23.7761 39 24 39.2239 24 39.5V41.5C24 41.7761 23.7761 42 23.5 42H21.5C21.2239 42 21 41.7761 21 41.5V39.5Z" fill="url(#paint22_radial)"/>
<path d="M27 9.5C27 9.22386 27.2239 9 27.5 9H29.5C29.7761 9 30 9.22386 30 9.5V11.5C30 11.7761 29.7761 12 29.5 12H27.5C27.2239 12 27 11.7761 27 11.5V9.5Z" fill="url(#paint23_radial)"/>
<path d="M27 15.5C27 15.2239 27.2239 15 27.5 15H29.5C29.7761 15 30 15.2239 30 15.5V17.5C30 17.7761 29.7761 18 29.5 18H27.5C27.2239 18 27 17.7761 27 17.5V15.5Z" fill="url(#paint24_radial)"/>
<path d="M27 21.5C27 21.2239 27.2239 21 27.5 21H29.5C29.7761 21 30 21.2239 30 21.5V23.5C30 23.7761 29.7761 24 29.5 24H27.5C27.2239 24 27 23.7761 27 23.5V21.5Z" fill="url(#paint25_radial)"/>
<path d="M27 27.5C27 27.2239 27.2239 27 27.5 27H29.5C29.7761 27 30 27.2239 30 27.5V29.5C30 29.7761 29.7761 30 29.5 30H27.5C27.2239 30 27 29.7761 27 29.5V27.5Z" fill="url(#paint26_radial)"/>
<path d="M27 33.5C27 33.2239 27.2239 33 27.5 33H29.5C29.7761 33 30 33.2239 30 33.5V35.5C30 35.7761 29.7761 36 29.5 36H27.5C27.2239 36 27 35.7761 27 35.5V33.5Z" fill="url(#paint27_radial)"/>
<path d="M27 39.5C27 39.2239 27.2239 39 27.5 39H29.5C29.7761 39 30 39.2239 30 39.5V41.5C30 41.7761 29.7761 42 29.5 42H27.5C27.2239 42 27 41.7761 27 41.5V39.5Z" fill="url(#paint28_radial)"/>
<path d="M33 9.5C33 9.22386 33.2239 9 33.5 9H35.5C35.7761 9 36 9.22386 36 9.5V11.5C36 11.7761 35.7761 12 35.5 12H33.5C33.2239 12 33 11.7761 33 11.5V9.5Z" fill="url(#paint29_radial)"/>
<path d="M33 15.5C33 15.2239 33.2239 15 33.5 15H35.5C35.7761 15 36 15.2239 36 15.5V17.5C36 17.7761 35.7761 18 35.5 18H33.5C33.2239 18 33 17.7761 33 17.5V15.5Z" fill="url(#paint30_radial)"/>
<path d="M33 21.5C33 21.2239 33.2239 21 33.5 21H35.5C35.7761 21 36 21.2239 36 21.5V23.5C36 23.7761 35.7761 24 35.5 24H33.5C33.2239 24 33 23.7761 33 23.5V21.5Z" fill="url(#paint31_radial)"/>
<path d="M33 27.5C33 27.2239 33.2239 27 33.5 27H35.5C35.7761 27 36 27.2239 36 27.5V29.5C36 29.7761 35.7761 30 35.5 30H33.5C33.2239 30 33 29.7761 33 29.5V27.5Z" fill="url(#paint32_radial)"/>
<path d="M33 33.5C33 33.2239 33.2239 33 33.5 33H35.5C35.7761 33 36 33.2239 36 33.5V35.5C36 35.7761 35.7761 36 35.5 36H33.5C33.2239 36 33 35.7761 33 35.5V33.5Z" fill="url(#paint33_radial)"/>
<path d="M33 39.5C33 39.2239 33.2239 39 33.5 39H35.5C35.7761 39 36 39.2239 36 39.5V41.5C36 41.7761 35.7761 42 35.5 42H33.5C33.2239 42 33 41.7761 33 41.5V39.5Z" fill="url(#paint34_radial)"/>
<path d="M39 9.5C39 9.22386 39.2239 9 39.5 9H41.5C41.7761 9 42 9.22386 42 9.5V11.5C42 11.7761 41.7761 12 41.5 12H39.5C39.2239 12 39 11.7761 39 11.5V9.5Z" fill="url(#paint35_radial)"/>
<path d="M39 15.5C39 15.2239 39.2239 15 39.5 15H41.5C41.7761 15 42 15.2239 42 15.5V17.5C42 17.7761 41.7761 18 41.5 18H39.5C39.2239 18 39 17.7761 39 17.5V15.5Z" fill="url(#paint36_radial)"/>
<path d="M39 21.5C39 21.2239 39.2239 21 39.5 21H41.5C41.7761 21 42 21.2239 42 21.5V23.5C42 23.7761 41.7761 24 41.5 24H39.5C39.2239 24 39 23.7761 39 23.5V21.5Z" fill="url(#paint37_radial)"/>
<path d="M39 27.5C39 27.2239 39.2239 27 39.5 27H41.5C41.7761 27 42 27.2239 42 27.5V29.5C42 29.7761 41.7761 30 41.5 30H39.5C39.2239 30 39 29.7761 39 29.5V27.5Z" fill="url(#paint38_radial)"/>
<path d="M39 33.5C39 33.2239 39.2239 33 39.5 33H41.5C41.7761 33 42 33.2239 42 33.5V35.5C42 35.7761 41.7761 36 41.5 36H39.5C39.2239 36 39 35.7761 39 35.5V33.5Z" fill="url(#paint39_radial)"/>
<path d="M39 39.5C39 39.2239 39.2239 39 39.5 39H41.5C41.7761 39 42 39.2239 42 39.5V41.5C42 41.7761 41.7761 42 41.5 42H39.5C39.2239 42 39 41.7761 39 41.5V39.5Z" fill="url(#paint40_radial)"/>
<path d="M6 6.5C6 6.22386 6.22386 6 6.5 6H8.5C8.77614 6 9 6.22386 9 6.5V8.5C9 8.77614 8.77614 9 8.5 9H6.5C6.22386 9 6 8.77614 6 8.5V6.5Z" fill="url(#paint41_radial)"/>
<path d="M18 12.5C18 12.2239 18.2239 12 18.5 12H20.5C20.7761 12 21 12.2239 21 12.5V14.5C21 14.7761 20.7761 15 20.5 15H18.5C18.2239 15 18 14.7761 18 14.5V12.5Z" fill="url(#paint42_radial)"/>
<path d="M18 18.5C18 18.2239 18.2239 18 18.5 18H20.5C20.7761 18 21 18.2239 21 18.5V20.5C21 20.7761 20.7761 21 20.5 21H18.5C18.2239 21 18 20.7761 18 20.5V18.5Z" fill="url(#paint43_radial)"/>
<path d="M18 24.5C18 24.2239 18.2239 24 18.5 24H20.5C20.7761 24 21 24.2239 21 24.5V26.5C21 26.7761 20.7761 27 20.5 27H18.5C18.2239 27 18 26.7761 18 26.5V24.5Z" fill="url(#paint44_radial)"/>
<path d="M18 30.5C18 30.2239 18.2239 30 18.5 30H20.5C20.7761 30 21 30.2239 21 30.5V32.5C21 32.7761 20.7761 33 20.5 33H18.5C18.2239 33 18 32.7761 18 32.5V30.5Z" fill="url(#paint45_radial)"/>
<path d="M18 36.5C18 36.2239 18.2239 36 18.5 36H20.5C20.7761 36 21 36.2239 21 36.5V38.5C21 38.7761 20.7761 39 20.5 39H18.5C18.2239 39 18 38.7761 18 38.5V36.5Z" fill="url(#paint46_radial)"/>
<path d="M18 6.5C18 6.22386 18.2239 6 18.5 6H20.5C20.7761 6 21 6.22386 21 6.5V8.5C21 8.77614 20.7761 9 20.5 9H18.5C18.2239 9 18 8.77614 18 8.5V6.5Z" fill="url(#paint47_radial)"/>
<path d="M30 12.5C30 12.2239 30.2239 12 30.5 12H32.5C32.7761 12 33 12.2239 33 12.5V14.5C33 14.7761 32.7761 15 32.5 15H30.5C30.2239 15 30 14.7761 30 14.5V12.5Z" fill="url(#paint48_radial)"/>
<path d="M30 18.5C30 18.2239 30.2239 18 30.5 18H32.5C32.7761 18 33 18.2239 33 18.5V20.5C33 20.7761 32.7761 21 32.5 21H30.5C30.2239 21 30 20.7761 30 20.5V18.5Z" fill="url(#paint49_radial)"/>
<path d="M30 24.5C30 24.2239 30.2239 24 30.5 24H32.5C32.7761 24 33 24.2239 33 24.5V26.5C33 26.7761 32.7761 27 32.5 27H30.5C30.2239 27 30 26.7761 30 26.5V24.5Z" fill="url(#paint50_radial)"/>
<path d="M30 30.5C30 30.2239 30.2239 30 30.5 30H32.5C32.7761 30 33 30.2239 33 30.5V32.5C33 32.7761 32.7761 33 32.5 33H30.5C30.2239 33 30 32.7761 30 32.5V30.5Z" fill="url(#paint51_radial)"/>
<path d="M30 36.5C30 36.2239 30.2239 36 30.5 36H32.5C32.7761 36 33 36.2239 33 36.5V38.5C33 38.7761 32.7761 39 32.5 39H30.5C30.2239 39 30 38.7761 30 38.5V36.5Z" fill="url(#paint52_radial)"/>
<path d="M30 6.5C30 6.22386 30.2239 6 30.5 6H32.5C32.7761 6 33 6.22386 33 6.5V8.5C33 8.77614 32.7761 9 32.5 9H30.5C30.2239 9 30 8.77614 30 8.5V6.5Z" fill="url(#paint53_radial)"/>
<path d="M12 12.5C12 12.2239 12.2239 12 12.5 12H14.5C14.7761 12 15 12.2239 15 12.5V14.5C15 14.7761 14.7761 15 14.5 15H12.5C12.2239 15 12 14.7761 12 14.5V12.5Z" fill="url(#paint54_radial)"/>
<path d="M12 18.5C12 18.2239 12.2239 18 12.5 18H14.5C14.7761 18 15 18.2239 15 18.5V20.5C15 20.7761 14.7761 21 14.5 21H12.5C12.2239 21 12 20.7761 12 20.5V18.5Z" fill="url(#paint55_radial)"/>
<path d="M12 24.5C12 24.2239 12.2239 24 12.5 24H14.5C14.7761 24 15 24.2239 15 24.5V26.5C15 26.7761 14.7761 27 14.5 27H12.5C12.2239 27 12 26.7761 12 26.5V24.5Z" fill="url(#paint56_radial)"/>
<path d="M12 30.5C12 30.2239 12.2239 30 12.5 30H14.5C14.7761 30 15 30.2239 15 30.5V32.5C15 32.7761 14.7761 33 14.5 33H12.5C12.2239 33 12 32.7761 12 32.5V30.5Z" fill="url(#paint57_radial)"/>
<path d="M12 36.5C12 36.2239 12.2239 36 12.5 36H14.5C14.7761 36 15 36.2239 15 36.5V38.5C15 38.7761 14.7761 39 14.5 39H12.5C12.2239 39 12 38.7761 12 38.5V36.5Z" fill="url(#paint58_radial)"/>
<path d="M12 6.5C12 6.22386 12.2239 6 12.5 6H14.5C14.7761 6 15 6.22386 15 6.5V8.5C15 8.77614 14.7761 9 14.5 9H12.5C12.2239 9 12 8.77614 12 8.5V6.5Z" fill="url(#paint59_radial)"/>
<path d="M24 12.5C24 12.2239 24.2239 12 24.5 12H26.5C26.7761 12 27 12.2239 27 12.5V14.5C27 14.7761 26.7761 15 26.5 15H24.5C24.2239 15 24 14.7761 24 14.5V12.5Z" fill="url(#paint60_radial)"/>
<path d="M24 18.5C24 18.2239 24.2239 18 24.5 18H26.5C26.7761 18 27 18.2239 27 18.5V20.5C27 20.7761 26.7761 21 26.5 21H24.5C24.2239 21 24 20.7761 24 20.5V18.5Z" fill="url(#paint61_radial)"/>
<path d="M24 24.5C24 24.2239 24.2239 24 24.5 24H26.5C26.7761 24 27 24.2239 27 24.5V26.5C27 26.7761 26.7761 27 26.5 27H24.5C24.2239 27 24 26.7761 24 26.5V24.5Z" fill="url(#paint62_radial)"/>
<path d="M24 30.5C24 30.2239 24.2239 30 24.5 30H26.5C26.7761 30 27 30.2239 27 30.5V32.5C27 32.7761 26.7761 33 26.5 33H24.5C24.2239 33 24 32.7761 24 32.5V30.5Z" fill="url(#paint63_radial)"/>
<path d="M24 36.5C24 36.2239 24.2239 36 24.5 36H26.5C26.7761 36 27 36.2239 27 36.5V38.5C27 38.7761 26.7761 39 26.5 39H24.5C24.2239 39 24 38.7761 24 38.5V36.5Z" fill="url(#paint64_radial)"/>
<path d="M24 6.5C24 6.22386 24.2239 6 24.5 6H26.5C26.7761 6 27 6.22386 27 6.5V8.5C27 8.77614 26.7761 9 26.5 9H24.5C24.2239 9 24 8.77614 24 8.5V6.5Z" fill="url(#paint65_radial)"/>
<path d="M36 12.5C36 12.2239 36.2239 12 36.5 12H38.5C38.7761 12 39 12.2239 39 12.5V14.5C39 14.7761 38.7761 15 38.5 15H36.5C36.2239 15 36 14.7761 36 14.5V12.5Z" fill="url(#paint66_radial)"/>
<path d="M36 18.5C36 18.2239 36.2239 18 36.5 18H38.5C38.7761 18 39 18.2239 39 18.5V20.5C39 20.7761 38.7761 21 38.5 21H36.5C36.2239 21 36 20.7761 36 20.5V18.5Z" fill="url(#paint67_radial)"/>
<path d="M36 24.5C36 24.2239 36.2239 24 36.5 24H38.5C38.7761 24 39 24.2239 39 24.5V26.5C39 26.7761 38.7761 27 38.5 27H36.5C36.2239 27 36 26.7761 36 26.5V24.5Z" fill="url(#paint68_radial)"/>
<path d="M36 30.5C36 30.2239 36.2239 30 36.5 30H38.5C38.7761 30 39 30.2239 39 30.5V32.5C39 32.7761 38.7761 33 38.5 33H36.5C36.2239 33 36 32.7761 36 32.5V30.5Z" fill="url(#paint69_radial)"/>
<path d="M36 36.5C36 36.2239 36.2239 36 36.5 36H38.5C38.7761 36 39 36.2239 39 36.5V38.5C39 38.7761 38.7761 39 38.5 39H36.5C36.2239 39 36 38.7761 36 38.5V36.5Z" fill="url(#paint70_radial)"/>
<path d="M36 6.5C36 6.22386 36.2239 6 36.5 6H38.5C38.7761 6 39 6.22386 39 6.5V8.5C39 8.77614 38.7761 9 38.5 9H36.5C36.2239 9 36 8.77614 36 8.5V6.5Z" fill="url(#paint71_radial)"/>
<path d="M42 12.5C42 12.2239 42.2239 12 42.5 12H44.5C44.7761 12 45 12.2239 45 12.5V14.5C45 14.7761 44.7761 15 44.5 15H42.5C42.2239 15 42 14.7761 42 14.5V12.5Z" fill="url(#paint72_radial)"/>
<path d="M42 18.5C42 18.2239 42.2239 18 42.5 18H44.5C44.7761 18 45 18.2239 45 18.5V20.5C45 20.7761 44.7761 21 44.5 21H42.5C42.2239 21 42 20.7761 42 20.5V18.5Z" fill="url(#paint73_radial)"/>
<path d="M42 24.5C42 24.2239 42.2239 24 42.5 24H44.5C44.7761 24 45 24.2239 45 24.5V26.5C45 26.7761 44.7761 27 44.5 27H42.5C42.2239 27 42 26.7761 42 26.5V24.5Z" fill="url(#paint74_radial)"/>
<path d="M42 30.5C42 30.2239 42.2239 30 42.5 30H44.5C44.7761 30 45 30.2239 45 30.5V32.5C45 32.7761 44.7761 33 44.5 33H42.5C42.2239 33 42 32.7761 42 32.5V30.5Z" fill="url(#paint75_radial)"/>
<path d="M42 36.5C42 36.2239 42.2239 36 42.5 36H44.5C44.7761 36 45 36.2239 45 36.5V38.5C45 38.7761 44.7761 39 44.5 39H42.5C42.2239 39 42 38.7761 42 38.5V36.5Z" fill="url(#paint76_radial)"/>
<path d="M42 6.5C42 6.22386 42.2239 6 42.5 6H44.5C44.7761 6 45 6.22386 45 6.5V8.5C45 8.77614 44.7761 9 44.5 9H42.5C42.2239 9 42 8.77614 42 8.5V6.5Z" fill="url(#paint77_radial)"/>
<rect x="29" y="7" width="14.5" height="19.1774" rx="2" fill="white"/>
<rect x="29.7017" y="7.93542" width="13.0968" height="4.67742" rx="1" fill="#70AE7A"/>
<rect x="30.6371" y="14.4839" width="1.87097" height="1.87097" rx="0.5" fill="#70AE7A"/>
<rect x="30.6371" y="17.2903" width="1.87097" height="1.87097" rx="0.5" fill="#70AE7A"/>
<rect x="30.6371" y="20.0968" width="1.87097" height="1.87097" rx="0.5" fill="#70AE7A"/>
<rect x="30.6371" y="22.9032" width="1.87097" height="1.87097" rx="0.5" fill="#70AE7A"/>
<rect x="33.4436" y="14.4839" width="1.87097" height="1.87097" rx="0.5" fill="#70AE7A"/>
<rect x="33.4436" y="17.2903" width="1.87097" height="1.87097" rx="0.5" fill="#70AE7A"/>
<rect x="33.4436" y="20.0968" width="1.87097" height="1.87097" rx="0.5" fill="#70AE7A"/>
<rect x="33.4436" y="22.9032" width="1.87097" height="1.87097" rx="0.5" fill="#70AE7A"/>
<rect x="36.25" y="14.4839" width="1.87097" height="1.87097" rx="0.5" fill="#70AE7A"/>
<rect x="36.25" y="17.2903" width="1.87097" height="1.87097" rx="0.5" fill="#70AE7A"/>
<rect x="36.25" y="20.0968" width="1.87097" height="1.87097" rx="0.5" fill="#70AE7A"/>
<rect x="36.25" y="22.9032" width="1.87097" height="1.87097" rx="0.5" fill="#70AE7A"/>
<rect x="39.9919" y="14.4839" width="1.87097" height="1.87097" rx="0.5" fill="#70AE7A"/>
<rect x="39.9919" y="17.2903" width="1.87097" height="1.87097" rx="0.5" fill="#70AE7A"/>
<rect x="39.9919" y="20.0968" width="1.87097" height="4.67742" rx="0.5" fill="#70AE7A"/>
<rect x="7" y="40" width="21" height="1" rx="0.5" fill="white"/>
<path d="M8 19C8 18.4477 8.44772 18 9 18H10C10.5523 18 11 18.4477 11 19V40C11 40.5523 10.5523 41 10 41H9C8.44772 41 8 40.5523 8 40V19Z" fill="white"/>
<rect x="12" y="23" width="3" height="18" rx="1" fill="white"/>
<rect x="16" y="29" width="3" height="12" rx="1" fill="white"/>
<rect x="24" y="29" width="3" height="12" rx="1" fill="white"/>
<rect x="20" y="35" width="3" height="6" rx="1" fill="white"/>
<defs>
<radialGradient id="paint0_radial" cx="0" cy="0" r="1" gradientUnits="userSpaceOnUse" gradientTransform="translate(23 -4) rotate(64.6803) scale(51.4417 51.146)">
<stop stop-color="white"/>
<stop offset="1" stop-color="white" stop-opacity="0"/>
</radialGradient>
<radialGradient id="paint1_radial" cx="0" cy="0" r="1" gradientUnits="userSpaceOnUse" gradientTransform="translate(23 -4) rotate(64.6803) scale(51.4417 51.146)">
<stop stop-color="white"/>
<stop offset="1" stop-color="white" stop-opacity="0"/>
</radialGradient>
<radialGradient id="paint2_radial" cx="0" cy="0" r="1" gradientUnits="userSpaceOnUse" gradientTransform="translate(23 -4) rotate(64.6803) scale(51.4417 51.146)">
<stop stop-color="white"/>
<stop offset="1" stop-color="white" stop-opacity="0"/>
</radialGradient>
<radialGradient id="paint3_radial" cx="0" cy="0" r="1" gradientUnits="userSpaceOnUse" gradientTransform="translate(23 -4) rotate(64.6803) scale(51.4417 51.146)">
<stop stop-color="white"/>
<stop offset="1" stop-color="white" stop-opacity="0"/>
</radialGradient>
<radialGradient id="paint4_radial" cx="0" cy="0" r="1" gradientUnits="userSpaceOnUse" gradientTransform="translate(23 -4) rotate(64.6803) scale(51.4417 51.146)">
<stop stop-color="white"/>
<stop offset="1" stop-color="white" stop-opacity="0"/>
</radialGradient>
<radialGradient id="paint5_radial" cx="0" cy="0" r="1" gradientUnits="userSpaceOnUse" gradientTransform="translate(23 -4) rotate(64.6803) scale(51.4417 51.146)">
<stop stop-color="white"/>
<stop offset="1" stop-color="white" stop-opacity="0"/>
</radialGradient>
<radialGradient id="paint6_radial" cx="0" cy="0" r="1" gradientUnits="userSpaceOnUse" gradientTransform="translate(23 -4) rotate(64.6803) scale(51.4417 51.146)">
<stop stop-color="white"/>
<stop offset="1" stop-color="white" stop-opacity="0"/>
</radialGradient>
<radialGradient id="paint7_radial" cx="0" cy="0" r="1" gradientUnits="userSpaceOnUse" gradientTransform="translate(23 -4) rotate(64.6803) scale(51.4417 51.146)">
<stop stop-color="white"/>
<stop offset="1" stop-color="white" stop-opacity="0"/>
</radialGradient>
<radialGradient id="paint8_radial" cx="0" cy="0" r="1" gradientUnits="userSpaceOnUse" gradientTransform="translate(23 -4) rotate(64.6803) scale(51.4417 51.146)">
<stop stop-color="white"/>
<stop offset="1" stop-color="white" stop-opacity="0"/>
</radialGradient>
<radialGradient id="paint9_radial" cx="0" cy="0" r="1" gradientUnits="userSpaceOnUse" gradientTransform="translate(23 -4) rotate(64.6803) scale(51.4417 51.146)">
<stop stop-color="white"/>
<stop offset="1" stop-color="white" stop-opacity="0"/>
</radialGradient>
<radialGradient id="paint10_radial" cx="0" cy="0" r="1" gradientUnits="userSpaceOnUse" gradientTransform="translate(23 -4) rotate(64.6803) scale(51.4417 51.146)">
<stop stop-color="white"/>
<stop offset="1" stop-color="white" stop-opacity="0"/>
</radialGradient>
<radialGradient id="paint11_radial" cx="0" cy="0" r="1" gradientUnits="userSpaceOnUse" gradientTransform="translate(23 -4) rotate(64.6803) scale(51.4417 51.146)">
<stop stop-color="white"/>
<stop offset="1" stop-color="white" stop-opacity="0"/>
</radialGradient>
<radialGradient id="paint12_radial" cx="0" cy="0" r="1" gradientUnits="userSpaceOnUse" gradientTransform="translate(23 -4) rotate(64.6803) scale(51.4417 51.146)">
<stop stop-color="white"/>
<stop offset="1" stop-color="white" stop-opacity="0"/>
</radialGradient>
<radialGradient id="paint13_radial" cx="0" cy="0" r="1" gradientUnits="userSpaceOnUse" gradientTransform="translate(23 -4) rotate(64.6803) scale(51.4417 51.146)">
<stop stop-color="white"/>
<stop offset="1" stop-color="white" stop-opacity="0"/>
</radialGradient>
<radialGradient id="paint14_radial" cx="0" cy="0" r="1" gradientUnits="userSpaceOnUse" gradientTransform="translate(23 -4) rotate(64.6803) scale(51.4417 51.146)">
<stop stop-color="white"/>
<stop offset="1" stop-color="white" stop-opacity="0"/>
</radialGradient>
<radialGradient id="paint15_radial" cx="0" cy="0" r="1" gradientUnits="userSpaceOnUse" gradientTransform="translate(23 -4) rotate(64.6803) scale(51.4417 51.146)">
<stop stop-color="white"/>
<stop offset="1" stop-color="white" stop-opacity="0"/>
</radialGradient>
<radialGradient id="paint16_radial" cx="0" cy="0" r="1" gradientUnits="userSpaceOnUse" gradientTransform="translate(23 -4) rotate(64.6803) scale(51.4417 51.146)">
<stop stop-color="white"/>
<stop offset="1" stop-color="white" stop-opacity="0"/>
</radialGradient>
<radialGradient id="paint17_radial" cx="0" cy="0" r="1" gradientUnits="userSpaceOnUse" gradientTransform="translate(23 -4) rotate(64.6803) scale(51.4417 51.146)">
<stop stop-color="white"/>
<stop offset="1" stop-color="white" stop-opacity="0"/>
</radialGradient>
<radialGradient id="paint18_radial" cx="0" cy="0" r="1" gradientUnits="userSpaceOnUse" gradientTransform="translate(23 -4) rotate(64.6803) scale(51.4417 51.146)">
<stop stop-color="white"/>
<stop offset="1" stop-color="white" stop-opacity="0"/>
</radialGradient>
<radialGradient id="paint19_radial" cx="0" cy="0" r="1" gradientUnits="userSpaceOnUse" gradientTransform="translate(23 -4) rotate(64.6803) scale(51.4417 51.146)">
<stop stop-color="white"/>
<stop offset="1" stop-color="white" stop-opacity="0"/>
</radialGradient>
<radialGradient id="paint20_radial" cx="0" cy="0" r="1" gradientUnits="userSpaceOnUse" gradientTransform="translate(23 -4) rotate(64.6803) scale(51.4417 51.146)">
<stop stop-color="white"/>
<stop offset="1" stop-color="white" stop-opacity="0"/>
</radialGradient>
<radialGradient id="paint21_radial" cx="0" cy="0" r="1" gradientUnits="userSpaceOnUse" gradientTransform="translate(23 -4) rotate(64.6803) scale(51.4417 51.146)">
<stop stop-color="white"/>
<stop offset="1" stop-color="white" stop-opacity="0"/>
</radialGradient>
<radialGradient id="paint22_radial" cx="0" cy="0" r="1" gradientUnits="userSpaceOnUse" gradientTransform="translate(23 -4) rotate(64.6803) scale(51.4417 51.146)">
<stop stop-color="white"/>
<stop offset="1" stop-color="white" stop-opacity="0"/>
</radialGradient>
<radialGradient id="paint23_radial" cx="0" cy="0" r="1" gradientUnits="userSpaceOnUse" gradientTransform="translate(23 -4) rotate(64.6803) scale(51.4417 51.146)">
<stop stop-color="white"/>
<stop offset="1" stop-color="white" stop-opacity="0"/>
</radialGradient>
<radialGradient id="paint24_radial" cx="0" cy="0" r="1" gradientUnits="userSpaceOnUse" gradientTransform="translate(23 -4) rotate(64.6803) scale(51.4417 51.146)">
<stop stop-color="white"/>
<stop offset="1" stop-color="white" stop-opacity="0"/>
</radialGradient>
<radialGradient id="paint25_radial" cx="0" cy="0" r="1" gradientUnits="userSpaceOnUse" gradientTransform="translate(23 -4) rotate(64.6803) scale(51.4417 51.146)">
<stop stop-color="white"/>
<stop offset="1" stop-color="white" stop-opacity="0"/>
</radialGradient>
<radialGradient id="paint26_radial" cx="0" cy="0" r="1" gradientUnits="userSpaceOnUse" gradientTransform="translate(23 -4) rotate(64.6803) scale(51.4417 51.146)">
<stop stop-color="white"/>
<stop offset="1" stop-color="white" stop-opacity="0"/>
</radialGradient>
<radialGradient id="paint27_radial" cx="0" cy="0" r="1" gradientUnits="userSpaceOnUse" gradientTransform="translate(23 -4) rotate(64.6803) scale(51.4417 51.146)">
<stop stop-color="white"/>
<stop offset="1" stop-color="white" stop-opacity="0"/>
</radialGradient>
<radialGradient id="paint28_radial" cx="0" cy="0" r="1" gradientUnits="userSpaceOnUse" gradientTransform="translate(23 -4) rotate(64.6803) scale(51.4417 51.146)">
<stop stop-color="white"/>
<stop offset="1" stop-color="white" stop-opacity="0"/>
</radialGradient>
<radialGradient id="paint29_radial" cx="0" cy="0" r="1" gradientUnits="userSpaceOnUse" gradientTransform="translate(23 -4) rotate(64.6803) scale(51.4417 51.146)">
<stop stop-color="white"/>
<stop offset="1" stop-color="white" stop-opacity="0"/>
</radialGradient>
<radialGradient id="paint30_radial" cx="0" cy="0" r="1" gradientUnits="userSpaceOnUse" gradientTransform="translate(23 -4) rotate(64.6803) scale(51.4417 51.146)">
<stop stop-color="white"/>
<stop offset="1" stop-color="white" stop-opacity="0"/>
</radialGradient>
<radialGradient id="paint31_radial" cx="0" cy="0" r="1" gradientUnits="userSpaceOnUse" gradientTransform="translate(23 -4) rotate(64.6803) scale(51.4417 51.146)">
<stop stop-color="white"/>
<stop offset="1" stop-color="white" stop-opacity="0"/>
</radialGradient>
<radialGradient id="paint32_radial" cx="0" cy="0" r="1" gradientUnits="userSpaceOnUse" gradientTransform="translate(23 -4) rotate(64.6803) scale(51.4417 51.146)">
<stop stop-color="white"/>
<stop offset="1" stop-color="white" stop-opacity="0"/>
</radialGradient>
<radialGradient id="paint33_radial" cx="0" cy="0" r="1" gradientUnits="userSpaceOnUse" gradientTransform="translate(23 -4) rotate(64.6803) scale(51.4417 51.146)">
<stop stop-color="white"/>
<stop offset="1" stop-color="white" stop-opacity="0"/>
</radialGradient>
<radialGradient id="paint34_radial" cx="0" cy="0" r="1" gradientUnits="userSpaceOnUse" gradientTransform="translate(23 -4) rotate(64.6803) scale(51.4417 51.146)">
<stop stop-color="white"/>
<stop offset="1" stop-color="white" stop-opacity="0"/>
</radialGradient>
<radialGradient id="paint35_radial" cx="0" cy="0" r="1" gradientUnits="userSpaceOnUse" gradientTransform="translate(23 -4) rotate(64.6803) scale(51.4417 51.146)">
<stop stop-color="white"/>
<stop offset="1" stop-color="white" stop-opacity="0"/>
</radialGradient>
<radialGradient id="paint36_radial" cx="0" cy="0" r="1" gradientUnits="userSpaceOnUse" gradientTransform="translate(23 -4) rotate(64.6803) scale(51.4417 51.146)">
<stop stop-color="white"/>
<stop offset="1" stop-color="white" stop-opacity="0"/>
</radialGradient>
<radialGradient id="paint37_radial" cx="0" cy="0" r="1" gradientUnits="userSpaceOnUse" gradientTransform="translate(23 -4) rotate(64.6803) scale(51.4417 51.146)">
<stop stop-color="white"/>
<stop offset="1" stop-color="white" stop-opacity="0"/>
</radialGradient>
<radialGradient id="paint38_radial" cx="0" cy="0" r="1" gradientUnits="userSpaceOnUse" gradientTransform="translate(23 -4) rotate(64.6803) scale(51.4417 51.146)">
<stop stop-color="white"/>
<stop offset="1" stop-color="white" stop-opacity="0"/>
</radialGradient>
<radialGradient id="paint39_radial" cx="0" cy="0" r="1" gradientUnits="userSpaceOnUse" gradientTransform="translate(23 -4) rotate(64.6803) scale(51.4417 51.146)">
<stop stop-color="white"/>
<stop offset="1" stop-color="white" stop-opacity="0"/>
</radialGradient>
<radialGradient id="paint40_radial" cx="0" cy="0" r="1" gradientUnits="userSpaceOnUse" gradientTransform="translate(23 -4) rotate(64.6803) scale(51.4417 51.146)">
<stop stop-color="white"/>
<stop offset="1" stop-color="white" stop-opacity="0"/>
</radialGradient>
<radialGradient id="paint41_radial" cx="0" cy="0" r="1" gradientUnits="userSpaceOnUse" gradientTransform="translate(23 -4) rotate(64.6803) scale(51.4417 51.146)">
<stop stop-color="white"/>
<stop offset="1" stop-color="white" stop-opacity="0"/>
</radialGradient>
<radialGradient id="paint42_radial" cx="0" cy="0" r="1" gradientUnits="userSpaceOnUse" gradientTransform="translate(23 -4) rotate(64.6803) scale(51.4417 51.146)">
<stop stop-color="white"/>
<stop offset="1" stop-color="white" stop-opacity="0"/>
</radialGradient>
<radialGradient id="paint43_radial" cx="0" cy="0" r="1" gradientUnits="userSpaceOnUse" gradientTransform="translate(23 -4) rotate(64.6803) scale(51.4417 51.146)">
<stop stop-color="white"/>
<stop offset="1" stop-color="white" stop-opacity="0"/>
</radialGradient>
<radialGradient id="paint44_radial" cx="0" cy="0" r="1" gradientUnits="userSpaceOnUse" gradientTransform="translate(23 -4) rotate(64.6803) scale(51.4417 51.146)">
<stop stop-color="white"/>
<stop offset="1" stop-color="white" stop-opacity="0"/>
</radialGradient>
<radialGradient id="paint45_radial" cx="0" cy="0" r="1" gradientUnits="userSpaceOnUse" gradientTransform="translate(23 -4) rotate(64.6803) scale(51.4417 51.146)">
<stop stop-color="white"/>
<stop offset="1" stop-color="white" stop-opacity="0"/>
</radialGradient>
<radialGradient id="paint46_radial" cx="0" cy="0" r="1" gradientUnits="userSpaceOnUse" gradientTransform="translate(23 -4) rotate(64.6803) scale(51.4417 51.146)">
<stop stop-color="white"/>
<stop offset="1" stop-color="white" stop-opacity="0"/>
</radialGradient>
<radialGradient id="paint47_radial" cx="0" cy="0" r="1" gradientUnits="userSpaceOnUse" gradientTransform="translate(23 -4) rotate(64.6803) scale(51.4417 51.146)">
<stop stop-color="white"/>
<stop offset="1" stop-color="white" stop-opacity="0"/>
</radialGradient>
<radialGradient id="paint48_radial" cx="0" cy="0" r="1" gradientUnits="userSpaceOnUse" gradientTransform="translate(23 -4) rotate(64.6803) scale(51.4417 51.146)">
<stop stop-color="white"/>
<stop offset="1" stop-color="white" stop-opacity="0"/>
</radialGradient>
<radialGradient id="paint49_radial" cx="0" cy="0" r="1" gradientUnits="userSpaceOnUse" gradientTransform="translate(23 -4) rotate(64.6803) scale(51.4417 51.146)">
<stop stop-color="white"/>
<stop offset="1" stop-color="white" stop-opacity="0"/>
</radialGradient>
<radialGradient id="paint50_radial" cx="0" cy="0" r="1" gradientUnits="userSpaceOnUse" gradientTransform="translate(23 -4) rotate(64.6803) scale(51.4417 51.146)">
<stop stop-color="white"/>
<stop offset="1" stop-color="white" stop-opacity="0"/>
</radialGradient>
<radialGradient id="paint51_radial" cx="0" cy="0" r="1" gradientUnits="userSpaceOnUse" gradientTransform="translate(23 -4) rotate(64.6803) scale(51.4417 51.146)">
<stop stop-color="white"/>
<stop offset="1" stop-color="white" stop-opacity="0"/>
</radialGradient>
<radialGradient id="paint52_radial" cx="0" cy="0" r="1" gradientUnits="userSpaceOnUse" gradientTransform="translate(23 -4) rotate(64.6803) scale(51.4417 51.146)">
<stop stop-color="white"/>
<stop offset="1" stop-color="white" stop-opacity="0"/>
</radialGradient>
<radialGradient id="paint53_radial" cx="0" cy="0" r="1" gradientUnits="userSpaceOnUse" gradientTransform="translate(23 -4) rotate(64.6803) scale(51.4417 51.146)">
<stop stop-color="white"/>
<stop offset="1" stop-color="white" stop-opacity="0"/>
</radialGradient>
<radialGradient id="paint54_radial" cx="0" cy="0" r="1" gradientUnits="userSpaceOnUse" gradientTransform="translate(23 -4) rotate(64.6803) scale(51.4417 51.146)">
<stop stop-color="white"/>
<stop offset="1" stop-color="white" stop-opacity="0"/>
</radialGradient>
<radialGradient id="paint55_radial" cx="0" cy="0" r="1" gradientUnits="userSpaceOnUse" gradientTransform="translate(23 -4) rotate(64.6803) scale(51.4417 51.146)">
<stop stop-color="white"/>
<stop offset="1" stop-color="white" stop-opacity="0"/>
</radialGradient>
<radialGradient id="paint56_radial" cx="0" cy="0" r="1" gradientUnits="userSpaceOnUse" gradientTransform="translate(23 -4) rotate(64.6803) scale(51.4417 51.146)">
<stop stop-color="white"/>
<stop offset="1" stop-color="white" stop-opacity="0"/>
</radialGradient>
<radialGradient id="paint57_radial" cx="0" cy="0" r="1" gradientUnits="userSpaceOnUse" gradientTransform="translate(23 -4) rotate(64.6803) scale(51.4417 51.146)">
<stop stop-color="white"/>
<stop offset="1" stop-color="white" stop-opacity="0"/>
</radialGradient>
<radialGradient id="paint58_radial" cx="0" cy="0" r="1" gradientUnits="userSpaceOnUse" gradientTransform="translate(23 -4) rotate(64.6803) scale(51.4417 51.146)">
<stop stop-color="white"/>
<stop offset="1" stop-color="white" stop-opacity="0"/>
</radialGradient>
<radialGradient id="paint59_radial" cx="0" cy="0" r="1" gradientUnits="userSpaceOnUse" gradientTransform="translate(23 -4) rotate(64.6803) scale(51.4417 51.146)">
<stop stop-color="white"/>
<stop offset="1" stop-color="white" stop-opacity="0"/>
</radialGradient>
<radialGradient id="paint60_radial" cx="0" cy="0" r="1" gradientUnits="userSpaceOnUse" gradientTransform="translate(23 -4) rotate(64.6803) scale(51.4417 51.146)">
<stop stop-color="white"/>
<stop offset="1" stop-color="white" stop-opacity="0"/>
</radialGradient>
<radialGradient id="paint61_radial" cx="0" cy="0" r="1" gradientUnits="userSpaceOnUse" gradientTransform="translate(23 -4) rotate(64.6803) scale(51.4417 51.146)">
<stop stop-color="white"/>
<stop offset="1" stop-color="white" stop-opacity="0"/>
</radialGradient>
<radialGradient id="paint62_radial" cx="0" cy="0" r="1" gradientUnits="userSpaceOnUse" gradientTransform="translate(23 -4) rotate(64.6803) scale(51.4417 51.146)">
<stop stop-color="white"/>
<stop offset="1" stop-color="white" stop-opacity="0"/>
</radialGradient>
<radialGradient id="paint63_radial" cx="0" cy="0" r="1" gradientUnits="userSpaceOnUse" gradientTransform="translate(23 -4) rotate(64.6803) scale(51.4417 51.146)">
<stop stop-color="white"/>
<stop offset="1" stop-color="white" stop-opacity="0"/>
</radialGradient>
<radialGradient id="paint64_radial" cx="0" cy="0" r="1" gradientUnits="userSpaceOnUse" gradientTransform="translate(23 -4) rotate(64.6803) scale(51.4417 51.146)">
<stop stop-color="white"/>
<stop offset="1" stop-color="white" stop-opacity="0"/>
</radialGradient>
<radialGradient id="paint65_radial" cx="0" cy="0" r="1" gradientUnits="userSpaceOnUse" gradientTransform="translate(23 -4) rotate(64.6803) scale(51.4417 51.146)">
<stop stop-color="white"/>
<stop offset="1" stop-color="white" stop-opacity="0"/>
</radialGradient>
<radialGradient id="paint66_radial" cx="0" cy="0" r="1" gradientUnits="userSpaceOnUse" gradientTransform="translate(23 -4) rotate(64.6803) scale(51.4417 51.146)">
<stop stop-color="white"/>
<stop offset="1" stop-color="white" stop-opacity="0"/>
</radialGradient>
<radialGradient id="paint67_radial" cx="0" cy="0" r="1" gradientUnits="userSpaceOnUse" gradientTransform="translate(23 -4) rotate(64.6803) scale(51.4417 51.146)">
<stop stop-color="white"/>
<stop offset="1" stop-color="white" stop-opacity="0"/>
</radialGradient>
<radialGradient id="paint68_radial" cx="0" cy="0" r="1" gradientUnits="userSpaceOnUse" gradientTransform="translate(23 -4) rotate(64.6803) scale(51.4417 51.146)">
<stop stop-color="white"/>
<stop offset="1" stop-color="white" stop-opacity="0"/>
</radialGradient>
<radialGradient id="paint69_radial" cx="0" cy="0" r="1" gradientUnits="userSpaceOnUse" gradientTransform="translate(23 -4) rotate(64.6803) scale(51.4417 51.146)">
<stop stop-color="white"/>
<stop offset="1" stop-color="white" stop-opacity="0"/>
</radialGradient>
<radialGradient id="paint70_radial" cx="0" cy="0" r="1" gradientUnits="userSpaceOnUse" gradientTransform="translate(23 -4) rotate(64.6803) scale(51.4417 51.146)">
<stop stop-color="white"/>
<stop offset="1" stop-color="white" stop-opacity="0"/>
</radialGradient>
<radialGradient id="paint71_radial" cx="0" cy="0" r="1" gradientUnits="userSpaceOnUse" gradientTransform="translate(23 -4) rotate(64.6803) scale(51.4417 51.146)">
<stop stop-color="white"/>
<stop offset="1" stop-color="white" stop-opacity="0"/>
</radialGradient>
<radialGradient id="paint72_radial" cx="0" cy="0" r="1" gradientUnits="userSpaceOnUse" gradientTransform="translate(23 -4) rotate(64.6803) scale(51.4417 51.146)">
<stop stop-color="white"/>
<stop offset="1" stop-color="white" stop-opacity="0"/>
</radialGradient>
<radialGradient id="paint73_radial" cx="0" cy="0" r="1" gradientUnits="userSpaceOnUse" gradientTransform="translate(23 -4) rotate(64.6803) scale(51.4417 51.146)">
<stop stop-color="white"/>
<stop offset="1" stop-color="white" stop-opacity="0"/>
</radialGradient>
<radialGradient id="paint74_radial" cx="0" cy="0" r="1" gradientUnits="userSpaceOnUse" gradientTransform="translate(23 -4) rotate(64.6803) scale(51.4417 51.146)">
<stop stop-color="white"/>
<stop offset="1" stop-color="white" stop-opacity="0"/>
</radialGradient>
<radialGradient id="paint75_radial" cx="0" cy="0" r="1" gradientUnits="userSpaceOnUse" gradientTransform="translate(23 -4) rotate(64.6803) scale(51.4417 51.146)">
<stop stop-color="white"/>
<stop offset="1" stop-color="white" stop-opacity="0"/>
</radialGradient>
<radialGradient id="paint76_radial" cx="0" cy="0" r="1" gradientUnits="userSpaceOnUse" gradientTransform="translate(23 -4) rotate(64.6803) scale(51.4417 51.146)">
<stop stop-color="white"/>
<stop offset="1" stop-color="white" stop-opacity="0"/>
</radialGradient>
<radialGradient id="paint77_radial" cx="0" cy="0" r="1" gradientUnits="userSpaceOnUse" gradientTransform="translate(23 -4) rotate(64.6803) scale(51.4417 51.146)">
<stop stop-color="white"/>
<stop offset="1" stop-color="white" stop-opacity="0"/>
</radialGradient>
</defs>
</svg>
