<svg width="50" height="50" viewBox="0 0 50 50" fill="none" xmlns="http://www.w3.org/2000/svg">
<rect width="50" height="50" fill="url(#paint0_linear_371:7451)"/>
<g clip-path="url(#clip0_371:7451)">
<path fill-rule="evenodd" clip-rule="evenodd" d="M25 48.3654C37.9044 48.3654 48.3654 37.9044 48.3654 25C48.3654 12.0957 37.9044 1.63462 25 1.63462C12.0957 1.63462 1.63462 12.0957 1.63462 25C1.63462 37.9044 12.0957 48.3654 25 48.3654ZM25 46.6346C36.9485 46.6346 46.6346 36.9485 46.6346 25C46.6346 13.0515 36.9485 3.36539 25 3.36539C13.0515 3.36539 3.36539 13.0515 3.36539 25C3.36539 36.9485 13.0515 46.6346 25 46.6346Z" fill="url(#paint1_radial_371:7451)"/>
<path fill-rule="evenodd" clip-rule="evenodd" d="M25 44.0385C35.5147 44.0385 44.0385 35.5147 44.0385 25C44.0385 14.4853 35.5147 5.96154 25 5.96154C14.4853 5.96154 5.96154 14.4853 5.96154 25C5.96154 35.5147 14.4853 44.0385 25 44.0385ZM25 42.6282C34.7358 42.6282 42.6282 34.7358 42.6282 25C42.6282 15.2642 34.7358 7.3718 25 7.3718C15.2642 7.3718 7.3718 15.2642 7.3718 25C7.3718 34.7358 15.2642 42.6282 25 42.6282Z" fill="url(#paint2_radial_371:7451)"/>
<path fill-rule="evenodd" clip-rule="evenodd" d="M25 52.6923C40.294 52.6923 52.6923 40.294 52.6923 25C52.6923 9.70596 40.294 -2.69231 25 -2.69231C9.70596 -2.69231 -2.69231 9.70596 -2.69231 25C-2.69231 40.294 9.70596 52.6923 25 52.6923ZM25 50.641C39.1611 50.641 50.641 39.1611 50.641 25C50.641 10.8389 39.1611 -0.641026 25 -0.641026C10.8388 -0.641026 -0.641033 10.8389 -0.641033 25C-0.641033 39.1611 10.8388 50.641 25 50.641Z" fill="url(#paint3_radial_371:7451)"/>
<path fill-rule="evenodd" clip-rule="evenodd" d="M25 57.0192C42.6837 57.0192 57.0192 42.6837 57.0192 25C57.0192 7.31627 42.6837 -7.01923 25 -7.01923C7.31627 -7.01923 -7.01923 7.31627 -7.01923 25C-7.01923 42.6837 7.31627 57.0192 25 57.0192ZM25 54.6474C41.3738 54.6474 54.6474 41.3738 54.6474 25C54.6474 8.62617 41.3738 -4.64744 25 -4.64744C8.62617 -4.64744 -4.64744 8.62617 -4.64744 25C-4.64744 41.3738 8.62617 54.6474 25 54.6474Z" fill="url(#paint4_radial_371:7451)"/>
<path fill-rule="evenodd" clip-rule="evenodd" d="M25 61.3462C45.0734 61.3462 61.3462 45.0734 61.3462 25C61.3462 4.92657 45.0734 -11.3462 25 -11.3462C4.92657 -11.3462 -11.3462 4.92657 -11.3462 25C-11.3462 45.0734 4.92657 61.3462 25 61.3462ZM25 58.6538C43.5865 58.6538 58.6538 43.5865 58.6538 25C58.6538 6.41348 43.5865 -8.65386 25 -8.65386C6.41348 -8.65386 -8.65386 6.41348 -8.65386 25C-8.65386 43.5865 6.41348 58.6538 25 58.6538Z" fill="url(#paint5_radial_371:7451)"/>
<path fill-rule="evenodd" clip-rule="evenodd" d="M25 65.6731C47.4631 65.6731 65.6731 47.4631 65.6731 25C65.6731 2.53688 47.4631 -15.6731 25 -15.6731C2.53688 -15.6731 -15.6731 2.53688 -15.6731 25C-15.6731 47.4631 2.53688 65.6731 25 65.6731ZM25 62.6602C45.7992 62.6602 62.6602 45.7992 62.6602 25C62.6602 4.20079 45.7992 -12.6603 25 -12.6603C4.20079 -12.6603 -12.6603 4.20079 -12.6603 25C-12.6603 45.7992 4.20079 62.6602 25 62.6602Z" fill="url(#paint6_radial_371:7451)"/>
<path fill-rule="evenodd" clip-rule="evenodd" d="M25 70C49.8528 70 70 49.8528 70 25C70 0.147186 49.8528 -20 25 -20C0.147186 -20 -20 0.147186 -20 25C-20 49.8528 0.147186 70 25 70ZM25 66.6666C48.0118 66.6666 66.6666 48.0118 66.6666 25C66.6666 1.9881 48.0118 -16.6667 25 -16.6667C1.9881 -16.6667 -16.6667 1.9881 -16.6667 25C-16.6667 48.0118 1.9881 66.6666 25 66.6666Z" fill="url(#paint7_radial_371:7451)"/>
<path fill-rule="evenodd" clip-rule="evenodd" d="M25 15C19.4772 15 15 19.4772 15 25C15 30.5229 19.4772 35 25 35C30.5228 35 35 30.5229 35 25C35 19.4772 30.5228 15 25 15ZM31 25.0001C31 21.6864 28.3137 19.0001 25 19.0001V17.0001C29.4183 17.0001 33 20.5818 33 25.0001H31ZM25 33.0001C20.5817 33.0001 17 29.4184 17 25.0001H19C19 28.3138 21.6863 31.0001 25 31.0001V33.0001ZM23 24.9999C23 23.8953 23.8954 22.9999 25 22.9999C26.1046 22.9999 27 23.8953 27 24.9999C27 26.1044 26.1046 26.9999 25 26.9999C23.8954 26.9999 23 26.1044 23 24.9999Z" fill="white"/>
</g>
<defs>
<linearGradient id="paint0_linear_371:7451" x1="25" y1="0" x2="25" y2="50" gradientUnits="userSpaceOnUse">
<stop stop-color="#800080"/>
<stop offset="1" stop-color="#7000BF"/>
</linearGradient>
<radialGradient id="paint1_radial_371:7451" cx="0" cy="0" r="1" gradientUnits="userSpaceOnUse" gradientTransform="translate(25 25) rotate(90) scale(28.5)">
<stop offset="0.369792" stop-color="white"/>
<stop offset="1" stop-color="white" stop-opacity="0"/>
</radialGradient>
<radialGradient id="paint2_radial_371:7451" cx="0" cy="0" r="1" gradientUnits="userSpaceOnUse" gradientTransform="translate(25 25) rotate(90) scale(28.5)">
<stop offset="0.369792" stop-color="white"/>
<stop offset="1" stop-color="white" stop-opacity="0"/>
</radialGradient>
<radialGradient id="paint3_radial_371:7451" cx="0" cy="0" r="1" gradientUnits="userSpaceOnUse" gradientTransform="translate(25 25) rotate(90) scale(28.5)">
<stop offset="0.369792" stop-color="white"/>
<stop offset="1" stop-color="white" stop-opacity="0"/>
</radialGradient>
<radialGradient id="paint4_radial_371:7451" cx="0" cy="0" r="1" gradientUnits="userSpaceOnUse" gradientTransform="translate(25 25) rotate(90) scale(28.5)">
<stop offset="0.369792" stop-color="white"/>
<stop offset="1" stop-color="white" stop-opacity="0"/>
</radialGradient>
<radialGradient id="paint5_radial_371:7451" cx="0" cy="0" r="1" gradientUnits="userSpaceOnUse" gradientTransform="translate(25 25) rotate(90) scale(28.5)">
<stop offset="0.369792" stop-color="white"/>
<stop offset="1" stop-color="white" stop-opacity="0"/>
</radialGradient>
<radialGradient id="paint6_radial_371:7451" cx="0" cy="0" r="1" gradientUnits="userSpaceOnUse" gradientTransform="translate(25 25) rotate(90) scale(28.5)">
<stop offset="0.369792" stop-color="white"/>
<stop offset="1" stop-color="white" stop-opacity="0"/>
</radialGradient>
<radialGradient id="paint7_radial_371:7451" cx="0" cy="0" r="1" gradientUnits="userSpaceOnUse" gradientTransform="translate(25 25) rotate(90) scale(28.5)">
<stop offset="0.369792" stop-color="white"/>
<stop offset="1" stop-color="white" stop-opacity="0"/>
</radialGradient>
<clipPath id="clip0_371:7451">
<rect width="50" height="50" fill="white"/>
</clipPath>
</defs>
</svg>
