<svg width="26" height="26" viewBox="0 0 26 26" fill="none" xmlns="http://www.w3.org/2000/svg">
<g clip-path="url(#clip0)">
<rect x="0.5" y="0.5" width="25" height="25" rx="5" fill="#46007C" fill-opacity="0.8"/>
<rect width="25" height="25" transform="translate(0.5 0.5)" fill="white" fill-opacity="0.3"/>
<path fill-rule="evenodd" clip-rule="evenodd" d="M10.5 5C7.18629 5 4.5 7.68629 4.5 11C4.5 14.3137 7.18629 17 10.5 17C13.8137 17 16.5 14.3137 16.5 11C16.5 7.68629 13.8137 5 10.5 5ZM10.5 7C8.29086 7 6.5 8.79086 6.5 11C6.5 13.2091 8.29086 15 10.5 15C12.7091 15 14.5 13.2091 14.5 11C14.5 8.79086 12.7091 7 10.5 7Z" fill="white"/>
<rect x="14.5127" y="13.0681" width="8.48943" height="2.75" rx="1.375" transform="rotate(45 14.5127 13.0681)" fill="white"/>
</g>
<defs>
<clipPath id="clip0">
<rect x="0.5" y="0.5" width="25" height="25" rx="5" fill="white"/>
</clipPath>
</defs>
</svg>
