<svg width="26" height="26" viewBox="0 0 26 26" fill="none" xmlns="http://www.w3.org/2000/svg">
<g clip-path="url(#clip0)">
<rect x="0.5" y="0.5" width="25" height="25" rx="5" fill="#46007C" fill-opacity="0.8"/>
<rect width="25" height="25" transform="translate(0.5 0.5)" fill="white" fill-opacity="0.3"/>
<path fill-rule="evenodd" clip-rule="evenodd" d="M12.2222 5.94445C12.2222 5.42284 12.6451 5 13.1667 5C13.5162 5 13.8215 5.18993 13.9848 5.47222H13.9856C13.987 5.47512 13.9883 5.47802 13.9897 5.48091C14.0062 5.51016 14.0212 5.54037 14.0346 5.57145C14.315 6.11608 14.7498 6.58921 15.3197 6.91825C16.6918 7.7104 18.3957 7.40715 19.4187 6.27983C19.6816 5.99014 20.1099 5.8669 20.4487 6.0625C20.7874 6.2581 20.9074 6.69571 20.6638 7.00177C19.2321 8.80005 16.6623 9.32918 14.6114 8.14512C14.4356 8.04359 14.2687 7.93245 14.1111 7.81275V18.2222C14.1111 18.2781 14.1063 18.3329 14.0969 18.3862C14.1063 18.4877 14.1111 18.5905 14.1111 18.6944C14.1111 20.5201 12.6312 22 10.8056 22C8.97995 22 7.5 20.5201 7.5 18.6944C7.5 16.8688 8.97995 15.3889 10.8056 15.3889C11.3125 15.3889 11.7929 15.503 12.2222 15.707V5.94445Z" fill="white"/>
</g>
<defs>
<clipPath id="clip0">
<rect x="0.5" y="0.5" width="25" height="25" rx="5" fill="white"/>
</clipPath>
</defs>
</svg>
