<svg width="50" height="50" viewBox="0 0 50 50" fill="none" xmlns="http://www.w3.org/2000/svg">
<rect width="50" height="50" rx="10" fill="black" fill-opacity="0.8"/>
<g clip-path="url(#clip0)">
<rect width="50" height="50" rx="10" fill="white" fill-opacity="0.3"/>
<path fill-rule="evenodd" clip-rule="evenodd" d="M40.625 7.5625C40.625 7.01022 41.0727 6.5625 41.625 6.5625H52.75C53.3023 6.5625 53.75 7.01022 53.75 7.5625V18.6875C53.75 19.0199 53.5878 19.3144 53.3383 19.4962C65.7559 22.4164 75 33.5662 75 46.875C75 62.408 62.408 75 46.875 75C33.556 75 22.3993 65.7417 19.4895 53.3097C19.3448 53.3911 19.1778 53.4375 19 53.4375H7.25C6.69772 53.4375 6.25 52.9898 6.25 52.4375V41.9375C6.25 41.3852 6.69772 40.9375 7.25 40.9375H19C19.1282 40.9375 19.2507 40.9616 19.3634 41.0056C20.0722 37.6665 21.3736 34.5464 23.1523 31.7605C22.8576 31.7964 22.5499 31.7012 22.3237 31.475L14.4571 23.6084C14.0666 23.2179 14.0666 22.5847 14.4571 22.1942L21.639 15.0123C22.0295 14.6218 22.6627 14.6218 23.0532 15.0123L30.9197 22.8789C31.0964 23.0556 31.1932 23.2819 31.21 23.5129C34.1062 21.5671 37.3841 20.1456 40.9077 19.3843C40.7328 19.2042 40.625 18.9584 40.625 18.6875V7.5625ZM46.875 62.5C55.5044 62.5 62.5 55.5045 62.5 46.875C62.5 38.2456 55.5044 31.25 46.875 31.25C38.2456 31.25 31.25 38.2456 31.25 46.875C31.25 55.5045 38.2456 62.5 46.875 62.5ZM59.375 47.1875C59.375 54.0911 53.7786 59.6875 46.875 59.6875C39.9714 59.6875 34.375 54.0911 34.375 47.1875C34.375 40.2839 39.9714 34.6875 46.875 34.6875C53.7786 34.6875 59.375 40.2839 59.375 47.1875Z" fill="white"/>
<path fill-rule="evenodd" clip-rule="evenodd" d="M9.19874 24.2591C9.44519 24.7533 9.24432 25.3538 8.75007 25.6002L-1.20581 30.5647C-1.70006 30.8111 -2.30052 30.6103 -2.54697 30.116L-7.51144 20.1601C-7.65976 19.8627 -7.64607 19.5268 -7.50391 19.2527C-19.9197 22.1807 -33.1678 16.3277 -39.1068 4.41752C-46.0383 -9.48314 -40.3887 -26.371 -26.4881 -33.3025C-14.5687 -39.246 -0.453056 -35.9393 7.69868 -26.1122C7.79185 -26.2496 7.92057 -26.3657 8.0797 -26.445L18.5949 -31.6884C19.0892 -31.9348 19.6896 -31.734 19.9361 -31.2397L24.6216 -21.8432C24.8681 -21.3489 24.6672 -20.7485 24.173 -20.502L13.6578 -15.2586C13.5431 -15.2014 13.4226 -15.1683 13.3022 -15.1574C14.1579 -11.8529 14.3856 -8.47994 14.037 -5.19312C14.2848 -5.35674 14.6026 -5.40886 14.906 -5.30736L25.4562 -1.77789C25.98 -1.60268 26.2625 -1.03605 26.0873 -0.512298L22.8651 9.11969C22.6899 9.64344 22.1232 9.92599 21.5995 9.75078L11.0492 6.22131C10.8123 6.14205 10.6247 5.9827 10.5065 5.78346C8.78302 8.81722 6.48393 11.5521 3.67029 13.8058C3.90726 13.8888 4.11336 14.0607 4.23427 14.3032L9.19874 24.2591ZM-20.91 -22.1161C-28.6326 -18.2652 -31.7713 -8.88313 -27.9204 -1.16054C-24.0696 6.56205 -14.6875 9.70072 -6.96487 5.84988C0.757714 1.99904 3.89638 -7.38309 0.0455405 -15.1057C-3.8053 -22.8283 -13.1874 -25.9669 -20.91 -22.1161ZM-25.2633 -2.83468C-28.344 -9.01275 -25.833 -16.5185 -19.655 -19.5991C-13.4769 -22.6798 -5.97118 -20.1689 -2.89051 -13.9908C0.190166 -7.81272 -2.32077 -0.307025 -8.49884 2.77365C-14.6769 5.85433 -22.1826 3.34339 -25.2633 -2.83468Z" fill="white"/>
</g>
<defs>
<clipPath id="clip0">
<rect width="50" height="50" rx="10" fill="white"/>
</clipPath>
</defs>
</svg>
