<svg width="50" height="50" viewBox="0 0 50 50" fill="none" xmlns="http://www.w3.org/2000/svg">
<rect width="50" height="50" fill="#00437C"/>
<rect width="50" height="50" fill="white" fill-opacity="0.2"/>
<g clip-path="url(#clip0_231:7756)">
<rect width="50" height="50" fill="white" fill-opacity="0.3"/>
<mask id="path-1-outside-1_231:7756" maskUnits="userSpaceOnUse" x="8.75656" y="9.50174" width="18.4706" height="15.1022" fill="black">
<rect fill="white" x="8.75656" y="9.50174" width="18.4706" height="15.1022"/>
<path fill-rule="evenodd" clip-rule="evenodd" d="M11.7874 15.9062C11.1494 15.625 10.3711 15.9822 10.5697 16.6505V16.6505L11.7118 20.4933C12.0264 21.5521 13.1398 22.1553 14.1986 21.8406L22.9267 19.2468C23.9855 18.9321 24.5888 17.8187 24.2741 16.7599L23.1321 12.9172V12.9172C22.9265 12.2255 22.0493 12.3635 21.6553 12.9679L18.353 18.0326L18.229 18.2431C18.0812 18.4528 17.765 18.5417 17.5323 18.4391L11.7874 15.9062ZM11.9171 14.1637C11.3788 14.3236 11.5231 14.9907 12.052 15.1797L14.4537 16.0381L16.1347 16.6389C16.9559 16.9323 17.8726 16.6599 18.4002 15.9656L21.0722 12.4494C21.3964 12.0226 21.159 11.4171 20.6452 11.5698V11.5698L11.9171 14.1637V14.1637Z"/>
</mask>
<path fill-rule="evenodd" clip-rule="evenodd" d="M11.7874 15.9062C11.1494 15.625 10.3711 15.9822 10.5697 16.6505V16.6505L11.7118 20.4933C12.0264 21.5521 13.1398 22.1553 14.1986 21.8406L22.9267 19.2468C23.9855 18.9321 24.5888 17.8187 24.2741 16.7599L23.1321 12.9172V12.9172C22.9265 12.2255 22.0493 12.3635 21.6553 12.9679L18.353 18.0326L18.229 18.2431C18.0812 18.4528 17.765 18.5417 17.5323 18.4391L11.7874 15.9062ZM11.9171 14.1637C11.3788 14.3236 11.5231 14.9907 12.052 15.1797L14.4537 16.0381L16.1347 16.6389C16.9559 16.9323 17.8726 16.6599 18.4002 15.9656L21.0722 12.4494C21.3964 12.0226 21.159 11.4171 20.6452 11.5698V11.5698L11.9171 14.1637V14.1637Z" fill="white" fill-opacity="0.6"/>
<path d="M18.353 18.0326L17.5153 17.4865L17.5029 17.5055L17.4913 17.5251L18.353 18.0326ZM18.229 18.2431L19.0463 18.8193L19.0699 18.7859L19.0906 18.7506L18.229 18.2431ZM17.5323 18.4391L17.1289 19.3542L17.1289 19.3542L17.5323 18.4391ZM14.4537 16.0381L14.7902 15.0964L14.7902 15.0964L14.4537 16.0381ZM21.0722 12.4494L20.276 11.8443L21.0722 12.4494ZM16.1347 16.6389L15.7982 17.5805L15.7982 17.5805L16.1347 16.6389ZM18.4002 15.9656L19.1964 16.5706L18.4002 15.9656ZM21.6553 12.9679L22.4929 13.5141L21.6553 12.9679ZM12.6703 20.2084L11.5283 16.3657L9.61118 16.9354L10.7532 20.7781L12.6703 20.2084ZM13.9138 20.8821C13.3844 21.0394 12.8276 20.7378 12.6703 20.2084L10.7532 20.7781C11.2252 22.3663 12.8953 23.2712 14.4835 22.7992L13.9138 20.8821ZM22.6418 18.2882L13.9138 20.8821L14.4835 22.7992L23.2116 20.2053L22.6418 18.2882ZM23.3155 17.0448C23.4729 17.5742 23.1712 18.1309 22.6418 18.2882L23.2116 20.2053C24.7998 19.7333 25.7047 18.0632 25.2327 16.475L23.3155 17.0448ZM22.1735 13.202L23.3155 17.0448L25.2327 16.475L24.0907 12.6323L22.1735 13.202ZM20.8176 12.4218L17.5153 17.4865L19.1906 18.5788L22.4929 13.5141L20.8176 12.4218ZM17.4913 17.5251L17.3673 17.7356L19.0906 18.7506L19.2146 18.5402L17.4913 17.5251ZM17.4117 17.6669C17.49 17.5559 17.5827 17.5122 17.6416 17.4956C17.7002 17.4791 17.8059 17.4669 17.9357 17.5241L17.1289 19.3542C17.8028 19.6513 18.6276 19.4131 19.0463 18.8193L17.4117 17.6669ZM17.9357 17.5241L12.1908 14.9912L11.3839 16.8213L17.1289 19.3542L17.9357 17.5241ZM11.7155 16.1214L14.1171 16.9797L14.7902 15.0964L12.3886 14.2381L11.7155 16.1214ZM14.1171 16.9797L15.7982 17.5805L16.4713 15.6972L14.7902 15.0964L14.1171 16.9797ZM19.1964 16.5706L21.8684 13.0544L20.276 11.8443L17.604 15.3605L19.1964 16.5706ZM12.202 15.1222L20.9301 12.5284L20.3603 10.6112L11.6323 13.2051L12.202 15.1222ZM21.8684 13.0544C22.2341 12.5731 22.3296 11.929 22.0858 11.3839C21.9603 11.1036 21.7345 10.8349 21.399 10.6775C21.057 10.517 20.6893 10.5134 20.3603 10.6112L20.9301 12.5284C20.858 12.5498 20.7127 12.5646 20.5495 12.4881C20.3929 12.4146 20.3025 12.2954 20.2601 12.2007C20.1824 12.0268 20.2345 11.8989 20.276 11.8443L21.8684 13.0544ZM15.7982 17.5805C17.03 18.0207 18.405 17.6121 19.1964 16.5706L17.604 15.3605C17.3402 15.7077 16.8819 15.8439 16.4713 15.6972L15.7982 17.5805ZM24.0907 12.6323C23.9783 12.2542 23.7493 11.9233 23.4081 11.7054C23.0761 11.4935 22.7091 11.4337 22.3844 11.4597C21.7562 11.5101 21.1694 11.8821 20.8176 12.4218L22.4929 13.5141C22.5089 13.4896 22.5299 13.4703 22.5494 13.4582C22.571 13.4449 22.5728 13.451 22.5443 13.4533C22.5139 13.4558 22.4293 13.4534 22.332 13.3912C22.2253 13.3231 22.1831 13.2343 22.1735 13.202L24.0907 12.6323ZM12.3886 14.2381C12.4383 14.2558 12.5417 14.3214 12.5709 14.4971C12.5869 14.594 12.5787 14.74 12.4894 14.8857C12.3962 15.0379 12.2684 15.1025 12.202 15.1222L11.6323 13.2051C11.2967 13.3048 10.9851 13.5128 10.784 13.8409C10.5869 14.1627 10.5469 14.5173 10.5978 14.8245C10.6968 15.421 11.1369 15.9146 11.7155 16.1214L12.3886 14.2381ZM11.5283 16.3657C11.5394 16.4029 11.5519 16.5033 11.4995 16.6207C11.4513 16.7285 11.3799 16.7802 11.348 16.7978C11.3179 16.8144 11.3095 16.81 11.3275 16.8095C11.3429 16.8091 11.3636 16.8123 11.3839 16.8213L12.1908 14.9912C11.61 14.7351 10.9262 14.7462 10.3816 15.0468C10.1003 15.202 9.83166 15.4508 9.67349 15.8047C9.51105 16.1683 9.50079 16.564 9.61118 16.9354L11.5283 16.3657Z" fill="#7096B5" mask="url(#path-1-outside-1_231:7756)"/>
<mask id="path-3-outside-2_231:7756" maskUnits="userSpaceOnUse" x="15.6368" y="8.77526" width="23.9079" height="18.9582" fill="black">
<rect fill="white" x="15.6368" y="8.77526" width="23.9079" height="18.9582"/>
<path fill-rule="evenodd" clip-rule="evenodd" d="M20.6735 11.9079C20.3328 11.415 19.6048 11.3531 19.4498 11.9319V11.9319L17.5176 19.1427C17.2317 20.2096 17.8649 21.3063 18.9318 21.5922L33.1901 25.4127C34.257 25.6986 35.3537 25.0654 35.6396 23.9985L37.5717 16.7876V16.7876C37.7356 16.176 37.031 15.856 36.4587 16.127L27.6861 20.282L27.3772 20.4459C27.0399 20.5909 26.5875 20.4626 26.3805 20.1631L20.6735 11.9079ZM21.8993 10.5176C21.4301 10.3919 21.2202 10.9414 21.5244 11.32L24.4234 14.9278L26.42 17.4127C26.9663 18.0925 27.89 18.34 28.7029 18.0244L36.094 15.155C36.5129 14.9924 36.5916 14.4544 36.1575 14.3381V14.3381L21.8993 10.5176V10.5176Z"/>
</mask>
<path fill-rule="evenodd" clip-rule="evenodd" d="M20.6735 11.9079C20.3328 11.415 19.6048 11.3531 19.4498 11.9319V11.9319L17.5176 19.1427C17.2317 20.2096 17.8649 21.3063 18.9318 21.5922L33.1901 25.4127C34.257 25.6986 35.3537 25.0654 35.6396 23.9985L37.5717 16.7876V16.7876C37.7356 16.176 37.031 15.856 36.4587 16.127L27.6861 20.282L27.3772 20.4459C27.0399 20.5909 26.5875 20.4626 26.3805 20.1631L20.6735 11.9079ZM21.8993 10.5176C21.4301 10.3919 21.2202 10.9414 21.5244 11.32L24.4234 14.9278L26.42 17.4127C26.9663 18.0925 27.89 18.34 28.7029 18.0244L36.094 15.155C36.5129 14.9924 36.5916 14.4544 36.1575 14.3381V14.3381L21.8993 10.5176V10.5176Z" fill="#E2EAF0"/>
<path d="M35.6396 23.9985L34.6737 23.7396L35.6396 23.9985ZM27.6861 20.282L27.2581 19.3782L27.2375 19.3879L27.2174 19.3986L27.6861 20.282ZM27.3772 20.4459L27.7722 21.3646L27.8098 21.3484L27.8459 21.3292L27.3772 20.4459ZM26.3805 20.1631L27.2031 19.5945L27.2031 19.5945L26.3805 20.1631ZM24.4234 14.9278L25.2029 14.3014L25.2029 14.3014L24.4234 14.9278ZM36.094 15.155L35.7321 14.2228L36.094 15.155ZM26.42 17.4127L25.6405 18.0391L26.42 17.4127ZM18.4836 19.4015L20.4157 12.1907L18.4838 11.673L16.5517 18.8839L18.4836 19.4015ZM19.1907 20.6263C18.6572 20.4833 18.3406 19.935 18.4836 19.4015L16.5517 18.8839C16.1229 20.4843 17.0726 22.1293 18.673 22.5581L19.1907 20.6263ZM33.4489 24.4467L19.1907 20.6263L18.673 22.5581L32.9313 26.3786L33.4489 24.4467ZM34.6737 23.7396C34.5307 24.2731 33.9824 24.5897 33.4489 24.4467L32.9313 26.3786C34.5317 26.8074 36.1767 25.8577 36.6055 24.2573L34.6737 23.7396ZM36.6058 16.5288L34.6737 23.7396L36.6055 24.2573L38.5377 17.0464L36.6058 16.5288ZM36.0307 15.2233L27.2581 19.3782L28.1142 21.1857L36.8868 17.0308L36.0307 15.2233ZM27.2174 19.3986L26.9085 19.5625L27.8459 21.3292L28.1548 21.1653L27.2174 19.3986ZM26.9823 19.5272C27.0213 19.5104 27.0518 19.5065 27.0687 19.5058C27.0854 19.5051 27.0962 19.5073 27.1029 19.5092C27.1095 19.511 27.1207 19.5151 27.1359 19.5254C27.1513 19.5358 27.1771 19.5569 27.2031 19.5945L25.5579 20.7318C26.0392 21.4279 27.003 21.6952 27.7722 21.3646L26.9823 19.5272ZM27.2031 19.5945L21.4961 11.3392L19.851 12.4765L25.5579 20.7318L27.2031 19.5945ZM20.7449 11.9464L23.6438 15.5542L25.2029 14.3014L22.304 10.6937L20.7449 11.9464ZM23.6438 15.5542L25.6405 18.0391L27.1996 16.7864L25.2029 14.3014L23.6438 15.5542ZM29.0648 18.9567L36.4559 16.0872L35.7321 14.2228L28.341 17.0922L29.0648 18.9567ZM21.6404 11.4836L35.8987 15.3041L36.4163 13.3722L22.1581 9.55171L21.6404 11.4836ZM36.4559 16.0872C36.989 15.8803 37.3804 15.4022 37.4401 14.8336C37.4707 14.5429 37.4121 14.2174 37.2167 13.9299C37.0177 13.6371 36.7256 13.4551 36.4163 13.3722L35.8987 15.3041C35.8065 15.2793 35.6673 15.2081 35.5625 15.054C35.4614 14.9052 35.4383 14.7462 35.4511 14.6248C35.4752 14.3949 35.6178 14.2671 35.7321 14.2228L36.4559 16.0872ZM25.6405 18.0391C26.4598 19.0588 27.8454 19.4301 29.0648 18.9567L28.341 17.0922C27.9345 17.25 27.4727 17.1263 27.1996 16.7864L25.6405 18.0391ZM38.5377 17.0464C38.6332 16.6898 38.6147 16.3119 38.4543 15.9667C38.2978 15.6301 38.0386 15.3932 37.7661 15.2462C37.2379 14.9613 36.5822 14.9621 36.0307 15.2233L36.8868 17.0308C36.9075 17.021 36.8903 17.0462 36.8165 17.0064C36.7712 16.982 36.6932 16.9229 36.6406 16.8098C36.5841 16.6882 36.5922 16.5797 36.6058 16.5288L38.5377 17.0464ZM22.304 10.6937C22.3664 10.7713 22.4247 10.93 22.3397 11.1267C22.2942 11.2318 22.1999 11.3561 22.041 11.4342C21.8761 11.5153 21.7244 11.5061 21.6404 11.4836L22.1581 9.55171C21.8395 9.46636 21.4857 9.4787 21.159 9.63923C20.8383 9.79683 20.6225 10.0587 20.504 10.3327C20.2728 10.8673 20.3783 11.4901 20.7449 11.9464L22.304 10.6937ZM20.4157 12.1907C20.4002 12.2486 20.35 12.3499 20.2383 12.4294C20.1338 12.5038 20.032 12.519 19.9726 12.5178C19.9155 12.5167 19.8841 12.5017 19.8737 12.4959C19.8612 12.4889 19.8547 12.4819 19.851 12.4765L21.4961 11.3392C21.1564 10.8479 20.5999 10.5296 20.0115 10.5182C19.7082 10.5123 19.3739 10.5898 19.0787 10.7999C18.7762 11.0152 18.5769 11.3257 18.4838 11.673L20.4157 12.1907Z" fill="#7096B5" mask="url(#path-3-outside-2_231:7756)"/>
<mask id="path-5-outside-3_231:7756" maskUnits="userSpaceOnUse" x="9" y="21" width="31" height="20" fill="black">
<rect fill="white" x="9" y="21" width="31" height="20"/>
<path fill-rule="evenodd" clip-rule="evenodd" d="M10.2225 23.2112C10.2007 23.1928 10.1666 23.199 10.1556 23.2253C10.0554 23.4636 10 23.7253 10 24V37.7222C10 38.8268 10.8954 39.7222 12 39.7222H37C38.1046 39.7222 39 38.8268 39 37.7222V24C39 23.6786 38.9242 23.3749 38.7895 23.1058C38.7872 23.1013 38.7814 23.1002 38.7775 23.1035V23.1035L25.6381 34.2637L25.2424 34.632C24.7967 34.9835 24.07 34.9729 23.6411 34.6086L10.2225 23.2112V23.2112ZM11.4127 22.0876C11.3293 22.1132 11.3287 22.2317 11.3991 22.2832V22.2832L18.6245 27.5749L23.2447 30.9586C23.9483 31.4738 24.9046 31.4738 25.6081 30.9586L37.6009 22.1755V22.1755C37.633 22.152 37.6281 22.1002 37.5901 22.0885C37.4036 22.031 37.2054 22 37 22H12C11.7956 22 11.5984 22.0307 11.4127 22.0876Z"/>
</mask>
<path fill-rule="evenodd" clip-rule="evenodd" d="M10.2225 23.2112C10.2007 23.1928 10.1666 23.199 10.1556 23.2253C10.0554 23.4636 10 23.7253 10 24V37.7222C10 38.8268 10.8954 39.7222 12 39.7222H37C38.1046 39.7222 39 38.8268 39 37.7222V24C39 23.6786 38.9242 23.3749 38.7895 23.1058C38.7872 23.1013 38.7814 23.1002 38.7775 23.1035V23.1035L25.6381 34.2637L25.2424 34.632C24.7967 34.9835 24.07 34.9729 23.6411 34.6086L10.2225 23.2112V23.2112ZM11.4127 22.0876C11.3293 22.1132 11.3287 22.2317 11.3991 22.2832V22.2832L18.6245 27.5749L23.2447 30.9586C23.9483 31.4738 24.9046 31.4738 25.6081 30.9586L37.6009 22.1755V22.1755C37.633 22.152 37.6281 22.1002 37.5901 22.0885C37.4036 22.031 37.2054 22 37 22H12C11.7956 22 11.5984 22.0307 11.4127 22.0876Z" fill="white"/>
<path d="M25.6381 34.2637L24.9907 33.5015L24.9734 33.5162L24.9567 33.5317L25.6381 34.2637ZM25.2424 34.632L25.8617 35.4172L25.8938 35.3918L25.9238 35.3639L25.2424 34.632ZM23.6411 34.6086L22.9937 35.3708L22.9937 35.3708L23.6411 34.6086ZM18.6245 27.5749L18.0336 28.3817L18.0336 28.3817L18.6245 27.5749ZM37.5901 22.0885L37.2955 23.0441L37.5901 22.0885ZM38.7895 23.1058L37.8953 23.5535L38.7895 23.1058ZM23.2447 30.9586L23.8356 30.1518L23.2447 30.9586ZM11 24C11 23.8608 11.0279 23.7307 11.0774 23.6129L9.23376 22.8377C9.08288 23.1964 9 23.5898 9 24H11ZM11 37.7222V24H9V37.7222H11ZM12 38.7222C11.4477 38.7222 11 38.2745 11 37.7222H9C9 39.3791 10.3431 40.7222 12 40.7222V38.7222ZM37 38.7222H12V40.7222H37V38.7222ZM38 37.7222C38 38.2745 37.5523 38.7222 37 38.7222V40.7222C38.6569 40.7222 40 39.3791 40 37.7222H38ZM38 24V37.7222H40V24H38ZM37.8953 23.5535C37.962 23.6868 38 23.8375 38 24H40C40 23.5197 39.8864 23.0631 39.6837 22.6581L37.8953 23.5535ZM38.1302 22.3413L24.9907 33.5015L26.2855 35.0259L39.4249 23.8656L38.1302 22.3413ZM24.9567 33.5317L24.5611 33.9L25.9238 35.3639L26.3194 34.9956L24.9567 33.5317ZM24.6232 33.8468C24.5465 33.9073 24.3498 33.8985 24.2885 33.8464L22.9937 35.3708C23.7902 36.0473 25.047 36.0597 25.8617 35.4172L24.6232 33.8468ZM24.2885 33.8464L10.8698 22.4491L9.57509 23.9734L22.9937 35.3708L24.2885 33.8464ZM10.8082 23.09L18.0336 28.3817L19.2153 26.7681L11.9899 21.4765L10.8082 23.09ZM18.0336 28.3817L22.6539 31.7653L23.8356 30.1518L19.2153 26.7681L18.0336 28.3817ZM26.199 31.7653L38.1918 22.9822L37.0101 21.3687L25.0173 30.1518L26.199 31.7653ZM37 23C37.1044 23 37.2033 23.0157 37.2955 23.0441L37.8848 21.1329C37.6039 21.0463 37.3064 21 37 21V23ZM12 23H37V21H12V23ZM11.706 23.0436C11.7977 23.0155 11.8961 23 12 23V21C11.6951 21 11.3992 21.0458 11.1195 21.1316L11.706 23.0436ZM38.1918 22.9822C38.5216 22.7407 38.6542 22.358 38.6155 22.0153C38.5753 21.6598 38.3356 21.2719 37.8848 21.1329L37.2955 23.0441C36.8827 22.9168 36.6644 22.5607 36.6281 22.2398C36.5933 21.9318 36.7124 21.5867 37.0101 21.3687L38.1918 22.9822ZM11.9899 21.4765C12.2483 21.6657 12.3593 21.956 12.3472 22.2212C12.334 22.5095 12.1519 22.9069 11.706 23.0436L11.1195 21.1316C10.5901 21.2939 10.366 21.7634 10.3492 22.1302C10.3336 22.4739 10.4795 22.8493 10.8082 23.09L11.9899 21.4765ZM39.6837 22.6581C39.385 22.0617 38.6178 21.927 38.1301 22.3414L39.425 23.8656C38.9449 24.2734 38.1894 24.141 37.8953 23.5535L39.6837 22.6581ZM22.6539 31.7653C23.7092 32.5382 25.1436 32.5382 26.199 31.7653L25.0173 30.1518C24.6655 30.4094 24.1873 30.4094 23.8356 30.1518L22.6539 31.7653ZM11.0774 23.6129C10.7956 24.2831 10.0064 24.3397 9.57509 23.9734L10.8698 22.4491C10.3951 22.0458 9.53767 22.115 9.23376 22.8377L11.0774 23.6129Z" fill="#7096B5" mask="url(#path-5-outside-3_231:7756)"/>
<path d="M25.0554 15H27.7372C24.967 13.3148 22.38 11.4865 20 9.53145V11.4292C21.603 12.6749 23.2902 13.8666 25.0554 15Z" fill="url(#paint0_linear_231:7756)"/>
<path d="M36.4815 15H40.7114C32.3109 11.2646 25.2129 6.22733 20 0.295028V3.31952C24.4828 7.84825 30.0667 11.8047 36.4815 15Z" fill="url(#paint1_linear_231:7756)"/>
<path d="M50.8738 15H54.2C54.8059 15 55.3419 14.6674 55.6681 14.1575C39.0372 9.82702 26.0404 0.286335 20.7472 -11.6224C20.2946 -11.2592 20 -10.6678 20 -10V-7.07614C25.9436 2.71898 37.0203 10.6262 50.8738 15Z" fill="url(#paint2_linear_231:7756)"/>
<path d="M25.0565 -12C29.9683 -1.4867 41.3919 6.97121 56 11.05V8.38707C43.3318 4.55345 33.3909 -2.8467 28.7735 -12H25.0565Z" fill="url(#paint3_linear_231:7756)"/>
<path d="M32.7091 -12C36.9661 -4.27243 45.3619 2.02057 56 5.55441V2.34999C47.6036 -0.78495 40.9084 -5.85164 37.1315 -12H32.7091Z" fill="url(#paint4_linear_231:7756)"/>
<path d="M40.5478 -12C43.8848 -7.04977 49.2965 -2.91638 56 -0.146574V-4.03421C51.8001 -6.11417 48.3001 -8.83811 45.7949 -12H40.5478Z" fill="url(#paint5_linear_231:7756)"/>
<path d="M48.733 -12C50.6637 -9.80178 53.128 -7.85684 56 -6.2531V-10C56 -11.1046 55.1941 -12 54.2 -12H48.733Z" fill="url(#paint6_linear_231:7756)"/>
<path fill-rule="evenodd" clip-rule="evenodd" d="M-0.5 58.5236C5.95217 58.5236 11.1827 53.0751 11.1827 46.3541C11.1827 39.6331 5.95217 34.1847 -0.5 34.1847C-6.95217 34.1847 -12.1827 39.6331 -12.1827 46.3541C-12.1827 53.0751 -6.95217 58.5236 -0.5 58.5236ZM-0.5 57.6222C5.47423 57.6222 10.3173 52.5773 10.3173 46.3541C10.3173 40.131 5.47423 35.0861 -0.5 35.0861C-6.47424 35.0861 -11.3173 40.131 -11.3173 46.3541C-11.3173 52.5773 -6.47424 57.6222 -0.5 57.6222Z" fill="url(#paint7_radial_231:7756)"/>
<path fill-rule="evenodd" clip-rule="evenodd" d="M-0.5 56.27C4.75733 56.27 9.01923 51.8305 9.01923 46.3541C9.01923 40.8777 4.75733 36.4383 -0.5 36.4383C-5.75733 36.4383 -10.0192 40.8777 -10.0192 46.3541C-10.0192 51.8305 -5.75733 56.27 -0.5 56.27ZM-0.499996 55.5355C4.3679 55.5355 8.31411 51.4249 8.31411 46.3541C8.31411 41.2834 4.3679 37.1728 -0.499996 37.1728C-5.36789 37.1728 -9.3141 41.2834 -9.3141 46.3541C-9.3141 51.4249 -5.36789 55.5355 -0.499996 55.5355Z" fill="url(#paint8_radial_231:7756)"/>
<path fill-rule="evenodd" clip-rule="evenodd" d="M-0.5 60.7772C7.14702 60.7772 13.3462 54.3198 13.3462 46.3541C13.3462 38.3885 7.14702 31.9311 -0.5 31.9311C-8.14702 31.9311 -14.3462 38.3885 -14.3462 46.3541C-14.3462 54.3198 -8.14702 60.7772 -0.5 60.7772ZM-0.500002 59.7088C6.58057 59.7088 12.3205 53.7297 12.3205 46.3541C12.3205 38.9785 6.58057 32.9994 -0.500002 32.9994C-7.58058 32.9994 -13.3205 38.9785 -13.3205 46.3541C-13.3205 53.7297 -7.58058 59.7088 -0.500002 59.7088Z" fill="url(#paint9_radial_231:7756)"/>
<path fill-rule="evenodd" clip-rule="evenodd" d="M-0.5 63.0308C8.34187 63.0308 15.5096 55.5644 15.5096 46.3541C15.5096 37.1438 8.34187 29.6774 -0.5 29.6774C-9.34187 29.6774 -16.5096 37.1438 -16.5096 46.3541C-16.5096 55.5644 -9.34187 63.0308 -0.5 63.0308ZM-0.500004 61.7955C7.68691 61.7955 14.3237 54.8822 14.3237 46.3541C14.3237 37.8261 7.68691 30.9127 -0.500004 30.9127C-8.68692 30.9127 -15.3237 37.8261 -15.3237 46.3541C-15.3237 54.8822 -8.68692 61.7955 -0.500004 61.7955Z" fill="url(#paint10_radial_231:7756)"/>
<path fill-rule="evenodd" clip-rule="evenodd" d="M-0.5 65.2844C9.53671 65.2844 17.6731 56.809 17.6731 46.3541C17.6731 35.8992 9.53671 27.4238 -0.5 27.4238C-10.5367 27.4238 -18.6731 35.8992 -18.6731 46.3541C-18.6731 56.809 -10.5367 65.2844 -0.5 65.2844ZM-0.500008 63.8822C8.79325 63.8822 16.3269 56.0346 16.3269 46.3541C16.3269 36.6736 8.79325 28.8261 -0.500008 28.8261C-9.79326 28.8261 -17.3269 36.6736 -17.3269 46.3541C-17.3269 56.0346 -9.79326 63.8822 -0.500008 63.8822Z" fill="url(#paint11_radial_231:7756)"/>
<path fill-rule="evenodd" clip-rule="evenodd" d="M-0.5 67.538C10.7316 67.538 19.8365 58.0537 19.8365 46.3541C19.8365 34.6546 10.7316 25.1702 -0.5 25.1702C-11.7316 25.1702 -20.8365 34.6546 -20.8365 46.3541C-20.8365 58.0537 -11.7316 67.538 -0.5 67.538ZM-0.500013 65.9688C9.89958 65.9688 18.3301 57.187 18.3301 46.3541C18.3301 35.5212 9.89958 26.7394 -0.500013 26.7394C-10.8996 26.7394 -19.3301 35.5212 -19.3301 46.3541C-19.3301 57.187 -10.8996 65.9688 -0.500013 65.9688Z" fill="url(#paint12_radial_231:7756)"/>
<path fill-rule="evenodd" clip-rule="evenodd" d="M-0.5 69.7916C11.9264 69.7916 22 59.2983 22 46.3541C22 33.41 11.9264 22.9166 -0.5 22.9166C-12.9264 22.9166 -23 33.41 -23 46.3541C-23 59.2983 -12.9264 69.7916 -0.5 69.7916ZM-0.500015 68.0555C11.0059 68.0555 20.3333 58.3395 20.3333 46.3541C20.3333 34.3688 11.0059 24.6527 -0.500015 24.6527C-12.0059 24.6527 -21.3334 34.3688 -21.3334 46.3541C-21.3334 58.3395 -12.0059 68.0555 -0.500015 68.0555Z" fill="url(#paint13_radial_231:7756)"/>
</g>
<defs>
<linearGradient id="paint0_linear_231:7756" x1="56" y1="1" x2="53.8078" y2="9.60884" gradientUnits="userSpaceOnUse">
<stop stop-color="white"/>
<stop offset="1" stop-color="white" stop-opacity="0"/>
</linearGradient>
<linearGradient id="paint1_linear_231:7756" x1="56" y1="1" x2="53.8078" y2="9.60884" gradientUnits="userSpaceOnUse">
<stop stop-color="white"/>
<stop offset="1" stop-color="white" stop-opacity="0"/>
</linearGradient>
<linearGradient id="paint2_linear_231:7756" x1="56" y1="1" x2="53.8078" y2="9.60884" gradientUnits="userSpaceOnUse">
<stop stop-color="white"/>
<stop offset="1" stop-color="white" stop-opacity="0"/>
</linearGradient>
<linearGradient id="paint3_linear_231:7756" x1="56" y1="1" x2="53.8078" y2="9.60884" gradientUnits="userSpaceOnUse">
<stop stop-color="white"/>
<stop offset="1" stop-color="white" stop-opacity="0"/>
</linearGradient>
<linearGradient id="paint4_linear_231:7756" x1="56" y1="1" x2="53.8078" y2="9.60884" gradientUnits="userSpaceOnUse">
<stop stop-color="white"/>
<stop offset="1" stop-color="white" stop-opacity="0"/>
</linearGradient>
<linearGradient id="paint5_linear_231:7756" x1="56" y1="1" x2="53.8078" y2="9.60884" gradientUnits="userSpaceOnUse">
<stop stop-color="white"/>
<stop offset="1" stop-color="white" stop-opacity="0"/>
</linearGradient>
<linearGradient id="paint6_linear_231:7756" x1="56" y1="1" x2="53.8078" y2="9.60884" gradientUnits="userSpaceOnUse">
<stop stop-color="white"/>
<stop offset="1" stop-color="white" stop-opacity="0"/>
</linearGradient>
<radialGradient id="paint7_radial_231:7756" cx="0" cy="0" r="1" gradientUnits="userSpaceOnUse" gradientTransform="translate(-0.5 46.3541) rotate(-47.9013) scale(23.866 23.7873)">
<stop offset="0.253706" stop-color="#7096B6"/>
<stop offset="1" stop-color="#7096B6" stop-opacity="0"/>
</radialGradient>
<radialGradient id="paint8_radial_231:7756" cx="0" cy="0" r="1" gradientUnits="userSpaceOnUse" gradientTransform="translate(-0.5 46.3541) rotate(-47.9013) scale(23.866 23.7873)">
<stop offset="0.253706" stop-color="#7096B6"/>
<stop offset="1" stop-color="#7096B6" stop-opacity="0"/>
</radialGradient>
<radialGradient id="paint9_radial_231:7756" cx="0" cy="0" r="1" gradientUnits="userSpaceOnUse" gradientTransform="translate(-0.5 46.3541) rotate(-47.9013) scale(23.866 23.7873)">
<stop offset="0.253706" stop-color="#7096B6"/>
<stop offset="1" stop-color="#7096B6" stop-opacity="0"/>
</radialGradient>
<radialGradient id="paint10_radial_231:7756" cx="0" cy="0" r="1" gradientUnits="userSpaceOnUse" gradientTransform="translate(-0.5 46.3541) rotate(-47.9013) scale(23.866 23.7873)">
<stop offset="0.253706" stop-color="#7096B6"/>
<stop offset="1" stop-color="#7096B6" stop-opacity="0"/>
</radialGradient>
<radialGradient id="paint11_radial_231:7756" cx="0" cy="0" r="1" gradientUnits="userSpaceOnUse" gradientTransform="translate(-0.5 46.3541) rotate(-47.9013) scale(23.866 23.7873)">
<stop offset="0.253706" stop-color="#7096B6"/>
<stop offset="1" stop-color="#7096B6" stop-opacity="0"/>
</radialGradient>
<radialGradient id="paint12_radial_231:7756" cx="0" cy="0" r="1" gradientUnits="userSpaceOnUse" gradientTransform="translate(-0.5 46.3541) rotate(-47.9013) scale(23.866 23.7873)">
<stop offset="0.253706" stop-color="#7096B6"/>
<stop offset="1" stop-color="#7096B6" stop-opacity="0"/>
</radialGradient>
<radialGradient id="paint13_radial_231:7756" cx="0" cy="0" r="1" gradientUnits="userSpaceOnUse" gradientTransform="translate(-0.5 46.3541) rotate(-47.9013) scale(23.866 23.7873)">
<stop offset="0.253706" stop-color="#7096B6"/>
<stop offset="1" stop-color="#7096B6" stop-opacity="0"/>
</radialGradient>
<clipPath id="clip0_231:7756">
<rect width="50" height="50" fill="white"/>
</clipPath>
</defs>
</svg>
