<svg width="50" height="50" viewBox="0 0 50 50" fill="none" xmlns="http://www.w3.org/2000/svg">
<rect width="50" height="50" fill="url(#paint0_linear_231:7758)"/>
<g clip-path="url(#clip0_231:7758)">
<path fill-rule="evenodd" clip-rule="evenodd" d="M25 41.375C33.8897 41.375 41.0962 33.8198 41.0962 24.5C41.0962 15.1802 33.8897 7.625 25 7.625C16.1103 7.625 8.90385 15.1802 8.90385 24.5C8.90385 33.8198 16.1103 41.375 25 41.375ZM25 40.125C33.2312 40.125 39.9039 33.1294 39.9039 24.5C39.9039 15.8705 33.2312 8.875 25 8.875C16.7688 8.875 10.0962 15.8705 10.0962 24.5C10.0962 33.1294 16.7688 40.125 25 40.125Z" fill="url(#paint1_radial_231:7758)"/>
<path fill-rule="evenodd" clip-rule="evenodd" d="M25 38.25C32.2434 38.25 38.1154 32.0939 38.1154 24.5C38.1154 16.9061 32.2434 10.75 25 10.75C17.7566 10.75 11.8846 16.9061 11.8846 24.5C11.8846 32.0939 17.7566 38.25 25 38.25ZM25 37.2315C31.7069 37.2315 37.1439 31.5314 37.1439 24.5C37.1439 17.4686 31.7069 11.7685 25 11.7685C18.2931 11.7685 12.8561 17.4686 12.8561 24.5C12.8561 31.5314 18.2931 37.2315 25 37.2315Z" fill="url(#paint2_radial_231:7758)"/>
<path fill-rule="evenodd" clip-rule="evenodd" d="M25 44.5C35.5359 44.5 44.0769 35.5457 44.0769 24.5C44.0769 13.4543 35.5359 4.5 25 4.5C14.4641 4.5 5.92308 13.4543 5.92308 24.5C5.92308 35.5457 14.4641 44.5 25 44.5ZM25 43.0185C34.7555 43.0185 42.6638 34.7275 42.6638 24.5C42.6638 14.2725 34.7555 5.98148 25 5.98148C15.2445 5.98148 7.33618 14.2725 7.33618 24.5C7.33618 34.7275 15.2445 43.0185 25 43.0185Z" fill="url(#paint3_radial_231:7758)"/>
<path fill-rule="evenodd" clip-rule="evenodd" d="M25 47.625C37.1821 47.625 47.0577 37.2716 47.0577 24.5C47.0577 11.7284 37.1821 1.375 25 1.375C12.8179 1.375 2.94231 11.7284 2.94231 24.5C2.94231 37.2716 12.8179 47.625 25 47.625ZM25 45.912C36.2797 45.912 45.4238 36.3255 45.4238 24.5C45.4238 12.6745 36.2797 3.08796 25 3.08796C13.7202 3.08796 4.57621 12.6745 4.57621 24.5C4.57621 36.3255 13.7202 45.912 25 45.912Z" fill="url(#paint4_radial_231:7758)"/>
<path fill-rule="evenodd" clip-rule="evenodd" d="M25 50.75C38.8284 50.75 50.0385 38.9975 50.0385 24.5C50.0385 10.0025 38.8284 -1.75 25 -1.75C11.1716 -1.75 -0.038461 10.0025 -0.038461 24.5C-0.038461 38.9975 11.1716 50.75 25 50.75ZM25 48.8055C37.804 48.8055 48.1838 37.9236 48.1838 24.5C48.1838 11.0764 37.804 0.194431 25 0.194431C12.196 0.194431 1.81623 11.0764 1.81623 24.5C1.81623 37.9236 12.196 48.8055 25 48.8055Z" fill="url(#paint5_radial_231:7758)"/>
<path fill-rule="evenodd" clip-rule="evenodd" d="M25 53.875C40.4746 53.875 53.0192 40.7234 53.0192 24.5C53.0192 8.27663 40.4746 -4.875 25 -4.875C9.52541 -4.875 -3.01923 8.27663 -3.01923 24.5C-3.01923 40.7234 9.52541 53.875 25 53.875ZM25 51.6991C39.3283 51.6991 50.9437 39.5216 50.9437 24.5C50.9437 9.47835 39.3283 -2.69909 25 -2.69909C10.6717 -2.69909 -0.94375 9.47835 -0.94375 24.5C-0.94375 39.5216 10.6717 51.6991 25 51.6991Z" fill="url(#paint6_radial_231:7758)"/>
<path fill-rule="evenodd" clip-rule="evenodd" d="M25 57C42.1208 57 56 42.4493 56 24.5C56 6.55075 42.1208 -8 25 -8C7.87917 -8 -6 6.55075 -6 24.5C-6 42.4493 7.87917 57 25 57ZM25 54.5926C40.8526 54.5926 53.7037 41.1197 53.7037 24.5C53.7037 7.8803 40.8526 -5.59262 25 -5.59262C9.14736 -5.59262 -3.70373 7.8803 -3.70373 24.5C-3.70373 41.1197 9.14736 54.5926 25 54.5926Z" fill="url(#paint7_radial_231:7758)"/>
<path fill-rule="evenodd" clip-rule="evenodd" d="M4.68381 9.41969C4.4673 9.32424 4.21747 9.46515 4.28487 9.69196V9.69196L5.99662 15.4518C6.15396 15.9812 6.71066 16.2828 7.24006 16.1255L17.8853 12.9619C18.4147 12.8046 18.7163 12.2479 18.559 11.7185L16.8472 5.9586V5.9586C16.7732 5.70961 16.4589 5.73545 16.317 5.95304L12.353 12.0326L12.229 12.2431C12.0812 12.4528 11.765 12.5417 11.5323 12.4391L4.68381 9.41969ZM4.62953 8.61738C4.6086 8.63365 4.61755 8.66706 4.64252 8.67599V8.67599L8.45368 10.0381L10.1347 10.6389C10.9559 10.9323 11.8726 10.6599 12.4002 9.96558L15.9789 5.25616V5.25616C15.9816 5.25257 15.9794 5.24733 15.9749 5.24694C15.8534 5.23638 15.7278 5.24805 15.6038 5.28491L4.95857 8.44853C4.83564 8.48506 4.725 8.54312 4.62953 8.61738Z" fill="white" fill-opacity="0.6"/>
<path fill-rule="evenodd" clip-rule="evenodd" d="M28.3525 33.0839C28.218 32.8893 27.9313 32.8786 27.8701 33.1072V33.1072L26.3149 38.9112C26.1719 39.4447 26.4885 39.993 27.022 40.136L37.7489 43.0103C38.2824 43.1532 38.8308 42.8366 38.9737 42.3032L40.5289 36.4991V36.4991C40.5961 36.2482 40.3147 36.1057 40.08 36.2169L33.5207 39.3235L33.3049 39.438C33.0692 39.5393 32.7533 39.4497 32.6087 39.2405L28.3525 33.0839ZM28.7261 32.3718C28.6997 32.3747 28.6899 32.4078 28.7065 32.4285V32.4285L31.2415 35.5835L32.3597 36.9751C32.9059 37.6549 33.8296 37.9024 34.6426 37.5868L40.1565 35.4461V35.4461C40.1607 35.4445 40.1615 35.4388 40.1579 35.4362C40.0599 35.3636 39.9468 35.3078 39.8218 35.2743L29.0948 32.4001C28.971 32.3669 28.8463 32.3584 28.7261 32.3718Z" fill="white" fill-opacity="0.6"/>
<path fill-rule="evenodd" clip-rule="evenodd" d="M5.30357 40.6347C5.26451 40.813 5.27375 41.004 5.34047 41.1883L6.64443 44.7894C6.83246 45.3087 7.40586 45.5772 7.92515 45.3892L15.0145 42.8221C15.5338 42.6341 15.8023 42.0607 15.6143 41.5414L14.3104 37.9403C14.2403 37.7469 14.1168 37.5882 13.9625 37.475L11.2105 42.2898L11.1294 42.448C11.0309 42.6067 10.8049 42.6848 10.6315 42.6202L5.30357 40.6347ZM5.52224 40.1959L8.292 41.0064L10.5625 41.6709L13.5041 37.2896C13.3491 37.2685 13.1869 37.2836 13.0296 37.3405L5.94026 39.9076C5.7724 39.9684 5.63075 40.0694 5.52224 40.1959Z" fill="white" fill-opacity="0.6"/>
<path fill-rule="evenodd" clip-rule="evenodd" d="M28.9036 4.79414C28.8721 4.74855 28.7977 4.74023 28.7737 4.79018C28.747 4.84562 28.7251 4.90433 28.7086 4.96593L26.2588 14.1086C26.1159 14.6421 26.4325 15.1904 26.9659 15.3334L43.156 19.6715C43.6895 19.8144 44.2378 19.4978 44.3808 18.9644L46.8306 9.82169C46.854 9.73405 46.8651 9.646 46.8649 9.55942C46.8647 9.512 46.8085 9.48776 46.7656 9.50806V9.50806L36.6861 14.282L36.3772 14.4459C36.0399 14.5909 35.5875 14.4626 35.3805 14.1631L28.9036 4.79414V4.79414ZM29.8541 4.24094C29.7727 4.226 29.7424 4.34678 29.7942 4.41126V4.41126L33.4234 8.92781L35.42 11.4127C35.9663 12.0925 36.89 12.34 37.7029 12.0244L46.1857 8.73116V8.73116C46.2349 8.71207 46.2473 8.63737 46.1975 8.61986C46.1733 8.61135 46.1486 8.6037 46.1235 8.59695L29.9333 4.25882C29.9069 4.25174 29.8805 4.2458 29.8541 4.24094Z" fill="white" fill-opacity="0.6"/>
<path fill-rule="evenodd" clip-rule="evenodd" d="M10.052 16.9933C10.0411 16.9701 10 16.9744 10 17V17V32.7222C10 33.2745 10.4477 33.7222 11 33.7222H38C38.5523 33.7222 39 33.2745 39 32.7222V17V17C39 16.9488 38.9221 16.9385 38.8922 16.98C38.8609 17.0237 38.8226 17.0651 38.7775 17.1035L25.6381 28.2637L25.2424 28.632C24.7967 28.9835 24.07 28.9729 23.6411 28.6086L10.2225 17.2112C10.1458 17.1461 10.089 17.0719 10.052 16.9933ZM11 16C10.9215 16 10.953 16.1116 11.0301 16.1264C11.1638 16.1521 11.2913 16.2043 11.3991 16.2832L18.6245 21.5749L23.2447 24.9586C23.9483 25.4738 24.9046 25.4738 25.6081 24.9586L37.6009 16.1755C37.7169 16.0905 37.8556 16.0366 38.0005 16.0133C38.0087 16.012 38.0083 16 38 16V16H11V16Z" fill="white"/>
<path d="M17.1899 27.0232C17.1688 27.0081 17.1435 27 17.1175 27V27C16.9946 27 16.9443 27.1614 17.0437 27.2337C17.3003 27.4203 17.5464 27.6155 17.7814 27.8186C17.8662 27.8919 18 27.8324 18 27.7203V27.7203C18 27.6828 17.9837 27.6472 17.9552 27.6228C17.7114 27.4145 17.456 27.2144 17.1899 27.0232Z" fill="#4DA1CA" fill-opacity="0.5"/>
<path d="M15.2882 27.0195C15.2652 27.0067 15.2393 27 15.213 27V27C15.0487 27 14.9926 27.2304 15.1355 27.3115C16.1239 27.8732 16.9859 28.561 17.6822 29.3443C17.7905 29.4662 18 29.3916 18 29.2285V29.2285C18 29.1864 17.9846 29.1456 17.9563 29.1143C17.2249 28.3052 16.3219 27.5962 15.2882 27.0195Z" fill="#4DA1CA" fill-opacity="0.5"/>
<path d="M13.1742 27.1175C12.9638 27.0366 12.7392 27 12.5137 27L12.3 27V27C12.1453 27 12.199 27.1975 12.3464 27.2445C14.8504 28.0424 16.8241 29.6375 17.7429 31.6227C17.8113 31.7705 18 31.7925 18 31.6296V31.6296L18 31.5987C18 31.2637 17.9206 30.9311 17.7394 30.6494C16.7563 29.1204 15.1479 27.8759 13.1742 27.1175Z" fill="#4DA1CA" fill-opacity="0.5"/>
<path d="M16.7234 32C16.9295 32 17.0681 31.7903 16.9746 31.6067C16.117 29.9232 14.431 28.564 12.3066 27.8318C12.1553 27.7797 12 27.8938 12 28.0539V28.0539C12 28.1559 12.0653 28.2463 12.1614 28.2805C14.1264 28.9803 15.6789 30.2576 16.4582 31.8323C16.5083 31.9336 16.6104 32 16.7234 32V32Z" fill="#4DA1CA" fill-opacity="0.5"/>
<path d="M15.3422 32C15.5906 32 15.7501 31.7399 15.618 31.5296C14.9161 30.4128 13.7784 29.4912 12.3766 28.8982C12.1957 28.8217 12 28.9577 12 29.1541V29.1541C12 29.2682 12.069 29.3707 12.1732 29.4169C13.422 29.9708 14.4302 30.8142 15.0458 31.8292C15.109 31.9334 15.2204 32 15.3422 32V32Z" fill="#4DA1CA" fill-opacity="0.5"/>
<path d="M13.8974 32C14.1949 32 14.372 31.6777 14.1837 31.4474C13.7332 30.8967 13.1488 30.4184 12.4659 30.0403C12.2525 29.9221 12 30.083 12 30.327V30.327C12 30.449 12.0669 30.5607 12.1718 30.6232C12.7339 30.9576 13.2136 31.3712 13.5831 31.8426C13.6592 31.9397 13.7741 32 13.8974 32V32Z" fill="#4DA1CA" fill-opacity="0.5"/>
<path d="M12.3448 32C12.6954 32 12.8762 31.6061 12.6092 31.3789C12.594 31.3659 12.5786 31.353 12.5632 31.3402C12.3303 31.1469 12 31.327 12 31.6296V31.6296C12 31.8342 12.1343 32 12.3 32L12.3448 32Z" fill="#4DA1CA" fill-opacity="0.5"/>
</g>
<defs>
<linearGradient id="paint0_linear_231:7758" x1="25" y1="0" x2="25" y2="50" gradientUnits="userSpaceOnUse">
<stop stop-color="#005580"/>
<stop offset="1" stop-color="#007FBF"/>
</linearGradient>
<radialGradient id="paint1_radial_231:7758" cx="0" cy="0" r="1" gradientUnits="userSpaceOnUse" gradientTransform="translate(25 24.5) rotate(-48.0845) scale(32.999 32.8682)">
<stop offset="0.253706" stop-color="white" stop-opacity="0.48"/>
<stop offset="1" stop-color="#7096B6" stop-opacity="0"/>
</radialGradient>
<radialGradient id="paint2_radial_231:7758" cx="0" cy="0" r="1" gradientUnits="userSpaceOnUse" gradientTransform="translate(25 24.5) rotate(-48.0845) scale(32.999 32.8682)">
<stop offset="0.253706" stop-color="white" stop-opacity="0.48"/>
<stop offset="1" stop-color="#7096B6" stop-opacity="0"/>
</radialGradient>
<radialGradient id="paint3_radial_231:7758" cx="0" cy="0" r="1" gradientUnits="userSpaceOnUse" gradientTransform="translate(25 24.5) rotate(-48.0845) scale(32.999 32.8682)">
<stop offset="0.253706" stop-color="white" stop-opacity="0.48"/>
<stop offset="1" stop-color="#7096B6" stop-opacity="0"/>
</radialGradient>
<radialGradient id="paint4_radial_231:7758" cx="0" cy="0" r="1" gradientUnits="userSpaceOnUse" gradientTransform="translate(25 24.5) rotate(-48.0845) scale(32.999 32.8682)">
<stop offset="0.253706" stop-color="white" stop-opacity="0.48"/>
<stop offset="1" stop-color="#7096B6" stop-opacity="0"/>
</radialGradient>
<radialGradient id="paint5_radial_231:7758" cx="0" cy="0" r="1" gradientUnits="userSpaceOnUse" gradientTransform="translate(25 24.5) rotate(-48.0845) scale(32.999 32.8682)">
<stop offset="0.253706" stop-color="white" stop-opacity="0.48"/>
<stop offset="1" stop-color="#7096B6" stop-opacity="0"/>
</radialGradient>
<radialGradient id="paint6_radial_231:7758" cx="0" cy="0" r="1" gradientUnits="userSpaceOnUse" gradientTransform="translate(25 24.5) rotate(-48.0845) scale(32.999 32.8682)">
<stop offset="0.253706" stop-color="white" stop-opacity="0.48"/>
<stop offset="1" stop-color="#7096B6" stop-opacity="0"/>
</radialGradient>
<radialGradient id="paint7_radial_231:7758" cx="0" cy="0" r="1" gradientUnits="userSpaceOnUse" gradientTransform="translate(25 24.5) rotate(-48.0845) scale(32.999 32.8682)">
<stop offset="0.253706" stop-color="white" stop-opacity="0.48"/>
<stop offset="1" stop-color="#7096B6" stop-opacity="0"/>
</radialGradient>
<clipPath id="clip0_231:7758">
<rect width="50" height="50" fill="white"/>
</clipPath>
</defs>
</svg>
