<svg width="50" height="50" viewBox="0 0 50 50" fill="none" xmlns="http://www.w3.org/2000/svg">
<rect width="50" height="50" fill="url(#paint0_linear_231:7602)"/>
<g clip-path="url(#clip0_231:7602)">
<path fill-rule="evenodd" clip-rule="evenodd" d="M25 5.36539C37.9044 5.36539 48.3654 -5.09565 48.3654 -18C48.3654 -30.9043 37.9044 -41.3654 25 -41.3654C12.0957 -41.3654 1.63462 -30.9043 1.63462 -18C1.63462 -5.09565 12.0957 5.36539 25 5.36539ZM25 3.63462C36.9485 3.63462 46.6346 -6.05153 46.6346 -18C46.6346 -29.9485 36.9485 -39.6346 25 -39.6346C13.0515 -39.6346 3.36539 -29.9485 3.36539 -18C3.36539 -6.05153 13.0515 3.63462 25 3.63462Z" fill="url(#paint1_radial_231:7602)"/>
<path fill-rule="evenodd" clip-rule="evenodd" d="M25 1.03846C35.5147 1.03846 44.0385 -7.48535 44.0385 -18C44.0385 -28.5147 35.5147 -37.0385 25 -37.0385C14.4853 -37.0385 5.96154 -28.5147 5.96154 -18C5.96154 -7.48535 14.4853 1.03846 25 1.03846ZM25 -0.371788C34.7358 -0.371788 42.6282 -8.26421 42.6282 -18C42.6282 -27.7358 34.7358 -35.6282 25 -35.6282C15.2642 -35.6282 7.3718 -27.7358 7.3718 -18C7.3718 -8.26421 15.2642 -0.371788 25 -0.371788Z" fill="url(#paint2_radial_231:7602)"/>
<path fill-rule="evenodd" clip-rule="evenodd" d="M25 9.69231C40.294 9.69231 52.6923 -2.70596 52.6923 -18C52.6923 -33.294 40.294 -45.6923 25 -45.6923C9.70596 -45.6923 -2.69231 -33.294 -2.69231 -18C-2.69231 -2.70596 9.70596 9.69231 25 9.69231ZM25 7.64102C39.1611 7.64102 50.641 -3.83885 50.641 -18C50.641 -32.1611 39.1611 -43.641 25 -43.641C10.8388 -43.641 -0.641033 -32.1611 -0.641033 -18C-0.641033 -3.83885 10.8388 7.64102 25 7.64102Z" fill="url(#paint3_radial_231:7602)"/>
<path fill-rule="evenodd" clip-rule="evenodd" d="M25 14.0192C42.6837 14.0192 57.0192 -0.316265 57.0192 -18C57.0192 -35.6837 42.6837 -50.0192 25 -50.0192C7.31627 -50.0192 -7.01923 -35.6837 -7.01923 -18C-7.01923 -0.316265 7.31627 14.0192 25 14.0192ZM25 11.6474C41.3738 11.6474 54.6474 -1.62618 54.6474 -18C54.6474 -34.3738 41.3738 -47.6474 25 -47.6474C8.62617 -47.6474 -4.64744 -34.3738 -4.64744 -18C-4.64744 -1.62618 8.62617 11.6474 25 11.6474Z" fill="url(#paint4_radial_231:7602)"/>
<path fill-rule="evenodd" clip-rule="evenodd" d="M25 18.3462C45.0734 18.3462 61.3462 2.07343 61.3462 -18C61.3462 -38.0734 45.0734 -54.3462 25 -54.3462C4.92657 -54.3462 -11.3462 -38.0734 -11.3462 -18C-11.3462 2.07343 4.92657 18.3462 25 18.3462ZM25 15.6538C43.5865 15.6538 58.6538 0.586491 58.6538 -18C58.6538 -36.5865 43.5865 -51.6539 25 -51.6539C6.41348 -51.6539 -8.65386 -36.5865 -8.65386 -18C-8.65386 0.586491 6.41348 15.6538 25 15.6538Z" fill="url(#paint5_radial_231:7602)"/>
<path fill-rule="evenodd" clip-rule="evenodd" d="M25 22.6731C47.4631 22.6731 65.6731 4.46312 65.6731 -18C65.6731 -40.4631 47.4631 -58.6731 25 -58.6731C2.53688 -58.6731 -15.6731 -40.4631 -15.6731 -18C-15.6731 4.46312 2.53688 22.6731 25 22.6731ZM25 19.6602C45.7992 19.6602 62.6602 2.79916 62.6602 -18C62.6602 -38.7992 45.7992 -55.6603 25 -55.6603C4.20079 -55.6603 -12.6603 -38.7992 -12.6603 -18C-12.6603 2.79916 4.20079 19.6602 25 19.6602Z" fill="url(#paint6_radial_231:7602)"/>
<path fill-rule="evenodd" clip-rule="evenodd" d="M25 27C49.8528 27 70 6.85281 70 -18C70 -42.8528 49.8528 -63 25 -63C0.147186 -63 -20 -42.8528 -20 -18C-20 6.85281 0.147186 27 25 27ZM25 23.6666C48.0118 23.6666 66.6666 5.01183 66.6666 -18C66.6666 -41.0119 48.0118 -59.6667 25 -59.6667C1.9881 -59.6667 -16.6667 -41.0119 -16.6667 -18C-16.6667 5.01183 1.9881 23.6666 25 23.6666Z" fill="url(#paint7_radial_231:7602)"/>
<path fill-rule="evenodd" clip-rule="evenodd" d="M25 86.8846C46.794 86.8846 64.4615 76.1911 64.4615 63C64.4615 49.8089 46.794 39.1154 25 39.1154C3.20599 39.1154 -14.4615 49.8089 -14.4615 63C-14.4615 76.1911 3.20599 86.8846 25 86.8846ZM25 85.1154C45.1796 85.1154 61.5385 75.214 61.5385 63C61.5385 50.786 45.1796 40.8846 25 40.8846C4.82036 40.8846 -11.5385 50.786 -11.5385 63C-11.5385 75.214 4.82036 85.1154 25 85.1154Z" fill="url(#paint8_radial_231:7602)"/>
<path fill-rule="evenodd" clip-rule="evenodd" d="M25 82.4615C42.7581 82.4615 57.1538 73.7483 57.1538 63C57.1538 52.2517 42.7581 43.5385 25 43.5385C7.24192 43.5385 -7.15385 52.2517 -7.15385 63C-7.15385 73.7483 7.24192 82.4615 25 82.4615ZM25 81.0199C41.4427 81.0199 54.7721 72.9521 54.7721 63C54.7721 53.0479 41.4427 44.9801 25 44.9801C8.55734 44.9801 -4.77207 53.0479 -4.77207 63C-4.77207 72.9521 8.55734 81.0199 25 81.0199Z" fill="url(#paint9_radial_231:7602)"/>
<path fill-rule="evenodd" clip-rule="evenodd" d="M25 91.3077C50.8299 91.3077 71.7692 78.6339 71.7692 63C71.7692 47.3661 50.8299 34.6923 25 34.6923C-0.829933 34.6923 -21.7692 47.3661 -21.7692 63C-21.7692 78.6339 -0.829933 91.3077 25 91.3077ZM25 89.2108C48.9166 89.2108 68.3048 77.4758 68.3048 63C68.3048 48.5242 48.9166 36.7892 25 36.7892C1.08338 36.7892 -18.3049 48.5242 -18.3049 63C-18.3049 77.4758 1.08338 89.2108 25 89.2108Z" fill="url(#paint10_radial_231:7602)"/>
<path fill-rule="evenodd" clip-rule="evenodd" d="M25 95.7308C54.8659 95.7308 79.0769 81.0767 79.0769 63C79.0769 44.9233 54.8659 30.2692 25 30.2692C-4.86586 30.2692 -29.0769 44.9233 -29.0769 63C-29.0769 81.0767 -4.86586 95.7308 25 95.7308ZM25 93.3063C52.6535 93.3063 75.0712 79.7377 75.0712 63C75.0712 46.2623 52.6535 32.6937 25 32.6937C-2.65359 32.6937 -25.0712 46.2623 -25.0712 63C-25.0712 79.7377 -2.65359 93.3063 25 93.3063Z" fill="url(#paint11_radial_231:7602)"/>
<path fill-rule="evenodd" clip-rule="evenodd" d="M25 100.154C58.9018 100.154 86.3846 83.5195 86.3846 63C86.3846 42.4805 58.9018 25.8462 25 25.8462C-8.90179 25.8462 -36.3846 42.4805 -36.3846 63C-36.3846 83.5195 -8.90179 100.154 25 100.154ZM25 97.4017C56.3905 97.4017 81.8376 81.9995 81.8376 63C81.8376 44.0004 56.3905 28.5983 25 28.5983C-6.39057 28.5983 -31.8376 44.0004 -31.8376 63C-31.8376 81.9995 -6.39057 97.4017 25 97.4017Z" fill="url(#paint12_radial_231:7602)"/>
<path fill-rule="evenodd" clip-rule="evenodd" d="M25 104.577C62.9377 104.577 93.6923 85.9623 93.6923 63C93.6923 40.0377 62.9377 21.4231 25 21.4231C-12.9377 21.4231 -43.6923 40.0377 -43.6923 63C-43.6923 85.9623 -12.9377 104.577 25 104.577ZM25 101.497C60.1275 101.497 88.6039 84.2614 88.6039 63C88.6039 41.7386 60.1275 24.5028 25 24.5028C-10.1276 24.5028 -38.604 41.7386 -38.604 63C-38.604 84.2614 -10.1276 101.497 25 101.497Z" fill="url(#paint13_radial_231:7602)"/>
<path fill-rule="evenodd" clip-rule="evenodd" d="M25 109C66.9736 109 101 88.4051 101 63C101 37.5949 66.9736 17 25 17C-16.9736 17 -51 37.5949 -51 63C-51 88.4051 -16.9736 109 25 109ZM24.9999 105.593C63.8644 105.593 95.3703 86.5232 95.3703 63C95.3703 39.4767 63.8644 20.4074 24.9999 20.4074C-13.8645 20.4074 -45.3704 39.4767 -45.3704 63C-45.3704 86.5232 -13.8645 105.593 24.9999 105.593Z" fill="url(#paint14_radial_231:7602)"/>
</g>
<defs>
<linearGradient id="paint0_linear_231:7602" x1="25" y1="0" x2="25" y2="50" gradientUnits="userSpaceOnUse">
<stop stop-color="#462106"/>
<stop offset="1" stop-color="#CD6B26"/>
</linearGradient>
<radialGradient id="paint1_radial_231:7602" cx="0" cy="0" r="1" gradientUnits="userSpaceOnUse" gradientTransform="translate(25 -18) rotate(90) scale(28.5)">
<stop offset="0.369792" stop-color="white"/>
<stop offset="1" stop-color="white" stop-opacity="0"/>
</radialGradient>
<radialGradient id="paint2_radial_231:7602" cx="0" cy="0" r="1" gradientUnits="userSpaceOnUse" gradientTransform="translate(25 -18) rotate(90) scale(28.5)">
<stop offset="0.369792" stop-color="white"/>
<stop offset="1" stop-color="white" stop-opacity="0"/>
</radialGradient>
<radialGradient id="paint3_radial_231:7602" cx="0" cy="0" r="1" gradientUnits="userSpaceOnUse" gradientTransform="translate(25 -18) rotate(90) scale(28.5)">
<stop offset="0.369792" stop-color="white"/>
<stop offset="1" stop-color="white" stop-opacity="0"/>
</radialGradient>
<radialGradient id="paint4_radial_231:7602" cx="0" cy="0" r="1" gradientUnits="userSpaceOnUse" gradientTransform="translate(25 -18) rotate(90) scale(28.5)">
<stop offset="0.369792" stop-color="white"/>
<stop offset="1" stop-color="white" stop-opacity="0"/>
</radialGradient>
<radialGradient id="paint5_radial_231:7602" cx="0" cy="0" r="1" gradientUnits="userSpaceOnUse" gradientTransform="translate(25 -18) rotate(90) scale(28.5)">
<stop offset="0.369792" stop-color="white"/>
<stop offset="1" stop-color="white" stop-opacity="0"/>
</radialGradient>
<radialGradient id="paint6_radial_231:7602" cx="0" cy="0" r="1" gradientUnits="userSpaceOnUse" gradientTransform="translate(25 -18) rotate(90) scale(28.5)">
<stop offset="0.369792" stop-color="white"/>
<stop offset="1" stop-color="white" stop-opacity="0"/>
</radialGradient>
<radialGradient id="paint7_radial_231:7602" cx="0" cy="0" r="1" gradientUnits="userSpaceOnUse" gradientTransform="translate(25 -18) rotate(90) scale(28.5)">
<stop offset="0.369792" stop-color="white"/>
<stop offset="1" stop-color="white" stop-opacity="0"/>
</radialGradient>
<radialGradient id="paint8_radial_231:7602" cx="0" cy="0" r="1" gradientUnits="userSpaceOnUse" gradientTransform="translate(25 63) rotate(90) scale(29.1333 48.1333)">
<stop offset="0.369792" stop-color="white"/>
<stop offset="1" stop-color="white" stop-opacity="0"/>
</radialGradient>
<radialGradient id="paint9_radial_231:7602" cx="0" cy="0" r="1" gradientUnits="userSpaceOnUse" gradientTransform="translate(25 63) rotate(90) scale(29.1333 48.1333)">
<stop offset="0.369792" stop-color="white"/>
<stop offset="1" stop-color="white" stop-opacity="0"/>
</radialGradient>
<radialGradient id="paint10_radial_231:7602" cx="0" cy="0" r="1" gradientUnits="userSpaceOnUse" gradientTransform="translate(25 63) rotate(90) scale(29.1333 48.1333)">
<stop offset="0.369792" stop-color="white"/>
<stop offset="1" stop-color="white" stop-opacity="0"/>
</radialGradient>
<radialGradient id="paint11_radial_231:7602" cx="0" cy="0" r="1" gradientUnits="userSpaceOnUse" gradientTransform="translate(25 63) rotate(90) scale(29.1333 48.1333)">
<stop offset="0.369792" stop-color="white"/>
<stop offset="1" stop-color="white" stop-opacity="0"/>
</radialGradient>
<radialGradient id="paint12_radial_231:7602" cx="0" cy="0" r="1" gradientUnits="userSpaceOnUse" gradientTransform="translate(25 63) rotate(90) scale(29.1333 48.1333)">
<stop offset="0.369792" stop-color="white"/>
<stop offset="1" stop-color="white" stop-opacity="0"/>
</radialGradient>
<radialGradient id="paint13_radial_231:7602" cx="0" cy="0" r="1" gradientUnits="userSpaceOnUse" gradientTransform="translate(25 63) rotate(90) scale(29.1333 48.1333)">
<stop offset="0.369792" stop-color="white"/>
<stop offset="1" stop-color="white" stop-opacity="0"/>
</radialGradient>
<radialGradient id="paint14_radial_231:7602" cx="0" cy="0" r="1" gradientUnits="userSpaceOnUse" gradientTransform="translate(25 63) rotate(90) scale(29.1333 48.1333)">
<stop offset="0.369792" stop-color="white"/>
<stop offset="1" stop-color="white" stop-opacity="0"/>
</radialGradient>
<clipPath id="clip0_231:7602">
<rect width="50" height="50" fill="white"/>
</clipPath>
</defs>
</svg>
