<svg width="50" height="50" viewBox="0 0 50 50" fill="none" xmlns="http://www.w3.org/2000/svg">
<rect width="50" height="50" fill="#6F3500"/>
<rect width="50" height="50" fill="white" fill-opacity="0.2"/>
<rect width="50" height="50" fill="white" fill-opacity="0.3"/>
<path d="M12.0554 35H14.7372C11.967 33.3148 9.38005 31.4865 7 29.5315V31.4292C8.60295 32.6749 10.2902 33.8666 12.0554 35Z" fill="url(#paint0_linear)"/>
<path d="M23.4815 35H27.7114C19.3109 31.2646 12.2129 26.2273 7 20.295V23.3195C11.4828 27.8483 17.0667 31.8047 23.4815 35Z" fill="url(#paint1_linear)"/>
<path d="M37.8738 35H41.2C41.8059 35 42.3419 34.6674 42.6681 34.1575C26.0372 29.827 13.0404 20.2863 7.74721 8.37758C7.29457 8.74083 7 9.33219 7 10V12.9239C12.9436 22.719 24.0203 30.6262 37.8738 35Z" fill="url(#paint2_linear)"/>
<path d="M12.0565 8C16.9683 18.5133 28.3919 26.9712 43 31.05V28.3871C30.3318 24.5535 20.3909 17.1533 15.7735 8H12.0565Z" fill="url(#paint3_linear)"/>
<path d="M19.7091 8C23.9661 15.7276 32.3619 22.0206 43 25.5544V22.35C34.6036 19.215 27.9084 14.1484 24.1315 8H19.7091Z" fill="url(#paint4_linear)"/>
<path d="M27.5478 8C30.8848 12.9502 36.2965 17.0836 43 19.8534V15.9658C38.8001 13.8858 35.3001 11.1619 32.7949 8H27.5478Z" fill="url(#paint5_linear)"/>
<path d="M35.733 8C37.6637 10.1982 40.128 12.1432 43 13.7469V10C43 8.89543 42.1941 8 41.2 8H35.733Z" fill="url(#paint6_linear)"/>
<path d="M10 39C10 38.4477 10.3358 38 10.75 38H39.25C39.6642 38 40 38.4477 40 39V40C40 40.5523 39.6642 41 39.25 41H10.75C10.3358 41 10 40.5523 10 40V39Z" fill="url(#paint7_linear)"/>
<rect x="7.5" y="8.5" width="35" height="26" rx="1.5" stroke="white"/>
<rect x="11" y="18" width="9" height="9" rx="4.5" fill="white"/>
<path d="M11 33.5C11 31.0147 13.0147 29 15.5 29C17.9853 29 20 31.0147 20 33.5V34H11V33.5Z" fill="white"/>
<defs>
<linearGradient id="paint0_linear" x1="43" y1="21" x2="40.8078" y2="29.6088" gradientUnits="userSpaceOnUse">
<stop stop-color="white"/>
<stop offset="1" stop-color="white" stop-opacity="0"/>
</linearGradient>
<linearGradient id="paint1_linear" x1="43" y1="21" x2="40.8078" y2="29.6088" gradientUnits="userSpaceOnUse">
<stop stop-color="white"/>
<stop offset="1" stop-color="white" stop-opacity="0"/>
</linearGradient>
<linearGradient id="paint2_linear" x1="43" y1="21" x2="40.8078" y2="29.6088" gradientUnits="userSpaceOnUse">
<stop stop-color="white"/>
<stop offset="1" stop-color="white" stop-opacity="0"/>
</linearGradient>
<linearGradient id="paint3_linear" x1="43" y1="21" x2="40.8078" y2="29.6088" gradientUnits="userSpaceOnUse">
<stop stop-color="white"/>
<stop offset="1" stop-color="white" stop-opacity="0"/>
</linearGradient>
<linearGradient id="paint4_linear" x1="43" y1="21" x2="40.8078" y2="29.6088" gradientUnits="userSpaceOnUse">
<stop stop-color="white"/>
<stop offset="1" stop-color="white" stop-opacity="0"/>
</linearGradient>
<linearGradient id="paint5_linear" x1="43" y1="21" x2="40.8078" y2="29.6088" gradientUnits="userSpaceOnUse">
<stop stop-color="white"/>
<stop offset="1" stop-color="white" stop-opacity="0"/>
</linearGradient>
<linearGradient id="paint6_linear" x1="43" y1="21" x2="40.8078" y2="29.6088" gradientUnits="userSpaceOnUse">
<stop stop-color="white"/>
<stop offset="1" stop-color="white" stop-opacity="0"/>
</linearGradient>
<linearGradient id="paint7_linear" x1="40" y1="8.5" x2="-4.89528" y2="48.6031" gradientUnits="userSpaceOnUse">
<stop offset="0.369792" stop-color="white"/>
<stop offset="1" stop-color="white" stop-opacity="0"/>
</linearGradient>
</defs>
</svg>
