<svg width="50" height="50" viewBox="0 0 50 50" fill="none" xmlns="http://www.w3.org/2000/svg">
<rect width="50" height="50" fill="#996500"/>
<g clip-path="url(#clip0_327:7446)">
<rect width="50" height="50" fill="white" fill-opacity="0.3"/>
<rect x="50" y="11" width="50" height="11" transform="rotate(-180 50 11)" fill="#996500"/>
<rect x="50" y="50" width="50" height="36" rx="3" transform="rotate(-180 50 50)" fill="url(#paint0_linear_327:7446)"/>
<path d="M47 11L21 11L21 5C21 3.89543 21.8954 3 23 3L45 3C46.1046 3 47 3.89543 47 5L47 11Z" fill="#B8934C"/>
<path d="M44 14L24 14L24 10C24 8.89543 24.8954 8 26 8L42 8C43.1046 8 44 8.89543 44 10L44 14Z" fill="white" fill-opacity="0.3"/>
</g>
<defs>
<linearGradient id="paint0_linear_327:7446" x1="75" y1="50" x2="75" y2="86" gradientUnits="userSpaceOnUse">
<stop stop-color="white" stop-opacity="0"/>
<stop offset="1" stop-color="white" stop-opacity="0.3"/>
</linearGradient>
<clipPath id="clip0_327:7446">
<rect width="50" height="50" fill="white"/>
</clipPath>
</defs>
</svg>
