<svg width="50" height="50" viewBox="0 0 50 50" fill="none" xmlns="http://www.w3.org/2000/svg">
<rect width="50" height="50" fill="url(#paint0_linear_306:7440)"/>
<g clip-path="url(#clip0_306:7440)">
<path d="M25.0554 15H27.7372C24.967 13.3148 22.38 11.4865 20 9.53145V11.4292C21.603 12.6749 23.2902 13.8666 25.0554 15Z" fill="url(#paint1_linear_306:7440)"/>
<path d="M36.4815 15H40.7114C32.3109 11.2646 25.2129 6.22733 20 0.295028V3.31952C24.4828 7.84825 30.0667 11.8047 36.4815 15Z" fill="url(#paint2_linear_306:7440)"/>
<path d="M50.8738 15H54.2C54.8059 15 55.3419 14.6674 55.6681 14.1575C39.0372 9.82702 26.0404 0.286335 20.7472 -11.6224C20.2946 -11.2592 20 -10.6678 20 -10V-7.07614C25.9436 2.71898 37.0203 10.6262 50.8738 15Z" fill="url(#paint3_linear_306:7440)"/>
<path d="M25.0565 -12C29.9683 -1.4867 41.3919 6.97121 56 11.05V8.38707C43.3318 4.55345 33.3909 -2.8467 28.7735 -12H25.0565Z" fill="url(#paint4_linear_306:7440)"/>
<path d="M32.7091 -12C36.9661 -4.27243 45.3619 2.02057 56 5.55441V2.34999C47.6036 -0.78495 40.9084 -5.85164 37.1315 -12H32.7091Z" fill="url(#paint5_linear_306:7440)"/>
<path d="M40.5478 -12C43.8848 -7.04977 49.2965 -2.91638 56 -0.146574V-4.03421C51.8001 -6.11417 48.3001 -8.83811 45.7949 -12H40.5478Z" fill="url(#paint6_linear_306:7440)"/>
<path d="M48.733 -12C50.6637 -9.80178 53.128 -7.85684 56 -6.2531V-10C56 -11.1046 55.1941 -12 54.2 -12H48.733Z" fill="url(#paint7_linear_306:7440)"/>
</g>
<defs>
<linearGradient id="paint0_linear_306:7440" x1="25" y1="0" x2="25" y2="50" gradientUnits="userSpaceOnUse">
<stop stop-color="#BF0000"/>
<stop offset="1" stop-color="#580505"/>
</linearGradient>
<linearGradient id="paint1_linear_306:7440" x1="56" y1="1" x2="53.8078" y2="9.60884" gradientUnits="userSpaceOnUse">
<stop stop-color="white"/>
<stop offset="1" stop-color="white" stop-opacity="0"/>
</linearGradient>
<linearGradient id="paint2_linear_306:7440" x1="56" y1="1" x2="53.8078" y2="9.60884" gradientUnits="userSpaceOnUse">
<stop stop-color="white"/>
<stop offset="1" stop-color="white" stop-opacity="0"/>
</linearGradient>
<linearGradient id="paint3_linear_306:7440" x1="56" y1="1" x2="53.8078" y2="9.60884" gradientUnits="userSpaceOnUse">
<stop stop-color="white"/>
<stop offset="1" stop-color="white" stop-opacity="0"/>
</linearGradient>
<linearGradient id="paint4_linear_306:7440" x1="56" y1="1" x2="53.8078" y2="9.60884" gradientUnits="userSpaceOnUse">
<stop stop-color="white"/>
<stop offset="1" stop-color="white" stop-opacity="0"/>
</linearGradient>
<linearGradient id="paint5_linear_306:7440" x1="56" y1="1" x2="53.8078" y2="9.60884" gradientUnits="userSpaceOnUse">
<stop stop-color="white"/>
<stop offset="1" stop-color="white" stop-opacity="0"/>
</linearGradient>
<linearGradient id="paint6_linear_306:7440" x1="56" y1="1" x2="53.8078" y2="9.60884" gradientUnits="userSpaceOnUse">
<stop stop-color="white"/>
<stop offset="1" stop-color="white" stop-opacity="0"/>
</linearGradient>
<linearGradient id="paint7_linear_306:7440" x1="56" y1="1" x2="53.8078" y2="9.60884" gradientUnits="userSpaceOnUse">
<stop stop-color="white"/>
<stop offset="1" stop-color="white" stop-opacity="0"/>
</linearGradient>
<clipPath id="clip0_306:7440">
<rect width="50" height="50" fill="white"/>
</clipPath>
</defs>
</svg>
