<svg width="50" height="50" viewBox="0 0 50 50" fill="none" xmlns="http://www.w3.org/2000/svg">
<rect width="50" height="50" fill="url(#paint0_linear_231:7432)"/>
<path fill-rule="evenodd" clip-rule="evenodd" d="M25 26.3318V27C25 28.1046 25.8954 29 27 29H27.4816C26.6155 28.1482 25.7874 27.2579 25 26.3318ZM25 21.3905C26.9669 24.2356 29.3154 26.7968 31.9715 29H34.0868C30.4698 26.2627 27.381 22.8643 25 18.9847V21.3905ZM38.9138 29H42.4089C34.1751 25.1345 27.8562 17.8655 25.2645 9.00529C25.0962 9.29827 25 9.63789 25 10V13.1213C27.8245 19.786 32.7355 25.352 38.9138 29ZM27.4445 8C29.9316 16.8961 36.4641 24.1033 44.9336 27.5131C44.9769 27.3494 45 27.1774 45 27V25.4215C37.578 22.2056 31.841 15.8345 29.4808 8H27.4445ZM31.6316 8C33.8285 14.696 38.7084 20.1758 45 23.1683V20.6193C39.9577 17.9237 36.0196 13.4326 34.0401 8H31.6316ZM35.8926 8C37.6732 12.4715 40.9022 16.2091 45 18.6334V15.541C42.3019 13.6278 40.1238 11.0297 38.7189 8H35.8926ZM40.2874 8C41.4334 10.2464 43.0471 12.2145 45 13.7759V10C45 8.89543 44.1046 8 43 8H40.2874Z" fill="white"/>
<path d="M5 9C5 8.44772 5.44772 8 6 8H21C21.5523 8 22 8.44772 22 9V10C22 10.5523 21.5523 11 21 11H6C5.44772 11 5 10.5523 5 10V9Z" fill="url(#paint1_linear_231:7432)"/>
<path d="M5 21C5 20.4477 5.44772 20 6 20H21C21.5523 20 22 20.4477 22 21V22C22 22.5523 21.5523 23 21 23H6C5.44772 23 5 22.5523 5 22V21Z" fill="url(#paint2_linear_231:7432)"/>
<path d="M5 33C5 32.4477 5.44772 32 6 32H44C44.5523 32 45 32.4477 45 33V34C45 34.5523 44.5523 35 44 35H6C5.44771 35 5 34.5523 5 34V33Z" fill="url(#paint3_linear_231:7432)"/>
<path d="M5 15C5 14.4477 5.44772 14 6 14H21C21.5523 14 22 14.4477 22 15V16C22 16.5523 21.5523 17 21 17H6C5.44772 17 5 16.5523 5 16V15Z" fill="url(#paint4_linear_231:7432)"/>
<path d="M5 27C5 26.4477 5.44772 26 6 26H21C21.5523 26 22 26.4477 22 27V28C22 28.5523 21.5523 29 21 29H6C5.44772 29 5 28.5523 5 28V27Z" fill="url(#paint5_linear_231:7432)"/>
<path d="M5 39C5 38.4477 5.44772 38 6 38H44C44.5523 38 45 38.4477 45 39V40C45 40.5523 44.5523 41 44 41H6C5.44771 41 5 40.5523 5 40V39Z" fill="url(#paint6_linear_231:7432)"/>
<rect x="25.5" y="8.5" width="19" height="20" rx="1.5" stroke="white"/>
<defs>
<linearGradient id="paint0_linear_231:7432" x1="25" y1="0" x2="25" y2="50" gradientUnits="userSpaceOnUse">
<stop stop-color="#6040FF"/>
<stop offset="1" stop-color="#132FBF"/>
</linearGradient>
<linearGradient id="paint1_linear_231:7432" x1="5" y1="8" x2="45" y2="41" gradientUnits="userSpaceOnUse">
<stop offset="0.369792" stop-color="white"/>
<stop offset="1" stop-color="white" stop-opacity="0"/>
</linearGradient>
<linearGradient id="paint2_linear_231:7432" x1="5" y1="8" x2="45" y2="41" gradientUnits="userSpaceOnUse">
<stop offset="0.369792" stop-color="white"/>
<stop offset="1" stop-color="white" stop-opacity="0"/>
</linearGradient>
<linearGradient id="paint3_linear_231:7432" x1="5" y1="8" x2="45" y2="41" gradientUnits="userSpaceOnUse">
<stop offset="0.369792" stop-color="white"/>
<stop offset="1" stop-color="white" stop-opacity="0"/>
</linearGradient>
<linearGradient id="paint4_linear_231:7432" x1="5" y1="8" x2="45" y2="41" gradientUnits="userSpaceOnUse">
<stop offset="0.369792" stop-color="white"/>
<stop offset="1" stop-color="white" stop-opacity="0"/>
</linearGradient>
<linearGradient id="paint5_linear_231:7432" x1="5" y1="8" x2="45" y2="41" gradientUnits="userSpaceOnUse">
<stop offset="0.369792" stop-color="white"/>
<stop offset="1" stop-color="white" stop-opacity="0"/>
</linearGradient>
<linearGradient id="paint6_linear_231:7432" x1="5" y1="8" x2="45" y2="41" gradientUnits="userSpaceOnUse">
<stop offset="0.369792" stop-color="white"/>
<stop offset="1" stop-color="white" stop-opacity="0"/>
</linearGradient>
</defs>
</svg>
