<svg width="50" height="50" viewBox="0 0 50 50" fill="none" xmlns="http://www.w3.org/2000/svg">
<g clip-path="url(#clip0_371:7434)">
<rect width="50" height="50" fill="url(#paint0_linear_371:7434)"/>
<path d="M29.9844 41.341C28.975 43.5838 28.3337 45.9771 28.0865 48.4241C30.4428 48.995 32.2386 50.7057 32.5157 52.9434C32.7922 55.1832 31.4722 57.3306 29.335 58.5254C30.1685 60.823 31.37 62.9602 32.891 64.8507C34.9702 63.5494 37.4422 63.4503 39.1939 64.8162C40.9455 66.1822 41.4881 68.6353 40.7898 71.0122C42.9795 72.0171 45.321 72.6445 47.7198 72.8691C48.3041 70.4593 50.0021 68.6089 52.1999 68.3012C54.3998 67.9941 56.4912 69.316 57.6391 71.4819C59.9019 70.6062 62.0115 69.357 63.8828 67.7848C62.6299 65.6792 62.5604 63.1596 63.9198 61.3581C65.2792 59.5566 67.6913 58.9757 70.0147 59.6611C71.0249 57.4169 71.6666 55.0222 71.9138 52.5736C69.5569 52.0049 67.761 50.2942 67.4839 48.0565C67.2075 45.8167 68.5274 43.6693 70.6646 42.4745C69.8312 40.1769 68.6297 38.0397 67.1087 36.1492C65.0295 37.4505 62.5574 37.5496 60.8058 36.1837C59.0542 34.8177 58.5115 32.3646 59.2099 29.9877C57.0202 28.9828 54.6786 28.3554 52.2798 28.1308C51.6956 30.5406 49.9975 32.391 47.7997 32.6987C45.5998 33.0058 43.5085 31.6839 42.3606 29.518C40.0978 30.3937 37.9882 31.6429 36.1169 33.2151C37.3698 35.3206 37.4392 37.8403 36.0799 39.6418C34.7205 41.4433 32.3083 42.0242 29.985 41.3388L29.9844 41.341ZM51.7464 43.9817C53.4367 44.4346 54.8738 45.5557 55.7415 47.0984C56.6092 48.6411 56.8365 50.479 56.3733 52.2077C55.9101 53.9365 54.7943 55.4145 53.2715 56.3166C51.7487 57.2187 49.9436 57.4711 48.2533 57.0182C46.5629 56.5653 45.1258 55.4441 44.2581 53.9015C43.3904 52.3588 43.1632 50.5209 43.6264 48.7922C44.0896 47.0634 45.2053 45.5854 46.7281 44.6833C48.2509 43.7811 50.056 43.5288 51.7464 43.9817Z" fill="url(#paint1_linear_371:7434)"/>
<path d="M-20.0156 9.65902C-21.025 7.41616 -21.6663 5.02294 -21.9135 2.57586C-19.5572 2.00504 -17.7614 0.294268 -17.4843 -1.94338C-17.2078 -4.18319 -18.5278 -6.33058 -20.665 -7.52543C-19.8315 -9.823 -18.63 -11.9602 -17.109 -13.8507C-15.0298 -12.5494 -12.5578 -12.4503 -10.8061 -13.8162C-9.05452 -15.1822 -8.51186 -17.6353 -9.21021 -20.0122C-7.0205 -21.0171 -4.67898 -21.6445 -2.28015 -21.8691C-1.69595 -19.4593 0.00214538 -17.6089 2.19993 -17.3012C4.39984 -16.9941 6.49116 -18.316 7.63905 -20.4819C9.90187 -19.6062 12.0115 -18.357 13.8828 -16.7848C12.6299 -14.6792 12.5604 -12.1596 13.9198 -10.3581C15.2792 -8.55658 17.6913 -7.97568 20.0147 -8.66109C21.0249 -6.41694 21.6666 -4.02221 21.9138 -1.57359C19.5569 -1.00494 17.761 0.705835 17.4839 2.94348C17.2075 5.1833 18.5274 7.33068 20.6646 8.52553C19.8312 10.8231 18.6297 12.9603 17.1087 14.8508C15.0295 13.5495 12.5574 13.4504 10.8058 14.8163C9.05418 16.1823 8.51152 18.6354 9.20987 21.0123C7.02016 22.0172 4.67863 22.6446 2.27981 22.8692C1.6956 20.4594 -0.00248835 18.609 -2.20027 18.3013C-4.40018 17.9942 -6.4915 19.3161 -7.6394 21.482C-9.90221 20.6063 -12.0118 19.3571 -13.8831 17.7849C-12.6302 15.6794 -12.5608 13.1597 -13.9201 11.3582C-15.2795 9.55669 -17.6917 8.97578 -20.015 9.66119L-20.0156 9.65902ZM1.74639 7.01829C3.43673 6.56537 4.87383 5.44425 5.74154 3.90158C6.60925 2.3589 6.83649 0.521037 6.37327 -1.20771C5.91006 -2.93645 4.79433 -4.41447 3.27153 -5.31661C1.74874 -6.21875 -0.0563868 -6.47111 -1.74673 -6.01819C-3.43707 -5.56526 -4.87417 -4.44415 -5.74188 -2.90147C-6.60959 -1.3588 -6.83683 0.479066 -6.37362 2.20781C-5.9104 3.93656 -4.79467 5.41457 -3.27188 6.31671C-1.74908 7.21885 0.0560428 7.47122 1.74639 7.01829V7.01829Z" fill="url(#paint2_linear_371:7434)"/>
</g>
<defs>
<linearGradient id="paint0_linear_371:7434" x1="25" y1="0" x2="25" y2="50" gradientUnits="userSpaceOnUse">
<stop stop-color="#212121"/>
<stop offset="1" stop-color="#767676"/>
</linearGradient>
<linearGradient id="paint1_linear_371:7434" x1="44.1766" y1="72.2333" x2="55.8234" y2="28.7667" gradientUnits="userSpaceOnUse">
<stop stop-color="white"/>
<stop offset="1" stop-color="white" stop-opacity="0"/>
</linearGradient>
<linearGradient id="paint2_linear_371:7434" x1="-5.82342" y1="-21.2333" x2="5.82343" y2="22.2333" gradientUnits="userSpaceOnUse">
<stop stop-color="white"/>
<stop offset="1" stop-color="white" stop-opacity="0"/>
</linearGradient>
<clipPath id="clip0_371:7434">
<rect width="50" height="50" fill="white"/>
</clipPath>
</defs>
</svg>
