<svg width="26" height="26" viewBox="0 0 26 26" fill="none" xmlns="http://www.w3.org/2000/svg">
<g clip-path="url(#clip0)">
<rect x="0.5" y="0.5" width="25" height="25" rx="5" fill="#46007C" fill-opacity="0.8"/>
<rect width="25" height="25" transform="translate(0.5 0.5)" fill="white" fill-opacity="0.3"/>
<path fill-rule="evenodd" clip-rule="evenodd" d="M9.22222 5.44445C9.22222 4.92284 9.64506 4.5 10.1667 4.5C10.5162 4.5 10.8215 4.68993 10.9848 4.97222H10.9856C10.987 4.97512 10.9883 4.97802 10.9897 4.98091C11.0062 5.01016 11.0212 5.04037 11.0346 5.07145C11.315 5.61608 11.7498 6.08921 12.3197 6.41825C13.6918 7.2104 15.3957 6.90715 16.4187 5.77983C16.6816 5.49014 17.1099 5.3669 17.4487 5.5625C17.7874 5.7581 17.9074 6.19571 17.6638 6.50177C16.2321 8.30005 13.6623 8.82918 11.6114 7.64512C11.4356 7.54359 11.2687 7.43245 11.1111 7.31275V17.7222C11.1111 17.7781 11.1063 17.8329 11.0969 17.8862C11.1063 17.9877 11.1111 18.0905 11.1111 18.1944C11.1111 20.0201 9.63116 21.5 7.80556 21.5C5.97995 21.5 4.5 20.0201 4.5 18.1944C4.5 16.3688 5.97995 14.8889 7.80556 14.8889C8.31253 14.8889 8.79285 15.003 9.22222 15.207V5.44445Z" fill="white"/>
<rect x="13.5" y="12.5" width="8" height="2" rx="1" fill="white"/>
<rect x="13.5" y="9.5" width="8" height="2" rx="1" fill="white"/>
<rect x="13.5" y="15.5" width="8" height="2" rx="1" fill="white"/>
<rect x="13.5" y="18.5" width="8" height="2" rx="1" fill="white"/>
</g>
<defs>
<clipPath id="clip0">
<rect x="0.5" y="0.5" width="25" height="25" rx="5" fill="white"/>
</clipPath>
</defs>
</svg>
